{
copyright = "Copyright (c) 2015, Cadson Demak (info@cadsondemak.com)";
customParameters = (
{
name = vendorID;
value = CDK;
},
{
name = description;
value = "Copyright (c) 2015, Cadson Demak (info@cadsondemak.com)";
},
{
name = license;

glyphs = (
{
glyphname = A;
lastChange = "2015-11-29 22:57:18 +0000";
layers = (
{
layerId = "A20AAD8A-5619-416D-9D3E-77802FB4F06A";
name = "Bold Italic";
paths = (
{
closed = 1;
nodes = (
"208 0 LINE",
"212 20 LINE",
"185 31 OFFCURVE",
"163 41 OFFCURVE",
"138 46 CURVE",
"407 534 LINE",
"472 48 LINE",
"460 46 OFFCURVE",
"435 39 OFFCURVE",
"391 25 CURVE",
"387 0 LINE",
"728 0 LINE",
"732 22 LINE",
"707 32 OFFCURVE",
"683 40 OFFCURVE",
"661 46 CURVE",
"556 704 LINE",
"417 704 LINE",
"46 49 LINE",
"42 48 OFFCURVE",
"-7 35 OFFCURVE",
"-36 26 CURVE",
"-41 0 LINE"
);
},
{
closed = 1;
nodes = (
"507 176 LINE",
"518 235 LINE",
"193 235 LINE",
"181 176 LINE"
);
}
);
width = 780;
}
);
leftKerningGroup = A;
note = A;
rightKerningGroup = A;
unicode = 0041;
},
{
glyphname = Aacute;
lastChange = "2015-11-29 22:57:18 +0000";
layers = (
{
layerId = "A20AAD8A-5619-416D-9D3E-77802FB4F06A";
name = "Bold Italic";
paths = (
{
closed = 1;
nodes = (
"208 0 LINE",
"212 20 LINE",
"185 31 OFFCURVE",
"163 41 OFFCURVE",
"138 46 CURVE",
"407 534 LINE",
"472 48 LINE",
"460 46 OFFCURVE",
"435 39 OFFCURVE",
"391 25 CURVE",
"387 0 LINE",
"728 0 LINE",
"732 22 LINE",
"707 32 OFFCURVE",
"683 40 OFFCURVE",
"661 46 CURVE",
"556 704 LINE",
"417 704 LINE",
"46 49 LINE",
"42 48 OFFCURVE",
"-7 35 OFFCURVE",
"-36 26 CURVE",
"-41 0 LINE"
);
},
{
closed = 1;
nodes = (
"507 176 LINE",
"518 235 LINE",
"193 235 LINE",
"181 176 LINE"
);
},
{
closed = 1;
nodes = (
"592 886 LINE SMOOTH",
"633 909 OFFCURVE",
"658 931 OFFCURVE",
"665 960 CURVE",
"669 982 OFFCURVE",
"658 1011 OFFCURVE",
"617 1011 CURVE SMOOTH",
"578 1011 OFFCURVE",
"542 975 OFFCURVE",
"536 969 CURVE",
"386 830 LINE",
"407 786 LINE"
);
}
);
width = 780;
}
);
leftKerningGroup = A;
note = Aacute;
rightKerningGroup = A;
unicode = 00C1;
},
{
glyphname = Abreve;
lastChange = "2015-11-29 22:57:20 +0000";
layers = (
{
layerId = "A20AAD8A-5619-416D-9D3E-77802FB4F06A";
name = "Bold Italic";
paths = (
{
closed = 1;
nodes = (
"208 0 LINE",
"212 20 LINE",
"185 31 OFFCURVE",
"163 41 OFFCURVE",
"138 46 CURVE",
"407 534 LINE",
"472 48 LINE",
"460 46 OFFCURVE",
"435 39 OFFCURVE",
"391 25 CURVE",
"387 0 LINE",
"728 0 LINE",
"732 22 LINE",
"707 32 OFFCURVE",
"683 40 OFFCURVE",
"661 46 CURVE",
"556 704 LINE",
"417 704 LINE",
"46 49 LINE",
"42 48 OFFCURVE",
"-7 35 OFFCURVE",
"-36 26 CURVE",
"-41 0 LINE"
);
},
{
closed = 1;
nodes = (
"507 176 LINE",
"518 235 LINE",
"193 235 LINE",
"181 176 LINE"
);
},
{
closed = 1;
nodes = (
"605 786 OFFCURVE",
"684 831 OFFCURVE",
"722 927 CURVE",
"620 927 LINE",
"599 856 OFFCURVE",
"555 847 OFFCURVE",
"515 847 CURVE SMOOTH",
"476 847 OFFCURVE",
"436 856 OFFCURVE",
"443 927 CURVE",
"342 927 LINE",
"340 831 OFFCURVE",
"400 786 OFFCURVE",
"503 786 CURVE SMOOTH"
);
}
);
width = 780;
}
);
leftKerningGroup = A;
note = Abreve;
rightKerningGroup = A;
unicode = 0102;
},
{
glyphname = Abreveacute;
lastChange = "2015-11-29 22:57:21 +0000";
layers = (
{
layerId = "A20AAD8A-5619-416D-9D3E-77802FB4F06A";
name = "Bold Italic";
paths = (
{
closed = 1;
nodes = (
"208 0 LINE",
"212 20 LINE",
"185 31 OFFCURVE",
"163 41 OFFCURVE",
"138 46 CURVE",
"407 534 LINE",
"472 48 LINE",
"460 46 OFFCURVE",
"435 39 OFFCURVE",
"391 25 CURVE",
"387 0 LINE",
"728 0 LINE",
"732 22 LINE",
"707 32 OFFCURVE",
"683 40 OFFCURVE",
"661 46 CURVE",
"556 704 LINE",
"417 704 LINE",
"46 49 LINE",
"42 48 OFFCURVE",
"-7 35 OFFCURVE",
"-36 26 CURVE",
"-41 0 LINE"
);
},
{
closed = 1;
nodes = (
"507 176 LINE",
"518 235 LINE",
"193 235 LINE",
"181 176 LINE"
);
},
{
closed = 1;
nodes = (
"605 786 OFFCURVE",
"683 831 OFFCURVE",
"721 927 CURVE",
"620 927 LINE",
"599 856 OFFCURVE",
"555 847 OFFCURVE",
"515 847 CURVE SMOOTH",
"476 847 OFFCURVE",
"436 856 OFFCURVE",
"443 927 CURVE",
"341 927 LINE",
"339 831 OFFCURVE",
"400 786 OFFCURVE",
"503 786 CURVE SMOOTH"
);
},
{
closed = 1;
nodes = (
"638 994 LINE SMOOTH",
"680 1014 OFFCURVE",
"711 1039 OFFCURVE",
"718 1068 CURVE",
"722 1090 OFFCURVE",
"712 1123 OFFCURVE",
"670 1123 CURVE SMOOTH",
"638 1123 OFFCURVE",
"606 1093 OFFCURVE",
"588 1074 CURVE SMOOTH",
"493 975 LINE",
"514 937 LINE"
);
}
);
width = 780;
}
);
leftKerningGroup = A;
note = Abreveacute;
rightKerningGroup = A;
unicode = 1EAE;
},
{
glyphname = Abrevedotbelow;
lastChange = "2015-11-29 22:57:21 +0000";
layers = (
{
layerId = "A20AAD8A-5619-416D-9D3E-77802FB4F06A";
name = "Bold Italic";
paths = (
{
closed = 1;
nodes = (
"208 0 LINE",
"212 20 LINE",
"185 31 OFFCURVE",
"163 41 OFFCURVE",
"138 46 CURVE",
"407 534 LINE",
"472 48 LINE",
"460 46 OFFCURVE",
"435 39 OFFCURVE",
"391 25 CURVE",
"387 0 LINE",
"728 0 LINE",
"732 22 LINE",
"707 32 OFFCURVE",
"683 40 OFFCURVE",
"661 46 CURVE",
"556 704 LINE",
"417 704 LINE",
"46 49 LINE",
"42 48 OFFCURVE",
"-7 35 OFFCURVE",
"-36 26 CURVE",
"-41 0 LINE"
);
},
{
closed = 1;
nodes = (
"340 -195 OFFCURVE",
"374 -163 OFFCURVE",
"382 -123 CURVE SMOOTH",
"390 -83 OFFCURVE",
"370 -50 OFFCURVE",
"327 -50 CURVE SMOOTH",
"284 -50 OFFCURVE",
"251 -83 OFFCURVE",
"243 -123 CURVE SMOOTH",
"235 -163 OFFCURVE",
"254 -195 OFFCURVE",
"297 -195 CURVE SMOOTH"
);
},
{
closed = 1;
nodes = (
"507 176 LINE",
"518 235 LINE",
"193 235 LINE",
"181 176 LINE"
);
},
{
closed = 1;
nodes = (
"604 786 OFFCURVE",
"682 831 OFFCURVE",
"720 927 CURVE",
"618 927 LINE",
"597 856 OFFCURVE",
"553 847 OFFCURVE",
"514 847 CURVE SMOOTH",
"474 847 OFFCURVE",
"434 856 OFFCURVE",
"442 927 CURVE",
"341 927 LINE",
"338 831 OFFCURVE",
"398 786 OFFCURVE",
"501 786 CURVE SMOOTH"
);
}
);
width = 780;
}
);
leftKerningGroup = A;
note = Abrevedotbelow;
rightKerningGroup = A;
unicode = 1EB6;
},
{
glyphname = Abrevegrave;
lastChange = "2015-11-29 22:57:20 +0000";
layers = (
{
layerId = "A20AAD8A-5619-416D-9D3E-77802FB4F06A";
name = "Bold Italic";
paths = (
{
closed = 1;
nodes = (
"208 0 LINE",
"212 20 LINE",
"185 31 OFFCURVE",
"163 41 OFFCURVE",
"138 46 CURVE",
"407 534 LINE",
"472 48 LINE",
"460 46 OFFCURVE",
"435 39 OFFCURVE",
"391 25 CURVE",
"387 0 LINE",
"728 0 LINE",
"732 22 LINE",
"707 32 OFFCURVE",
"683 40 OFFCURVE",
"661 46 CURVE",
"556 704 LINE",
"417 704 LINE",
"46 49 LINE",
"42 48 OFFCURVE",
"-7 35 OFFCURVE",
"-36 26 CURVE",
"-41 0 LINE"
);
},
{
closed = 1;
nodes = (
"507 176 LINE",
"518 235 LINE",
"193 235 LINE",
"181 176 LINE"
);
},
{
closed = 1;
nodes = (
"605 786 OFFCURVE",
"683 831 OFFCURVE",
"721 927 CURVE",
"620 927 LINE",
"599 856 OFFCURVE",
"555 847 OFFCURVE",
"515 847 CURVE SMOOTH",
"476 847 OFFCURVE",
"436 856 OFFCURVE",
"443 927 CURVE",
"341 927 LINE",
"339 831 OFFCURVE",
"400 786 OFFCURVE",
"503 786 CURVE SMOOTH"
);
},
{
closed = 1;
nodes = (
"590 975 LINE",
"535 1074 LINE SMOOTH",
"525 1093 OFFCURVE",
"505 1123 OFFCURVE",
"472 1123 CURVE SMOOTH",
"430 1123 OFFCURVE",
"407 1090 OFFCURVE",
"403 1068 CURVE",
"396 1039 OFFCURVE",
"417 1014 OFFCURVE",
"453 994 CURVE SMOOTH",
"554 937 LINE"
);
}
);
width = 780;
}
);
leftKerningGroup = A;
note = Abrevegrave;
rightKerningGroup = A;
unicode = 1EB0;
},
{
glyphname = Abrevehookabove;
lastChange = "2015-11-29 22:57:20 +0000";
layers = (
{
layerId = "A20AAD8A-5619-416D-9D3E-77802FB4F06A";
name = "Bold Italic";
paths = (
{
closed = 1;
nodes = (
"208 0 LINE",
"212 20 LINE",
"185 31 OFFCURVE",
"163 41 OFFCURVE",
"138 46 CURVE",
"407 534 LINE",
"472 48 LINE",
"460 46 OFFCURVE",
"435 39 OFFCURVE",
"391 25 CURVE",
"387 0 LINE",
"728 0 LINE",
"732 22 LINE",
"707 32 OFFCURVE",
"683 40 OFFCURVE",
"661 46 CURVE",
"556 704 LINE",
"417 704 LINE",
"46 49 LINE",
"42 48 OFFCURVE",
"-7 35 OFFCURVE",
"-36 26 CURVE",
"-41 0 LINE"
);
},
{
closed = 1;
nodes = (
"507 176 LINE",
"518 235 LINE",
"193 235 LINE",
"181 176 LINE"
);
},
{
closed = 1;
nodes = (
"605 786 OFFCURVE",
"683 831 OFFCURVE",
"721 927 CURVE",
"620 927 LINE",
"599 856 OFFCURVE",
"555 847 OFFCURVE",
"515 847 CURVE SMOOTH",
"476 847 OFFCURVE",
"436 856 OFFCURVE",
"443 927 CURVE",
"341 927 LINE",
"339 831 OFFCURVE",
"400 786 OFFCURVE",
"503 786 CURVE SMOOTH"
);
},
{
closed = 1;
nodes = (
"569 964 LINE",
"586 1004 LINE",
"633 1009 OFFCURVE",
"676 1026 OFFCURVE",
"689 1088 CURVE SMOOTH",
"702 1156 OFFCURVE",
"649 1180 OFFCURVE",
"593 1180 CURVE SMOOTH",
"564 1180 OFFCURVE",
"534 1173 OFFCURVE",
"513 1163 CURVE",
"510 1121 LINE",
"530 1132 OFFCURVE",
"552 1136 OFFCURVE",
"567 1136 CURVE SMOOTH",
"604 1136 OFFCURVE",
"617 1113 OFFCURVE",
"612 1089 CURVE SMOOTH",
"604 1051 OFFCURVE",
"573 1042 OFFCURVE",
"556 1042 CURVE SMOOTH",
"516 1042 LINE",
"504 964 LINE"
);
}
);
width = 780;
}
);
leftKerningGroup = A;
note = Abrevehookabove;
rightKerningGroup = A;
unicode = 1EB2;
},
{
glyphname = Abrevetilde;
lastChange = "2015-11-29 22:57:18 +0000";
layers = (
{
layerId = "A20AAD8A-5619-416D-9D3E-77802FB4F06A";
name = "Bold Italic";
paths = (
{
closed = 1;
nodes = (
"208 0 LINE",
"212 20 LINE",
"185 31 OFFCURVE",
"163 41 OFFCURVE",
"138 46 CURVE",
"407 534 LINE",
"472 48 LINE",
"460 46 OFFCURVE",
"435 39 OFFCURVE",
"391 25 CURVE",
"387 0 LINE",
"728 0 LINE",
"732 22 LINE",
"707 32 OFFCURVE",
"683 40 OFFCURVE",
"661 46 CURVE",
"556 704 LINE",
"417 704 LINE",
"46 49 LINE",
"42 48 OFFCURVE",
"-7 35 OFFCURVE",
"-36 26 CURVE",
"-41 0 LINE"
);
},
{
closed = 1;
nodes = (
"507 176 LINE",
"518 235 LINE",
"193 235 LINE",
"181 176 LINE"
);
},
{
closed = 1;
nodes = (
"605 786 OFFCURVE",
"683 831 OFFCURVE",
"721 927 CURVE",
"620 927 LINE",
"599 856 OFFCURVE",
"555 847 OFFCURVE",
"515 847 CURVE SMOOTH",
"476 847 OFFCURVE",
"436 856 OFFCURVE",
"443 927 CURVE",
"341 927 LINE",
"339 831 OFFCURVE",
"400 786 OFFCURVE",
"503 786 CURVE SMOOTH"
);
},
{
closed = 1;
nodes = (
"408 987 LINE",
"419 1016 OFFCURVE",
"446 1035 OFFCURVE",
"479 1035 CURVE SMOOTH",
"528 1035 OFFCURVE",
"551 987 OFFCURVE",
"610 987 CURVE SMOOTH",
"692 987 OFFCURVE",
"739 1037 OFFCURVE",
"761 1110 CURVE",
"700 1110 LINE",
"679 1064 OFFCURVE",
"642 1061 OFFCURVE",
"623 1061 CURVE SMOOTH",
"585 1061 OFFCURVE",
"573 1109 OFFCURVE",
"498 1109 CURVE SMOOTH",
"426 1109 OFFCURVE",
"373 1066 OFFCURVE",
"346 987 CURVE"
);
}
);
width = 780;
}
);
leftKerningGroup = A;
note = Abrevetilde;
rightKerningGroup = A;
unicode = 1EB4;
},
{
glyphname = Acaron;
lastChange = "2015-11-29 22:57:18 +0000";
layers = (
{
layerId = "A20AAD8A-5619-416D-9D3E-77802FB4F06A";
name = "Bold Italic";
paths = (
{
closed = 1;
nodes = (
"208 0 LINE",
"212 20 LINE",
"185 31 OFFCURVE",
"163 41 OFFCURVE",
"138 46 CURVE",
"407 534 LINE",
"472 48 LINE",
"460 46 OFFCURVE",
"435 39 OFFCURVE",
"391 25 CURVE",
"387 0 LINE",
"728 0 LINE",
"732 22 LINE",
"707 32 OFFCURVE",
"683 40 OFFCURVE",
"661 46 CURVE",
"556 704 LINE",
"417 704 LINE",
"46 49 LINE",
"42 48 OFFCURVE",
"-7 35 OFFCURVE",
"-36 26 CURVE",
"-41 0 LINE"
);
},
{
closed = 1;
nodes = (
"507 176 LINE",
"518 235 LINE",
"193 235 LINE",
"181 176 LINE"
);
},
{
closed = 1;
nodes = (
"460 786 OFFCURVE",
"547 786 OFFCURVE",
"547 786 CURVE",
"574 819 OFFCURVE",
"692 913 OFFCURVE",
"743 942 CURVE",
"677 997 LINE",
"628 962 OFFCURVE",
"547 892 OFFCURVE",
"518 855 CURVE",
"518 855 OFFCURVE",
"515 855 OFFCURVE",
"515 855 CURVE",
"502 892 OFFCURVE",
"449 962 OFFCURVE",
"413 997 CURVE",
"328 942 LINE",
"367 913 OFFCURVE",
"446 819 OFFCURVE",
"460 786 CURVE"
);
}
);
width = 780;
}
);
leftKerningGroup = A;
note = Acaron;
rightKerningGroup = A;
unicode = 01CD;
},
{
glyphname = Acircumflex;
lastChange = "2015-11-29 22:57:19 +0000";
layers = (
{
layerId = "A20AAD8A-5619-416D-9D3E-77802FB4F06A";
name = "Bold Italic";
paths = (
{
closed = 1;
nodes = (
"208 0 LINE",
"212 20 LINE",
"185 31 OFFCURVE",
"163 41 OFFCURVE",
"138 46 CURVE",
"407 534 LINE",
"472 48 LINE",
"460 46 OFFCURVE",
"435 39 OFFCURVE",
"391 25 CURVE",
"387 0 LINE",
"728 0 LINE",
"732 22 LINE",
"707 32 OFFCURVE",
"683 40 OFFCURVE",
"661 46 CURVE",
"556 704 LINE",
"417 704 LINE",
"46 49 LINE",
"42 48 OFFCURVE",
"-7 35 OFFCURVE",
"-36 26 CURVE",
"-41 0 LINE"
);
},
{
closed = 1;
nodes = (
"507 176 LINE",
"518 235 LINE",
"193 235 LINE",
"181 176 LINE"
);
},
{
closed = 1;
nodes = (
"420 821 OFFCURVE",
"502 891 OFFCURVE",
"531 928 CURVE",
"531 928 OFFCURVE",
"533 928 OFFCURVE",
"533 928 CURVE",
"547 891 OFFCURVE",
"600 821 OFFCURVE",
"635 786 CURVE",
"722 841 LINE",
"682 870 OFFCURVE",
"603 964 OFFCURVE",
"589 997 CURVE",
"589 997 OFFCURVE",
"502 997 OFFCURVE",
"502 997 CURVE",
"475 964 OFFCURVE",
"358 870 OFFCURVE",
"307 841 CURVE",
"372 786 LINE"
);
}
);
width = 780;
}
);
leftKerningGroup = A;
note = Acircumflex;
rightKerningGroup = A;
unicode = 00C2;
},
{
glyphname = Acircumflexacute;
lastChange = "2015-11-29 22:57:18 +0000";
layers = (
{
layerId = "A20AAD8A-5619-416D-9D3E-77802FB4F06A";
name = "Bold Italic";
paths = (
{
closed = 1;
nodes = (
"208 0 LINE",
"212 20 LINE",
"185 31 OFFCURVE",
"163 41 OFFCURVE",
"138 46 CURVE",
"407 534 LINE",
"472 48 LINE",
"460 46 OFFCURVE",
"435 39 OFFCURVE",
"391 25 CURVE",
"387 0 LINE",
"728 0 LINE",
"732 22 LINE",
"707 32 OFFCURVE",
"683 40 OFFCURVE",
"661 46 CURVE",
"556 704 LINE",
"417 704 LINE",
"46 49 LINE",
"42 48 OFFCURVE",
"-7 35 OFFCURVE",
"-36 26 CURVE",
"-41 0 LINE"
);
},
{
closed = 1;
nodes = (
"507 176 LINE",
"518 235 LINE",
"193 235 LINE",
"181 176 LINE"
);
},
{
closed = 1;
nodes = (
"423 821 OFFCURVE",
"505 891 OFFCURVE",
"533 928 CURVE",
"533 928 OFFCURVE",
"536 928 OFFCURVE",
"536 928 CURVE",
"550 891 OFFCURVE",
"603 821 OFFCURVE",
"638 786 CURVE",
"724 841 LINE",
"684 870 OFFCURVE",
"605 964 OFFCURVE",
"592 997 CURVE",
"592 997 OFFCURVE",
"505 997 OFFCURVE",
"505 997 CURVE",
"478 964 OFFCURVE",
"360 870 OFFCURVE",
"309 841 CURVE",
"374 786 LINE"
);
},
{
closed = 1;
nodes = (
"812 994 LINE SMOOTH",
"855 1014 OFFCURVE",
"886 1039 OFFCURVE",
"892 1068 CURVE",
"896 1090 OFFCURVE",
"887 1123 OFFCURVE",
"844 1123 CURVE SMOOTH",
"812 1123 OFFCURVE",
"780 1093 OFFCURVE",
"762 1074 CURVE SMOOTH",
"667 975 LINE",
"688 937 LINE"
);
}
);
width = 780;
}
);
leftKerningGroup = A;
note = Acircumflexacute;
rightKerningGroup = A;
unicode = 1EA4;
},
{
glyphname = Acircumflexdotbelow;
lastChange = "2015-11-29 22:57:20 +0000";
layers = (
{
layerId = "A20AAD8A-5619-416D-9D3E-77802FB4F06A";
name = "Bold Italic";
paths = (
{
closed = 1;
nodes = (
"208 0 LINE",
"212 20 LINE",
"185 31 OFFCURVE",
"163 41 OFFCURVE",
"138 46 CURVE",
"407 534 LINE",
"472 48 LINE",
"460 46 OFFCURVE",
"435 39 OFFCURVE",
"391 25 CURVE",
"387 0 LINE",
"728 0 LINE",
"732 22 LINE",
"707 32 OFFCURVE",
"683 40 OFFCURVE",
"661 46 CURVE",
"556 704 LINE",
"417 704 LINE",
"46 49 LINE",
"42 48 OFFCURVE",
"-7 35 OFFCURVE",
"-36 26 CURVE",
"-41 0 LINE"
);
},
{
closed = 1;
nodes = (
"350 -195 OFFCURVE",
"384 -163 OFFCURVE",
"391 -123 CURVE SMOOTH",
"400 -83 OFFCURVE",
"380 -50 OFFCURVE",
"337 -50 CURVE SMOOTH",
"293 -50 OFFCURVE",
"261 -83 OFFCURVE",
"252 -123 CURVE SMOOTH",
"244 -163 OFFCURVE",
"264 -195 OFFCURVE",
"307 -195 CURVE SMOOTH"
);
},
{
closed = 1;
nodes = (
"507 176 LINE",
"518 235 LINE",
"193 235 LINE",
"181 176 LINE"
);
},
{
closed = 1;
nodes = (
"422 820 OFFCURVE",
"504 890 OFFCURVE",
"532 927 CURVE",
"532 927 OFFCURVE",
"535 927 OFFCURVE",
"535 927 CURVE",
"549 890 OFFCURVE",
"602 820 OFFCURVE",
"637 785 CURVE",
"724 840 LINE",
"684 869 OFFCURVE",
"604 963 OFFCURVE",
"591 996 CURVE",
"591 996 OFFCURVE",
"504 996 OFFCURVE",
"504 996 CURVE",
"477 963 OFFCURVE",
"360 869 OFFCURVE",
"309 840 CURVE",
"374 785 LINE"
);
}
);
width = 780;
}
);
leftKerningGroup = A;
note = Acircumflexdotbelow;
rightKerningGroup = A;
unicode = 1EAC;
},
{
glyphname = Acircumflexgrave;
lastChange = "2015-11-29 22:57:20 +0000";
layers = (
{
layerId = "A20AAD8A-5619-416D-9D3E-77802FB4F06A";
name = "Bold Italic";
paths = (
{
closed = 1;
nodes = (
"208 0 LINE",
"212 20 LINE",
"185 31 OFFCURVE",
"163 41 OFFCURVE",
"138 46 CURVE",
"407 534 LINE",
"472 48 LINE",
"460 46 OFFCURVE",
"435 39 OFFCURVE",
"391 25 CURVE",
"387 0 LINE",
"728 0 LINE",
"732 22 LINE",
"707 32 OFFCURVE",
"683 40 OFFCURVE",
"661 46 CURVE",
"556 704 LINE",
"417 704 LINE",
"46 49 LINE",
"42 48 OFFCURVE",
"-7 35 OFFCURVE",
"-36 26 CURVE",
"-41 0 LINE"
);
},
{
closed = 1;
nodes = (
"507 176 LINE",
"518 235 LINE",
"193 235 LINE",
"181 176 LINE"
);
},
{
closed = 1;
nodes = (
"421 975 LINE",
"366 1074 LINE SMOOTH",
"356 1093 OFFCURVE",
"336 1123 OFFCURVE",
"303 1123 CURVE SMOOTH",
"261 1123 OFFCURVE",
"238 1090 OFFCURVE",
"234 1068 CURVE",
"227 1039 OFFCURVE",
"248 1014 OFFCURVE",
"284 994 CURVE SMOOTH",
"385 937 LINE"
);
},
{
closed = 1;
nodes = (
"423 821 OFFCURVE",
"505 891 OFFCURVE",
"533 928 CURVE",
"533 928 OFFCURVE",
"536 928 OFFCURVE",
"536 928 CURVE",
"550 891 OFFCURVE",
"603 821 OFFCURVE",
"638 786 CURVE",
"724 841 LINE",
"684 870 OFFCURVE",
"605 964 OFFCURVE",
"592 997 CURVE",
"592 997 OFFCURVE",
"505 997 OFFCURVE",
"505 997 CURVE",
"478 964 OFFCURVE",
"360 870 OFFCURVE",
"309 841 CURVE",
"374 786 LINE"
);
}
);
width = 780;
}
);
leftKerningGroup = A;
note = Acircumflexgrave;
rightKerningGroup = A;
unicode = 1EA6;
},
{
glyphname = Acircumflexhookabove;
lastChange = "2015-11-29 22:57:20 +0000";
layers = (
{
layerId = "A20AAD8A-5619-416D-9D3E-77802FB4F06A";
name = "Bold Italic";
paths = (
{
closed = 1;
nodes = (
"208 0 LINE",
"212 20 LINE",
"185 31 OFFCURVE",
"163 41 OFFCURVE",
"138 46 CURVE",
"407 534 LINE",
"472 48 LINE",
"460 46 OFFCURVE",
"435 39 OFFCURVE",
"391 25 CURVE",
"387 0 LINE",
"728 0 LINE",
"732 22 LINE",
"707 32 OFFCURVE",
"683 40 OFFCURVE",
"661 46 CURVE",
"556 704 LINE",
"417 704 LINE",
"46 49 LINE",
"42 48 OFFCURVE",
"-7 35 OFFCURVE",
"-36 26 CURVE",
"-41 0 LINE"
);
},
{
closed = 1;
nodes = (
"507 176 LINE",
"518 235 LINE",
"193 235 LINE",
"181 176 LINE"
);
},
{
closed = 1;
nodes = (
"423 821 OFFCURVE",
"505 891 OFFCURVE",
"533 928 CURVE",
"533 928 OFFCURVE",
"536 928 OFFCURVE",
"536 928 CURVE",
"550 891 OFFCURVE",
"603 821 OFFCURVE",
"638 786 CURVE",
"724 841 LINE",
"684 870 OFFCURVE",
"605 964 OFFCURVE",
"592 997 CURVE",
"592 997 OFFCURVE",
"505 997 OFFCURVE",
"505 997 CURVE",
"478 964 OFFCURVE",
"360 870 OFFCURVE",
"309 841 CURVE",
"374 786 LINE"
);
},
{
closed = 1;
nodes = (
"734 964 LINE",
"751 1004 LINE",
"798 1009 OFFCURVE",
"843 1026 OFFCURVE",
"855 1088 CURVE SMOOTH",
"868 1156 OFFCURVE",
"815 1180 OFFCURVE",
"758 1180 CURVE SMOOTH",
"729 1180 OFFCURVE",
"700 1173 OFFCURVE",
"678 1163 CURVE",
"676 1121 LINE",
"695 1132 OFFCURVE",
"717 1136 OFFCURVE",
"732 1136 CURVE SMOOTH",
"769 1136 OFFCURVE",
"782 1113 OFFCURVE",
"777 1089 CURVE SMOOTH",
"770 1051 OFFCURVE",
"738 1042 OFFCURVE",
"721 1042 CURVE SMOOTH",
"681 1042 LINE",
"669 964 LINE"
);
}
);
width = 780;
}
);
leftKerningGroup = A;
note = Acircumflexhookabove;
rightKerningGroup = A;
unicode = 1EA8;
},
{
glyphname = Acircumflextilde;
lastChange = "2015-11-29 22:57:21 +0000";
layers = (
{
layerId = "A20AAD8A-5619-416D-9D3E-77802FB4F06A";
name = "Bold Italic";
paths = (
{
closed = 1;
nodes = (
"208 0 LINE",
"212 20 LINE",
"185 31 OFFCURVE",
"163 41 OFFCURVE",
"138 46 CURVE",
"407 534 LINE",
"472 48 LINE",
"460 46 OFFCURVE",
"435 39 OFFCURVE",
"391 25 CURVE",
"387 0 LINE",
"728 0 LINE",
"732 22 LINE",
"707 32 OFFCURVE",
"683 40 OFFCURVE",
"661 46 CURVE",
"556 704 LINE",
"417 704 LINE",
"46 49 LINE",
"42 48 OFFCURVE",
"-7 35 OFFCURVE",
"-36 26 CURVE",
"-41 0 LINE"
);
},
{
closed = 1;
nodes = (
"507 176 LINE",
"518 235 LINE",
"193 235 LINE",
"181 176 LINE"
);
},
{
closed = 1;
nodes = (
"423 821 OFFCURVE",
"505 891 OFFCURVE",
"533 928 CURVE",
"533 928 OFFCURVE",
"536 928 OFFCURVE",
"536 928 CURVE",
"550 891 OFFCURVE",
"603 821 OFFCURVE",
"638 786 CURVE",
"724 841 LINE",
"684 870 OFFCURVE",
"605 964 OFFCURVE",
"592 997 CURVE",
"592 997 OFFCURVE",
"505 997 OFFCURVE",
"505 997 CURVE",
"478 964 OFFCURVE",
"360 870 OFFCURVE",
"309 841 CURVE",
"374 786 LINE"
);
},
{
closed = 1;
nodes = (
"438 1040 LINE",
"449 1069 OFFCURVE",
"476 1088 OFFCURVE",
"508 1088 CURVE SMOOTH",
"557 1088 OFFCURVE",
"581 1040 OFFCURVE",
"641 1040 CURVE SMOOTH",
"723 1040 OFFCURVE",
"769 1090 OFFCURVE",
"791 1163 CURVE",
"729 1163 LINE",
"709 1117 OFFCURVE",
"672 1114 OFFCURVE",
"652 1114 CURVE SMOOTH",
"615 1114 OFFCURVE",
"604 1162 OFFCURVE",
"529 1162 CURVE SMOOTH",
"457 1162 OFFCURVE",
"403 1119 OFFCURVE",
"377 1040 CURVE"
);
}
);
width = 780;
}
);
leftKerningGroup = A;
note = Acircumflextilde;
rightKerningGroup = A;
unicode = 1EAA;
},
{
glyphname = Adieresis;
lastChange = "2015-11-29 22:57:20 +0000";
layers = (
{
layerId = "A20AAD8A-5619-416D-9D3E-77802FB4F06A";
name = "Bold Italic";
paths = (
{
closed = 1;
nodes = (
"208 0 LINE",
"212 20 LINE",
"185 31 OFFCURVE",
"163 41 OFFCURVE",
"138 46 CURVE",
"407 534 LINE",
"472 48 LINE",
"460 46 OFFCURVE",
"435 39 OFFCURVE",
"391 25 CURVE",
"387 0 LINE",
"728 0 LINE",
"732 22 LINE",
"707 32 OFFCURVE",
"683 40 OFFCURVE",
"661 46 CURVE",
"556 704 LINE",
"417 704 LINE",
"46 49 LINE",
"42 48 OFFCURVE",
"-7 35 OFFCURVE",
"-36 26 CURVE",
"-41 0 LINE"
);
},
{
closed = 1;
nodes = (
"507 176 LINE",
"518 235 LINE",
"193 235 LINE",
"181 176 LINE"
);
},
{
closed = 1;
nodes = (
"405 786 OFFCURVE",
"437 818 OFFCURVE",
"446 858 CURVE SMOOTH",
"454 898 OFFCURVE",
"434 931 OFFCURVE",
"390 931 CURVE SMOOTH",
"348 931 OFFCURVE",
"316 898 OFFCURVE",
"308 858 CURVE SMOOTH",
"299 818 OFFCURVE",
"319 786 OFFCURVE",
"363 786 CURVE SMOOTH"
);
},
{
closed = 1;
nodes = (
"648 786 OFFCURVE",
"680 818 OFFCURVE",
"689 858 CURVE SMOOTH",
"697 898 OFFCURVE",
"676 931 OFFCURVE",
"633 931 CURVE SMOOTH",
"590 931 OFFCURVE",
"557 898 OFFCURVE",
"550 858 CURVE SMOOTH",
"541 818 OFFCURVE",
"561 786 OFFCURVE",
"604 786 CURVE SMOOTH"
);
}
);
width = 780;
}
);
leftKerningGroup = A;
note = Adieresis;
rightKerningGroup = A;
unicode = 00C4;
},
{
glyphname = Adotbelow;
lastChange = "2015-11-29 22:57:20 +0000";
layers = (
{
layerId = "A20AAD8A-5619-416D-9D3E-77802FB4F06A";
name = "Bold Italic";
paths = (
{
closed = 1;
nodes = (
"208 0 LINE",
"212 20 LINE",
"185 31 OFFCURVE",
"163 41 OFFCURVE",
"138 46 CURVE",
"407 534 LINE",
"472 48 LINE",
"460 46 OFFCURVE",
"435 39 OFFCURVE",
"391 25 CURVE",
"387 0 LINE",
"728 0 LINE",
"732 22 LINE",
"707 32 OFFCURVE",
"683 40 OFFCURVE",
"661 46 CURVE",
"556 704 LINE",
"417 704 LINE",
"46 49 LINE",
"42 48 OFFCURVE",
"-7 35 OFFCURVE",
"-36 26 CURVE",
"-41 0 LINE"
);
},
{
closed = 1;
nodes = (
"347 -195 OFFCURVE",
"381 -163 OFFCURVE",
"388 -123 CURVE SMOOTH",
"397 -83 OFFCURVE",
"377 -50 OFFCURVE",
"334 -50 CURVE SMOOTH",
"291 -50 OFFCURVE",
"258 -83 OFFCURVE",
"249 -123 CURVE SMOOTH",
"242 -163 OFFCURVE",
"261 -195 OFFCURVE",
"304 -195 CURVE SMOOTH"
);
},
{
closed = 1;
nodes = (
"507 176 LINE",
"518 235 LINE",
"193 235 LINE",
"181 176 LINE"
);
}
);
width = 780;
}
);
leftKerningGroup = A;
note = Adotbelow;
rightKerningGroup = A;
unicode = 1EA0;
},
{
glyphname = Agrave;
lastChange = "2015-11-29 22:57:20 +0000";
layers = (
{
layerId = "A20AAD8A-5619-416D-9D3E-77802FB4F06A";
name = "Bold Italic";
paths = (
{
closed = 1;
nodes = (
"208 0 LINE",
"212 20 LINE",
"185 31 OFFCURVE",
"163 41 OFFCURVE",
"138 46 CURVE",
"407 534 LINE",
"472 48 LINE",
"460 46 OFFCURVE",
"435 39 OFFCURVE",
"391 25 CURVE",
"387 0 LINE",
"728 0 LINE",
"732 22 LINE",
"707 32 OFFCURVE",
"683 40 OFFCURVE",
"661 46 CURVE",
"556 704 LINE",
"417 704 LINE",
"46 49 LINE",
"42 48 OFFCURVE",
"-7 35 OFFCURVE",
"-36 26 CURVE",
"-41 0 LINE"
);
},
{
closed = 1;
nodes = (
"507 176 LINE",
"518 235 LINE",
"193 235 LINE",
"181 176 LINE"
);
},
{
closed = 1;
nodes = (
"639 830 LINE",
"546 969 LINE SMOOTH",
"542 975 OFFCURVE",
"520 1011 OFFCURVE",
"481 1011 CURVE SMOOTH",
"438 1011 OFFCURVE",
"416 982 OFFCURVE",
"412 960 CURVE",
"406 931 OFFCURVE",
"423 909 OFFCURVE",
"456 886 CURVE SMOOTH",
"601 786 LINE"
);
}
);
width = 780;
}
);
leftKerningGroup = A;
note = Agrave;
rightKerningGroup = A;
unicode = 00C0;
},
{
glyphname = Ahookabove;
lastChange = "2015-11-29 22:57:19 +0000";
layers = (
{
layerId = "A20AAD8A-5619-416D-9D3E-77802FB4F06A";
name = "Bold Italic";
paths = (
{
closed = 1;
nodes = (
"208 0 LINE",
"212 20 LINE",
"185 31 OFFCURVE",
"163 41 OFFCURVE",
"138 46 CURVE",
"407 534 LINE",
"472 48 LINE",
"460 46 OFFCURVE",
"435 39 OFFCURVE",
"391 25 CURVE",
"387 0 LINE",
"728 0 LINE",
"732 22 LINE",
"707 32 OFFCURVE",
"683 40 OFFCURVE",
"661 46 CURVE",
"556 704 LINE",
"417 704 LINE",
"46 49 LINE",
"42 48 OFFCURVE",
"-7 35 OFFCURVE",
"-36 26 CURVE",
"-41 0 LINE"
);
},
{
closed = 1;
nodes = (
"507 176 LINE",
"518 235 LINE",
"193 235 LINE",
"181 176 LINE"
);
},
{
closed = 1;
nodes = (
"554 786 LINE",
"578 859 LINE",
"631 864 OFFCURVE",
"680 883 OFFCURVE",
"695 951 CURVE SMOOTH",
"709 1025 OFFCURVE",
"649 1051 OFFCURVE",
"584 1051 CURVE SMOOTH",
"551 1051 OFFCURVE",
"516 1043 OFFCURVE",
"492 1032 CURVE",
"489 987 LINE",
"512 999 OFFCURVE",
"537 1003 OFFCURVE",
"555 1003 CURVE SMOOTH",
"596 1003 OFFCURVE",
"611 978 OFFCURVE",
"606 952 CURVE SMOOTH",
"598 910 OFFCURVE",
"562 900 OFFCURVE",
"542 900 CURVE SMOOTH",
"497 900 LINE",
"479 786 LINE"
);
}
);
width = 780;
}
);
leftKerningGroup = A;
note = Ahookabove;
rightKerningGroup = A;
unicode = 1EA2;
},
{
glyphname = Amacron;
lastChange = "2015-11-29 22:57:20 +0000";
layers = (
{
layerId = "A20AAD8A-5619-416D-9D3E-77802FB4F06A";
name = "Bold Italic";
paths = (
{
closed = 1;
nodes = (
"208 0 LINE",
"212 20 LINE",
"185 31 OFFCURVE",
"163 41 OFFCURVE",
"138 46 CURVE",
"407 534 LINE",
"472 48 LINE",
"460 46 OFFCURVE",
"435 39 OFFCURVE",
"391 25 CURVE",
"387 0 LINE",
"728 0 LINE",
"732 22 LINE",
"707 32 OFFCURVE",
"683 40 OFFCURVE",
"661 46 CURVE",
"556 704 LINE",
"417 704 LINE",
"46 49 LINE",
"42 48 OFFCURVE",
"-7 35 OFFCURVE",
"-36 26 CURVE",
"-41 0 LINE"
);
},
{
closed = 1;
nodes = (
"507 176 LINE",
"518 235 LINE",
"193 235 LINE",
"181 176 LINE"
);
},
{
closed = 1;
nodes = (
"713 786 LINE",
"724 843 LINE",
"315 843 LINE",
"303 786 LINE"
);
}
);
width = 780;
}
);
leftKerningGroup = A;
note = Amacron;
rightKerningGroup = A;
unicode = 0100;
},
{
glyphname = Aogonek;
lastChange = "2015-11-29 22:57:20 +0000";
layers = (
{
layerId = "A20AAD8A-5619-416D-9D3E-77802FB4F06A";
name = "Bold Italic";
paths = (
{
closed = 1;
nodes = (
"208 0 LINE",
"212 20 LINE",
"185 31 OFFCURVE",
"163 41 OFFCURVE",
"138 46 CURVE",
"407 534 LINE",
"472 48 LINE",
"460 46 OFFCURVE",
"435 39 OFFCURVE",
"391 25 CURVE",
"387 0 LINE",
"728 0 LINE",
"732 22 LINE",
"707 32 OFFCURVE",
"683 40 OFFCURVE",
"661 46 CURVE",
"556 704 LINE",
"417 704 LINE",
"46 49 LINE",
"42 48 OFFCURVE",
"-7 35 OFFCURVE",
"-36 26 CURVE",
"-41 0 LINE"
);
},
{
closed = 1;
nodes = (
"686 -218 OFFCURVE",
"739 -206 OFFCURVE",
"769 -186 CURVE",
"784 -109 LINE",
"753 -127 OFFCURVE",
"726 -134 OFFCURVE",
"707 -134 CURVE SMOOTH",
"671 -134 OFFCURVE",
"653 -110 OFFCURVE",
"659 -82 CURVE SMOOTH",
"665 -52 OFFCURVE",
"696 -17 OFFCURVE",
"718 0 CURVE",
"633 0 LINE",
"567 -17 OFFCURVE",
"520 -76 OFFCURVE",
"511 -122 CURVE SMOOTH",
"498 -184 OFFCURVE",
"546 -218 OFFCURVE",
"637 -218 CURVE SMOOTH"
);
},
{
closed = 1;
nodes = (
"507 176 LINE",
"518 235 LINE",
"193 235 LINE",
"181 176 LINE"
);
}
);
width = 780;
}
);
leftKerningGroup = A;
note = Aogonek;
rightKerningGroup = A;
unicode = 0104;
},
{
glyphname = Aring;
lastChange = "2015-11-29 22:57:18 +0000";
layers = (
{
layerId = "A20AAD8A-5619-416D-9D3E-77802FB4F06A";
name = "Bold Italic";
paths = (
{
closed = 1;
nodes = (
"208 0 LINE",
"212 20 LINE",
"185 31 OFFCURVE",
"163 41 OFFCURVE",
"138 46 CURVE",
"407 534 LINE",
"472 48 LINE",
"460 46 OFFCURVE",
"435 39 OFFCURVE",
"391 25 CURVE",
"387 0 LINE",
"728 0 LINE",
"732 22 LINE",
"707 32 OFFCURVE",
"683 40 OFFCURVE",
"661 46 CURVE",
"556 704 LINE",
"417 704 LINE",
"46 49 LINE",
"42 48 OFFCURVE",
"-7 35 OFFCURVE",
"-36 26 CURVE",
"-41 0 LINE"
);
},
{
closed = 1;
nodes = (
"507 176 LINE",
"518 235 LINE",
"193 235 LINE",
"181 176 LINE"
);
},
{
closed = 1;
nodes = (
"564 750 OFFCURVE",
"618 795 OFFCURVE",
"631 861 CURVE SMOOTH",
"645 927 OFFCURVE",
"609 972 OFFCURVE",
"540 972 CURVE SMOOTH",
"471 972 OFFCURVE",
"416 927 OFFCURVE",
"403 861 CURVE SMOOTH",
"389 795 OFFCURVE",
"426 750 OFFCURVE",
"495 750 CURVE SMOOTH"
);
},
{
closed = 1;
nodes = (
"474 804 OFFCURVE",
"454 827 OFFCURVE",
"460 861 CURVE SMOOTH",
"467 895 OFFCURVE",
"497 918 OFFCURVE",
"529 918 CURVE SMOOTH",
"560 918 OFFCURVE",
"580 895 OFFCURVE",
"574 861 CURVE SMOOTH",
"567 827 OFFCURVE",
"537 804 OFFCURVE",
"506 804 CURVE SMOOTH"
);
}
);
width = 780;
}
);
leftKerningGroup = A;
note = Aring;
rightKerningGroup = A;
unicode = 00C5;
},
{
glyphname = Aringacute;
lastChange = "2015-11-29 22:57:18 +0000";
layers = (
{
layerId = "A20AAD8A-5619-416D-9D3E-77802FB4F06A";
name = "Bold Italic";
paths = (
{
closed = 1;
nodes = (
"208 0 LINE",
"212 20 LINE",
"185 31 OFFCURVE",
"163 41 OFFCURVE",
"138 46 CURVE",
"407 534 LINE",
"472 48 LINE",
"460 46 OFFCURVE",
"435 39 OFFCURVE",
"391 25 CURVE",
"387 0 LINE",
"728 0 LINE",
"732 22 LINE",
"707 32 OFFCURVE",
"683 40 OFFCURVE",
"661 46 CURVE",
"556 704 LINE",
"417 704 LINE",
"46 49 LINE",
"42 48 OFFCURVE",
"-7 35 OFFCURVE",
"-36 26 CURVE",
"-41 0 LINE"
);
},
{
closed = 1;
nodes = (
"507 176 LINE",
"518 235 LINE",
"193 235 LINE",
"181 176 LINE"
);
},
{
closed = 1;
nodes = (
"564 750 OFFCURVE",
"618 795 OFFCURVE",
"631 861 CURVE SMOOTH",
"645 927 OFFCURVE",
"609 972 OFFCURVE",
"540 972 CURVE SMOOTH",
"471 972 OFFCURVE",
"416 927 OFFCURVE",
"403 861 CURVE SMOOTH",
"389 795 OFFCURVE",
"426 750 OFFCURVE",
"495 750 CURVE SMOOTH"
);
},
{
closed = 1;
nodes = (
"474 804 OFFCURVE",
"454 827 OFFCURVE",
"460 861 CURVE SMOOTH",
"467 895 OFFCURVE",
"497 918 OFFCURVE",
"529 918 CURVE SMOOTH",
"560 918 OFFCURVE",
"580 895 OFFCURVE",
"574 861 CURVE SMOOTH",
"567 827 OFFCURVE",
"537 804 OFFCURVE",
"506 804 CURVE SMOOTH"
);
},
{
closed = 1;
nodes = (
"634 1093 LINE SMOOTH",
"676 1116 OFFCURVE",
"700 1138 OFFCURVE",
"707 1167 CURVE",
"711 1189 OFFCURVE",
"700 1218 OFFCURVE",
"659 1218 CURVE SMOOTH",
"620 1218 OFFCURVE",
"584 1182 OFFCURVE",
"579 1176 CURVE",
"428 1037 LINE",
"449 993 LINE"
);
}
);
width = 780;
}
);
leftKerningGroup = A;
note = Aringacute;
rightKerningGroup = A;
unicode = 01FA;
},
{
glyphname = Atilde;
lastChange = "2015-11-29 22:57:19 +0000";
layers = (
{
layerId = "A20AAD8A-5619-416D-9D3E-77802FB4F06A";
name = "Bold Italic";
paths = (
{
closed = 1;
nodes = (
"208 0 LINE",
"212 20 LINE",
"185 31 OFFCURVE",
"163 41 OFFCURVE",
"138 46 CURVE",
"407 534 LINE",
"472 48 LINE",
"460 46 OFFCURVE",
"435 39 OFFCURVE",
"391 25 CURVE",
"387 0 LINE",
"728 0 LINE",
"732 22 LINE",
"707 32 OFFCURVE",
"683 40 OFFCURVE",
"661 46 CURVE",
"556 704 LINE",
"417 704 LINE",
"46 49 LINE",
"42 48 OFFCURVE",
"-7 35 OFFCURVE",
"-36 26 CURVE",
"-41 0 LINE"
);
},
{
closed = 1;
nodes = (
"507 176 LINE",
"518 235 LINE",
"193 235 LINE",
"181 176 LINE"
);
},
{
closed = 1;
nodes = (
"376 786 LINE",
"387 817 OFFCURVE",
"407 836 OFFCURVE",
"435 836 CURVE SMOOTH",
"467 836 OFFCURVE",
"521 786 OFFCURVE",
"582 786 CURVE SMOOTH",
"669 786 OFFCURVE",
"717 839 OFFCURVE",
"739 915 CURVE",
"651 915 LINE",
"630 867 OFFCURVE",
"608 864 OFFCURVE",
"587 864 CURVE SMOOTH",
"548 864 OFFCURVE",
"523 914 OFFCURVE",
"445 914 CURVE SMOOTH",
"369 914 OFFCURVE",
"315 869 OFFCURVE",
"287 786 CURVE"
);
}
);
width = 780;
}
);
leftKerningGroup = A;
note = Atilde;
rightKerningGroup = A;
unicode = 00C3;
},
{
glyphname = AE;
lastChange = "2015-11-29 22:57:20 +0000";
layers = (
{
layerId = "A20AAD8A-5619-416D-9D3E-77802FB4F06A";
name = "Bold Italic";
paths = (
{
closed = 1;
nodes = (
"218 0 LINE",
"221 20 LINE",
"196 31 OFFCURVE",
"167 41 OFFCURVE",
"143 46 CURVE",
"240 176 LINE",
"448 176 LINE",
"421 45 LINE",
"398 41 OFFCURVE",
"364 33 OFFCURVE",
"332 22 CURVE",
"328 0 LINE",
"916 0 LINE",
"976 196 LINE",
"936 196 LINE",
"912 174 OFFCURVE",
"863 99 OFFCURVE",
"851 59 CURVE",
"613 59 LINE",
"669 330 LINE",
"815 330 LINE",
"813 313 OFFCURVE",
"814 274 OFFCURVE",
"818 241 CURVE",
"847 241 LINE",
"895 477 LINE",
"866 477 LINE",
"847 446 OFFCURVE",
"833 407 OFFCURVE",
"826 389 CURVE",
"680 389 LINE",
"732 641 LINE",
"963 641 LINE",
"958 607 OFFCURVE",
"969 527 OFFCURVE",
"979 503 CURVE",
"1019 503 LINE",
"1060 700 LINE",
"470 700 LINE",
"466 678 LINE",
"482 671 OFFCURVE",
"499 666 OFFCURVE",
"514 662 CURVE",
"44 47 LINE",
"20 41 OFFCURVE",
"-5 33 OFFCURVE",
"-37 22 CURVE",
"-41 0 LINE"
);
},
{
closed = 1;
nodes = (
"526 558 LINE",
"460 235 LINE",
"284 235 LINE"
);
}
);
width = 1016;
}
);
leftKerningGroup = A;
note = AE;
unicode = 00C6;
},
{
glyphname = AEacute;
lastChange = "2015-11-29 22:57:18 +0000";
layers = (
{
layerId = "A20AAD8A-5619-416D-9D3E-77802FB4F06A";
name = "Bold Italic";
paths = (
{
closed = 1;
nodes = (
"218 0 LINE",
"221 20 LINE",
"196 31 OFFCURVE",
"167 41 OFFCURVE",
"143 46 CURVE",
"240 176 LINE",
"448 176 LINE",
"421 45 LINE",
"398 41 OFFCURVE",
"364 33 OFFCURVE",
"332 22 CURVE",
"328 0 LINE",
"916 0 LINE",
"976 196 LINE",
"936 196 LINE",
"912 174 OFFCURVE",
"863 99 OFFCURVE",
"851 59 CURVE",
"613 59 LINE",
"669 330 LINE",
"815 330 LINE",
"813 313 OFFCURVE",
"814 274 OFFCURVE",
"818 241 CURVE",
"847 241 LINE",
"895 477 LINE",
"866 477 LINE",
"847 446 OFFCURVE",
"833 407 OFFCURVE",
"826 389 CURVE",
"680 389 LINE",
"732 641 LINE",
"963 641 LINE",
"958 607 OFFCURVE",
"969 527 OFFCURVE",
"979 503 CURVE",
"1019 503 LINE",
"1060 700 LINE",
"470 700 LINE",
"466 678 LINE",
"482 671 OFFCURVE",
"499 666 OFFCURVE",
"514 662 CURVE",
"44 47 LINE",
"20 41 OFFCURVE",
"-5 33 OFFCURVE",
"-37 22 CURVE",
"-41 0 LINE"
);
},
{
closed = 1;
nodes = (
"526 558 LINE",
"460 235 LINE",
"284 235 LINE"
);
},
{
closed = 1;
nodes = (
"885 886 LINE SMOOTH",
"926 909 OFFCURVE",
"951 931 OFFCURVE",
"958 960 CURVE",
"962 982 OFFCURVE",
"951 1011 OFFCURVE",
"910 1011 CURVE SMOOTH",
"870 1011 OFFCURVE",
"835 975 OFFCURVE",
"829 969 CURVE",
"678 830 LINE",
"700 786 LINE"
);
}
);
width = 1016;
}
);
leftKerningGroup = A;
note = AEacute;
unicode = 01FC;
},
{
glyphname = B;
lastChange = "2015-11-29 22:57:19 +0000";
layers = (
{
layerId = "A20AAD8A-5619-416D-9D3E-77802FB4F06A";
name = "Bold Italic";
paths = (
{
closed = 1;
nodes = (
"336 0 LINE SMOOTH",
"517 0 OFFCURVE",
"594 70 OFFCURVE",
"620 197 CURVE SMOOTH",
"633 260 OFFCURVE",
"607 338 OFFCURVE",
"507 367 CURVE",
"508 374 LINE",
"595 402 OFFCURVE",
"647 465 OFFCURVE",
"662 538 CURVE SMOOTH",
"683 642 OFFCURVE",
"631 700 OFFCURVE",
"448 700 CURVE SMOOTH",
"109 700 LINE",
"104 677 LINE",
"134 666 OFFCURVE",
"156 658 OFFCURVE",
"177 654 CURVE",
"53 49 LINE",
"43 47 OFFCURVE",
"26 42 OFFCURVE",
"-29 21 CURVE",
"-33 0 LINE"
);
},
{
closed = 1;
nodes = (
"305 339 LINE",
"364 339 LINE SMOOTH",
"424 339 OFFCURVE",
"448 294 OFFCURVE",
"430 204 CURVE SMOOTH",
"411 112 OFFCURVE",
"375 59 OFFCURVE",
"319 59 CURVE SMOOTH",
"247 59 LINE"
);
},
{
closed = 1;
nodes = (
"366 641 LINE",
"410 641 LINE SMOOTH",
"466 641 OFFCURVE",
"483 605 OFFCURVE",
"466 526 CURVE SMOOTH",
"451 448 OFFCURVE",
"412 397 OFFCURVE",
"356 397 CURVE SMOOTH",
"316 397 LINE"
);
}
);
width = 642;
}
);
note = B;
unicode = 0042;
},
{
glyphname = C;
lastChange = "2015-11-29 22:57:20 +0000";
layers = (
{
layerId = "A20AAD8A-5619-416D-9D3E-77802FB4F06A";
name = "Bold Italic";
paths = (
{
closed = 1;
nodes = (
"434 -10 OFFCURVE",
"527 18 OFFCURVE",
"592 67 CURVE",
"576 120 LINE",
"501 70 OFFCURVE",
"428 52 OFFCURVE",
"374 52 CURVE SMOOTH",
"262 52 OFFCURVE",
"214 159 OFFCURVE",
"253 350 CURVE SMOOTH",
"292 540 OFFCURVE",
"397 648 OFFCURVE",
"513 648 CURVE SMOOTH",
"553 648 OFFCURVE",
"588 641 OFFCURVE",
"621 610 CURVE",
"615 557 OFFCURVE",
"614 504 OFFCURVE",
"618 463 CURVE",
"662 463 LINE",
"711 625 LINE",
"669 678 OFFCURVE",
"604 710 OFFCURVE",
"478 710 CURVE SMOOTH",
"249 710 OFFCURVE",
"102 572 OFFCURVE",
"57 350 CURVE SMOOTH",
"12 128 OFFCURVE",
"101 -10 OFFCURVE",
"337 -10 CURVE SMOOTH"
);
}
);
width = 666;
}
);
leftKerningGroup = C;
note = C;
unicode = 0043;
},
{
glyphname = Cacute;
lastChange = "2015-11-29 22:57:18 +0000";
layers = (
{
layerId = "A20AAD8A-5619-416D-9D3E-77802FB4F06A";
name = "Bold Italic";
paths = (
{
closed = 1;
nodes = (
"434 -10 OFFCURVE",
"527 18 OFFCURVE",
"592 67 CURVE",
"576 120 LINE",
"501 70 OFFCURVE",
"428 52 OFFCURVE",
"374 52 CURVE SMOOTH",
"262 52 OFFCURVE",
"214 159 OFFCURVE",
"253 350 CURVE SMOOTH",
"292 540 OFFCURVE",
"397 648 OFFCURVE",
"513 648 CURVE SMOOTH",
"553 648 OFFCURVE",
"588 641 OFFCURVE",
"621 610 CURVE",
"615 557 OFFCURVE",
"614 504 OFFCURVE",
"618 463 CURVE",
"662 463 LINE",
"711 625 LINE",
"669 678 OFFCURVE",
"604 710 OFFCURVE",
"478 710 CURVE SMOOTH",
"249 710 OFFCURVE",
"102 572 OFFCURVE",
"57 350 CURVE SMOOTH",
"12 128 OFFCURVE",
"101 -10 OFFCURVE",
"337 -10 CURVE SMOOTH"
);
},
{
closed = 1;
nodes = (
"644 886 LINE SMOOTH",
"685 909 OFFCURVE",
"710 931 OFFCURVE",
"717 960 CURVE",
"721 982 OFFCURVE",
"710 1011 OFFCURVE",
"669 1011 CURVE SMOOTH",
"629 1011 OFFCURVE",
"594 975 OFFCURVE",
"588 969 CURVE",
"437 830 LINE",
"459 786 LINE"
);
}
);
width = 666;
}
);
leftKerningGroup = C;
note = Cacute;
unicode = 0106;
},
{
glyphname = Ccaron;
lastChange = "2015-11-29 22:57:20 +0000";
layers = (
{
layerId = "A20AAD8A-5619-416D-9D3E-77802FB4F06A";
name = "Bold Italic";
paths = (
{
closed = 1;
nodes = (
"434 -10 OFFCURVE",
"527 18 OFFCURVE",
"592 67 CURVE",
"576 120 LINE",
"501 70 OFFCURVE",
"428 52 OFFCURVE",
"374 52 CURVE SMOOTH",
"262 52 OFFCURVE",
"214 159 OFFCURVE",
"253 350 CURVE SMOOTH",
"292 540 OFFCURVE",
"397 648 OFFCURVE",
"513 648 CURVE SMOOTH",
"553 648 OFFCURVE",
"588 641 OFFCURVE",
"621 610 CURVE",
"615 557 OFFCURVE",
"614 504 OFFCURVE",
"618 463 CURVE",
"662 463 LINE",
"711 625 LINE",
"669 678 OFFCURVE",
"604 710 OFFCURVE",
"478 710 CURVE SMOOTH",
"249 710 OFFCURVE",
"102 572 OFFCURVE",
"57 350 CURVE SMOOTH",
"12 128 OFFCURVE",
"101 -10 OFFCURVE",
"337 -10 CURVE SMOOTH"
);
},
{
closed = 1;
nodes = (
"480 786 OFFCURVE",
"567 786 OFFCURVE",
"567 786 CURVE",
"594 819 OFFCURVE",
"712 913 OFFCURVE",
"763 942 CURVE",
"698 997 LINE",
"649 962 OFFCURVE",
"567 892 OFFCURVE",
"538 855 CURVE",
"538 855 OFFCURVE",
"535 855 OFFCURVE",
"535 855 CURVE",
"522 892 OFFCURVE",
"469 962 OFFCURVE",
"434 997 CURVE",
"348 942 LINE",
"388 913 OFFCURVE",
"466 819 OFFCURVE",
"480 786 CURVE"
);
}
);
width = 666;
}
);
leftKerningGroup = C;
note = Ccaron;
unicode = 010C;
},
{
glyphname = Ccedilla;
lastChange = "2015-11-29 22:57:20 +0000";
layers = (
{
layerId = "A20AAD8A-5619-416D-9D3E-77802FB4F06A";
name = "Bold Italic";
paths = (
{
closed = 1;
nodes = (
"434 -10 OFFCURVE",
"527 18 OFFCURVE",
"592 67 CURVE",
"576 120 LINE",
"501 70 OFFCURVE",
"428 52 OFFCURVE",
"374 52 CURVE SMOOTH",
"262 52 OFFCURVE",
"214 159 OFFCURVE",
"253 350 CURVE SMOOTH",
"292 540 OFFCURVE",
"397 648 OFFCURVE",
"513 648 CURVE SMOOTH",
"553 648 OFFCURVE",
"588 641 OFFCURVE",
"621 610 CURVE",
"615 557 OFFCURVE",
"614 504 OFFCURVE",
"618 463 CURVE",
"662 463 LINE",
"711 625 LINE",
"669 678 OFFCURVE",
"604 710 OFFCURVE",
"478 710 CURVE SMOOTH",
"249 710 OFFCURVE",
"102 572 OFFCURVE",
"57 350 CURVE SMOOTH",
"12 128 OFFCURVE",
"101 -10 OFFCURVE",
"337 -10 CURVE SMOOTH"
);
},
{
closed = 1;
nodes = (
"319 -281 OFFCURVE",
"399 -240 OFFCURVE",
"415 -161 CURVE SMOOTH",
"423 -121 OFFCURVE",
"407 -73 OFFCURVE",
"331 -65 CURVE",
"326 -65 OFFCURVE",
"316 -64 OFFCURVE",
"311 -64 CURVE",
"372 25 LINE",
"295 25 LINE",
"224 -78 LINE",
"244 -115 LINE",
"251 -114 OFFCURVE",
"259 -114 OFFCURVE",
"266 -114 CURVE SMOOTH",
"297 -114 OFFCURVE",
"334 -123 OFFCURVE",
"326 -161 CURVE SMOOTH",
"316 -205 OFFCURVE",
"275 -218 OFFCURVE",
"233 -218 CURVE SMOOTH",
"201 -218 OFFCURVE",
"170 -209 OFFCURVE",
"152 -195 CURVE",
"115 -241 LINE",
"143 -266 OFFCURVE",
"193 -281 OFFCURVE",
"236 -281 CURVE SMOOTH"
);
}
);
width = 666;
}
);
leftKerningGroup = C;
note = Ccedilla;
unicode = 00C7;
},
{
glyphname = Ccircumflex;
lastChange = "2015-11-29 22:57:19 +0000";
layers = (
{
layerId = "A20AAD8A-5619-416D-9D3E-77802FB4F06A";
name = "Bold Italic";
paths = (
{
closed = 1;
nodes = (
"434 -10 OFFCURVE",
"527 18 OFFCURVE",
"592 67 CURVE",
"576 120 LINE",
"501 70 OFFCURVE",
"428 52 OFFCURVE",
"374 52 CURVE SMOOTH",
"262 52 OFFCURVE",
"214 159 OFFCURVE",
"253 350 CURVE SMOOTH",
"292 540 OFFCURVE",
"397 648 OFFCURVE",
"513 648 CURVE SMOOTH",
"553 648 OFFCURVE",
"588 641 OFFCURVE",
"621 610 CURVE",
"615 557 OFFCURVE",
"614 504 OFFCURVE",
"618 463 CURVE",
"662 463 LINE",
"711 625 LINE",
"669 678 OFFCURVE",
"604 710 OFFCURVE",
"478 710 CURVE SMOOTH",
"249 710 OFFCURVE",
"102 572 OFFCURVE",
"57 350 CURVE SMOOTH",
"12 128 OFFCURVE",
"101 -10 OFFCURVE",
"337 -10 CURVE SMOOTH"
);
},
{
closed = 1;
nodes = (
"428 821 OFFCURVE",
"509 891 OFFCURVE",
"538 928 CURVE",
"538 928 OFFCURVE",
"541 928 OFFCURVE",
"541 928 CURVE",
"555 891 OFFCURVE",
"607 821 OFFCURVE",
"643 786 CURVE",
"729 841 LINE",
"690 870 OFFCURVE",
"610 964 OFFCURVE",
"597 997 CURVE",
"597 997 OFFCURVE",
"509 997 OFFCURVE",
"509 997 CURVE",
"483 964 OFFCURVE",
"365 870 OFFCURVE",
"315 841 CURVE",
"380 786 LINE"
);
}
);
width = 666;
}
);
leftKerningGroup = C;
note = Ccircumflex;
unicode = 0108;
},
{
glyphname = Cdotaccent;
lastChange = "2015-11-29 22:57:20 +0000";
layers = (
{
layerId = "A20AAD8A-5619-416D-9D3E-77802FB4F06A";
name = "Bold Italic";
paths = (
{
closed = 1;
nodes = (
"434 -10 OFFCURVE",
"527 18 OFFCURVE",
"592 67 CURVE",
"576 120 LINE",
"501 70 OFFCURVE",
"428 52 OFFCURVE",
"374 52 CURVE SMOOTH",
"262 52 OFFCURVE",
"214 159 OFFCURVE",
"253 350 CURVE SMOOTH",
"292 540 OFFCURVE",
"397 648 OFFCURVE",
"513 648 CURVE SMOOTH",
"553 648 OFFCURVE",
"588 641 OFFCURVE",
"621 610 CURVE",
"615 557 OFFCURVE",
"614 504 OFFCURVE",
"618 463 CURVE",
"662 463 LINE",
"711 625 LINE",
"669 678 OFFCURVE",
"604 710 OFFCURVE",
"478 710 CURVE SMOOTH",
"249 710 OFFCURVE",
"102 572 OFFCURVE",
"57 350 CURVE SMOOTH",
"12 128 OFFCURVE",
"101 -10 OFFCURVE",
"337 -10 CURVE SMOOTH"
);
},
{
closed = 1;
nodes = (
"574 786 OFFCURVE",
"606 818 OFFCURVE",
"615 858 CURVE SMOOTH",
"623 898 OFFCURVE",
"603 931 OFFCURVE",
"559 931 CURVE SMOOTH",
"516 931 OFFCURVE",
"484 898 OFFCURVE",
"476 858 CURVE SMOOTH",
"467 818 OFFCURVE",
"487 786 OFFCURVE",
"531 786 CURVE SMOOTH"
);
}
);
width = 666;
}
);
leftKerningGroup = C;
note = Cdotaccent;
unicode = 010A;
},
{
glyphname = D;
lastChange = "2015-11-29 22:57:20 +0000";
layers = (
{
layerId = "A20AAD8A-5619-416D-9D3E-77802FB4F06A";
name = "Bold Italic";
paths = (
{
closed = 1;
nodes = (
"313 0 LINE SMOOTH",
"545 0 OFFCURVE",
"663 127 OFFCURVE",
"709 350 CURVE SMOOTH",
"754 573 OFFCURVE",
"688 700 OFFCURVE",
"456 700 CURVE SMOOTH",
"119 700 LINE",
"115 678 LINE",
"141 669 OFFCURVE",
"164 660 OFFCURVE",
"185 655 CURVE",
"61 48 LINE",
"50 46 OFFCURVE",
"14 34 OFFCURVE",
"-19 24 CURVE",
"-23 0 LINE"
);
},
{
closed = 1;
nodes = (
"371 641 LINE",
"443 641 LINE SMOOTH",
"540 641 OFFCURVE",
"549 524 OFFCURVE",
"513 350 CURVE SMOOTH",
"478 176 OFFCURVE",
"422 59 OFFCURVE",
"322 59 CURVE SMOOTH",
"252 59 LINE"
);
}
);
width = 717;
}
);
note = D;
rightKerningGroup = D;
unicode = 0044;
},
{
glyphname = Eth;
lastChange = "2015-11-29 22:57:21 +0000";
layers = (
{
layerId = "A20AAD8A-5619-416D-9D3E-77802FB4F06A";
name = "Bold Italic";
paths = (
{
closed = 1;
nodes = (
"313 0 LINE SMOOTH",
"545 0 OFFCURVE",
"663 127 OFFCURVE",
"709 350 CURVE SMOOTH",
"754 573 OFFCURVE",
"688 700 OFFCURVE",
"456 700 CURVE SMOOTH",
"119 700 LINE",
"115 678 LINE",
"141 669 OFFCURVE",
"164 660 OFFCURVE",
"185 655 CURVE",
"61 48 LINE",
"50 46 OFFCURVE",
"14 34 OFFCURVE",
"-19 24 CURVE",
"-23 0 LINE"
);
},
{
closed = 1;
nodes = (
"426 305 LINE",
"438 363 LINE",
"69 363 LINE",
"56 305 LINE"
);
},
{
closed = 1;
nodes = (
"371 641 LINE",
"443 641 LINE SMOOTH",
"540 641 OFFCURVE",
"549 524 OFFCURVE",
"513 350 CURVE SMOOTH",
"478 176 OFFCURVE",
"422 59 OFFCURVE",
"322 59 CURVE SMOOTH",
"252 59 LINE"
);
}
);
width = 717;
}
);
note = Eth;
rightKerningGroup = D;
unicode = 00D0;
},
{
glyphname = Dcaron;
lastChange = "2015-11-29 22:57:20 +0000";
layers = (
{
layerId = "A20AAD8A-5619-416D-9D3E-77802FB4F06A";
name = "Bold Italic";
paths = (
{
closed = 1;
nodes = (
"313 0 LINE SMOOTH",
"545 0 OFFCURVE",
"663 127 OFFCURVE",
"709 350 CURVE SMOOTH",
"754 573 OFFCURVE",
"688 700 OFFCURVE",
"456 700 CURVE SMOOTH",
"119 700 LINE",
"115 678 LINE",
"141 669 OFFCURVE",
"164 660 OFFCURVE",
"185 655 CURVE",
"61 48 LINE",
"50 46 OFFCURVE",
"14 34 OFFCURVE",
"-19 24 CURVE",
"-23 0 LINE"
);
},
{
closed = 1;
nodes = (
"371 641 LINE",
"443 641 LINE SMOOTH",
"540 641 OFFCURVE",
"549 524 OFFCURVE",
"513 350 CURVE SMOOTH",
"478 176 OFFCURVE",
"422 59 OFFCURVE",
"322 59 CURVE SMOOTH",
"252 59 LINE"
);
},
{
closed = 1;
nodes = (
"411 786 OFFCURVE",
"498 786 OFFCURVE",
"498 786 CURVE",
"525 819 OFFCURVE",
"643 913 OFFCURVE",
"694 942 CURVE",
"628 997 LINE",
"580 962 OFFCURVE",
"498 892 OFFCURVE",
"469 855 CURVE",
"469 855 OFFCURVE",
"466 855 OFFCURVE",
"466 855 CURVE",
"453 892 OFFCURVE",
"400 962 OFFCURVE",
"364 997 CURVE",
"279 942 LINE",
"318 913 OFFCURVE",
"397 819 OFFCURVE",
"411 786 CURVE"
);
}
);
width = 717;
}
);
note = Dcaron;
rightKerningGroup = D;
unicode = 010E;
},
{
glyphname = Dcroat;
lastChange = "2015-11-29 22:57:18 +0000";
layers = (
{
layerId = "A20AAD8A-5619-416D-9D3E-77802FB4F06A";
name = "Bold Italic";
paths = (
{
closed = 1;
nodes = (
"313 0 LINE SMOOTH",
"545 0 OFFCURVE",
"663 127 OFFCURVE",
"709 350 CURVE SMOOTH",
"754 573 OFFCURVE",
"688 700 OFFCURVE",
"456 700 CURVE SMOOTH",
"119 700 LINE",
"115 678 LINE",
"141 669 OFFCURVE",
"164 660 OFFCURVE",
"185 655 CURVE",
"61 48 LINE",
"50 46 OFFCURVE",
"14 34 OFFCURVE",
"-19 24 CURVE",
"-23 0 LINE"
);
},
{
closed = 1;
nodes = (
"426 305 LINE",
"438 363 LINE",
"69 363 LINE",
"56 305 LINE"
);
},
{
closed = 1;
nodes = (
"371 641 LINE",
"443 641 LINE SMOOTH",
"540 641 OFFCURVE",
"549 524 OFFCURVE",
"513 350 CURVE SMOOTH",
"478 176 OFFCURVE",
"422 59 OFFCURVE",
"322 59 CURVE SMOOTH",
"252 59 LINE"
);
}
);
width = 717;
}
);
note = Dcroat;
rightKerningGroup = D;
unicode = 0110;
},
{
glyphname = Ddotbelow;
lastChange = "2015-11-29 22:57:20 +0000";
layers = (
{
layerId = "A20AAD8A-5619-416D-9D3E-77802FB4F06A";
name = "Bold Italic";
paths = (
{
closed = 1;
nodes = (
"313 0 LINE SMOOTH",
"545 0 OFFCURVE",
"663 127 OFFCURVE",
"709 350 CURVE SMOOTH",
"754 573 OFFCURVE",
"688 700 OFFCURVE",
"456 700 CURVE SMOOTH",
"119 700 LINE",
"115 678 LINE",
"141 669 OFFCURVE",
"164 660 OFFCURVE",
"185 655 CURVE",
"61 48 LINE",
"50 46 OFFCURVE",
"14 34 OFFCURVE",
"-19 24 CURVE",
"-23 0 LINE"
);
},
{
closed = 1;
nodes = (
"316 -195 OFFCURVE",
"349 -163 OFFCURVE",
"357 -123 CURVE SMOOTH",
"365 -83 OFFCURVE",
"345 -50 OFFCURVE",
"302 -50 CURVE SMOOTH",
"259 -50 OFFCURVE",
"226 -83 OFFCURVE",
"218 -123 CURVE SMOOTH",
"210 -163 OFFCURVE",
"229 -195 OFFCURVE",
"272 -195 CURVE SMOOTH"
);
},
{
closed = 1;
nodes = (
"371 641 LINE",
"443 641 LINE SMOOTH",
"540 641 OFFCURVE",
"549 524 OFFCURVE",
"513 350 CURVE SMOOTH",
"478 176 OFFCURVE",
"422 59 OFFCURVE",
"322 59 CURVE SMOOTH",
"252 59 LINE"
);
}
);
width = 717;
}
);
note = Ddotbelow;
rightKerningGroup = D;
unicode = 1E0C;
},
{
glyphname = Dlinebelow;
lastChange = "2015-11-29 22:57:19 +0000";
layers = (
{
layerId = "A20AAD8A-5619-416D-9D3E-77802FB4F06A";
name = "Bold Italic";
paths = (
{
closed = 1;
nodes = (
"313 0 LINE SMOOTH",
"545 0 OFFCURVE",
"663 127 OFFCURVE",
"709 350 CURVE SMOOTH",
"754 573 OFFCURVE",
"688 700 OFFCURVE",
"456 700 CURVE SMOOTH",
"119 700 LINE",
"115 678 LINE",
"141 669 OFFCURVE",
"164 660 OFFCURVE",
"185 655 CURVE",
"61 48 LINE",
"50 46 OFFCURVE",
"14 34 OFFCURVE",
"-19 24 CURVE",
"-23 0 LINE"
);
},
{
closed = 1;
nodes = (
"494 -112 LINE",
"506 -55 LINE",
"96 -55 LINE",
"84 -112 LINE"
);
},
{
closed = 1;
nodes = (
"371 641 LINE",
"443 641 LINE SMOOTH",
"540 641 OFFCURVE",
"549 524 OFFCURVE",
"513 350 CURVE SMOOTH",
"478 176 OFFCURVE",
"422 59 OFFCURVE",
"322 59 CURVE SMOOTH",
"252 59 LINE"
);
}
);
width = 717;
}
);
note = Dlinebelow;
rightKerningGroup = D;
unicode = 1E0E;
},
{
glyphname = E;
lastChange = "2015-11-29 22:57:20 +0000";
layers = (
{
layerId = "A20AAD8A-5619-416D-9D3E-77802FB4F06A";
name = "Bold Italic";
paths = (
{
closed = 1;
nodes = (
"565 0 LINE",
"625 196 LINE",
"584 196 LINE",
"560 174 OFFCURVE",
"511 99 OFFCURVE",
"500 59 CURVE",
"265 59 LINE",
"384 641 LINE",
"611 641 LINE",
"606 607 OFFCURVE",
"618 527 OFFCURVE",
"628 503 CURVE",
"668 503 LINE",
"708 700 LINE",
"119 700 LINE",
"115 678 LINE",
"142 667 OFFCURVE",
"173 659 OFFCURVE",
"195 655 CURVE",
"70 45 LINE",
"47 41 OFFCURVE",
"13 33 OFFCURVE",
"-20 22 CURVE",
"-23 0 LINE"
);
},
{
closed = 1;
nodes = (
"496 243 LINE",
"544 479 LINE",
"514 479 LINE",
"497 448 OFFCURVE",
"482 409 OFFCURVE",
"476 391 CURVE",
"262 391 LINE",
"249 332 LINE",
"463 332 LINE",
"461 315 OFFCURVE",
"462 276 OFFCURVE",
"466 243 CURVE"
);
}
);
width = 664;
}
);
note = E;
unicode = 0045;
},
{
glyphname = Eacute;
lastChange = "2015-11-29 22:57:19 +0000";
layers = (
{
layerId = "A20AAD8A-5619-416D-9D3E-77802FB4F06A";
name = "Bold Italic";
paths = (
{
closed = 1;
nodes = (
"565 0 LINE",
"625 196 LINE",
"584 196 LINE",
"560 174 OFFCURVE",
"511 99 OFFCURVE",
"500 59 CURVE",
"265 59 LINE",
"384 641 LINE",
"611 641 LINE",
"606 607 OFFCURVE",
"618 527 OFFCURVE",
"628 503 CURVE",
"668 503 LINE",
"708 700 LINE",
"119 700 LINE",
"115 678 LINE",
"142 667 OFFCURVE",
"173 659 OFFCURVE",
"195 655 CURVE",
"70 45 LINE",
"47 41 OFFCURVE",
"13 33 OFFCURVE",
"-20 22 CURVE",
"-23 0 LINE"
);
},
{
closed = 1;
nodes = (
"496 243 LINE",
"544 479 LINE",
"514 479 LINE",
"497 448 OFFCURVE",
"482 409 OFFCURVE",
"476 391 CURVE",
"262 391 LINE",
"249 332 LINE",
"463 332 LINE",
"461 315 OFFCURVE",
"462 276 OFFCURVE",
"466 243 CURVE"
);
},
{
closed = 1;
nodes = (
"590 886 LINE SMOOTH",
"631 909 OFFCURVE",
"656 931 OFFCURVE",
"663 960 CURVE",
"667 982 OFFCURVE",
"656 1011 OFFCURVE",
"615 1011 CURVE SMOOTH",
"576 1011 OFFCURVE",
"540 975 OFFCURVE",
"534 969 CURVE",
"384 830 LINE",
"405 786 LINE"
);
}
);
width = 664;
}
);
note = Eacute;
unicode = 00C9;
},
{
glyphname = Ebreve;
lastChange = "2015-11-29 22:57:18 +0000";
layers = (
{
layerId = "A20AAD8A-5619-416D-9D3E-77802FB4F06A";
name = "Bold Italic";
paths = (
{
closed = 1;
nodes = (
"565 0 LINE",
"625 196 LINE",
"584 196 LINE",
"560 174 OFFCURVE",
"511 99 OFFCURVE",
"500 59 CURVE",
"265 59 LINE",
"384 641 LINE",
"611 641 LINE",
"606 607 OFFCURVE",
"618 527 OFFCURVE",
"628 503 CURVE",
"668 503 LINE",
"708 700 LINE",
"119 700 LINE",
"115 678 LINE",
"142 667 OFFCURVE",
"173 659 OFFCURVE",
"195 655 CURVE",
"70 45 LINE",
"47 41 OFFCURVE",
"13 33 OFFCURVE",
"-20 22 CURVE",
"-23 0 LINE"
);
},
{
closed = 1;
nodes = (
"496 243 LINE",
"544 479 LINE",
"514 479 LINE",
"497 448 OFFCURVE",
"482 409 OFFCURVE",
"476 391 CURVE",
"262 391 LINE",
"249 332 LINE",
"463 332 LINE",
"461 315 OFFCURVE",
"462 276 OFFCURVE",
"466 243 CURVE"
);
},
{
closed = 1;
nodes = (
"599 786 OFFCURVE",
"677 831 OFFCURVE",
"715 927 CURVE",
"613 927 LINE",
"592 856 OFFCURVE",
"548 847 OFFCURVE",
"508 847 CURVE SMOOTH",
"469 847 OFFCURVE",
"429 856 OFFCURVE",
"436 927 CURVE",
"336 927 LINE",
"333 831 OFFCURVE",
"393 786 OFFCURVE",
"496 786 CURVE SMOOTH"
);
}
);
width = 664;
}
);
note = Ebreve;
unicode = 0114;
},
{
glyphname = Ecaron;
lastChange = "2015-11-29 22:57:21 +0000";
layers = (
{
layerId = "A20AAD8A-5619-416D-9D3E-77802FB4F06A";
name = "Bold Italic";
paths = (
{
closed = 1;
nodes = (
"565 0 LINE",
"625 196 LINE",
"584 196 LINE",
"560 174 OFFCURVE",
"511 99 OFFCURVE",
"500 59 CURVE",
"265 59 LINE",
"384 641 LINE",
"611 641 LINE",
"606 607 OFFCURVE",
"618 527 OFFCURVE",
"628 503 CURVE",
"668 503 LINE",
"708 700 LINE",
"119 700 LINE",
"115 678 LINE",
"142 667 OFFCURVE",
"173 659 OFFCURVE",
"195 655 CURVE",
"70 45 LINE",
"47 41 OFFCURVE",
"13 33 OFFCURVE",
"-20 22 CURVE",
"-23 0 LINE"
);
},
{
closed = 1;
nodes = (
"496 243 LINE",
"544 479 LINE",
"514 479 LINE",
"497 448 OFFCURVE",
"482 409 OFFCURVE",
"476 391 CURVE",
"262 391 LINE",
"249 332 LINE",
"463 332 LINE",
"461 315 OFFCURVE",
"462 276 OFFCURVE",
"466 243 CURVE"
);
},
{
closed = 1;
nodes = (
"448 786 OFFCURVE",
"535 786 OFFCURVE",
"535 786 CURVE",
"562 819 OFFCURVE",
"680 913 OFFCURVE",
"731 942 CURVE",
"666 997 LINE",
"617 962 OFFCURVE",
"535 892 OFFCURVE",
"507 855 CURVE",
"507 855 OFFCURVE",
"504 855 OFFCURVE",
"504 855 CURVE",
"490 892 OFFCURVE",
"437 962 OFFCURVE",
"402 997 CURVE",
"316 942 LINE",
"356 913 OFFCURVE",
"435 819 OFFCURVE",
"448 786 CURVE"
);
}
);
width = 664;
}
);
note = Ecaron;
unicode = 011A;
},
{
glyphname = Ecircumflex;
lastChange = "2015-11-29 22:57:20 +0000";
layers = (
{
layerId = "A20AAD8A-5619-416D-9D3E-77802FB4F06A";
name = "Bold Italic";
paths = (
{
closed = 1;
nodes = (
"565 0 LINE",
"625 196 LINE",
"584 196 LINE",
"560 174 OFFCURVE",
"511 99 OFFCURVE",
"500 59 CURVE",
"265 59 LINE",
"384 641 LINE",
"611 641 LINE",
"606 607 OFFCURVE",
"618 527 OFFCURVE",
"628 503 CURVE",
"668 503 LINE",
"708 700 LINE",
"119 700 LINE",
"115 678 LINE",
"142 667 OFFCURVE",
"173 659 OFFCURVE",
"195 655 CURVE",
"70 45 LINE",
"47 41 OFFCURVE",
"13 33 OFFCURVE",
"-20 22 CURVE",
"-23 0 LINE"
);
},
{
closed = 1;
nodes = (
"496 243 LINE",
"544 479 LINE",
"514 479 LINE",
"497 448 OFFCURVE",
"482 409 OFFCURVE",
"476 391 CURVE",
"262 391 LINE",
"249 332 LINE",
"463 332 LINE",
"461 315 OFFCURVE",
"462 276 OFFCURVE",
"466 243 CURVE"
);
},
{
closed = 1;
nodes = (
"402 821 OFFCURVE",
"484 891 OFFCURVE",
"512 928 CURVE",
"512 928 OFFCURVE",
"515 928 OFFCURVE",
"515 928 CURVE",
"529 891 OFFCURVE",
"581 821 OFFCURVE",
"617 786 CURVE",
"703 841 LINE",
"664 870 OFFCURVE",
"584 964 OFFCURVE",
"571 997 CURVE",
"571 997 OFFCURVE",
"484 997 OFFCURVE",
"484 997 CURVE",
"457 964 OFFCURVE",
"340 870 OFFCURVE",
"289 841 CURVE",
"354 786 LINE"
);
}
);
width = 664;
}
);
note = Ecircumflex;
unicode = 00CA;
},
{
glyphname = Ecircumflexacute;
lastChange = "2015-11-29 22:57:21 +0000";
layers = (
{
layerId = "A20AAD8A-5619-416D-9D3E-77802FB4F06A";
name = "Bold Italic";
paths = (
{
closed = 1;
nodes = (
"565 0 LINE",
"625 196 LINE",
"584 196 LINE",
"560 174 OFFCURVE",
"511 99 OFFCURVE",
"500 59 CURVE",
"265 59 LINE",
"384 641 LINE",
"611 641 LINE",
"606 607 OFFCURVE",
"618 527 OFFCURVE",
"628 503 CURVE",
"668 503 LINE",
"708 700 LINE",
"119 700 LINE",
"115 678 LINE",
"142 667 OFFCURVE",
"173 659 OFFCURVE",
"195 655 CURVE",
"70 45 LINE",
"47 41 OFFCURVE",
"13 33 OFFCURVE",
"-20 22 CURVE",
"-23 0 LINE"
);
},
{
closed = 1;
nodes = (
"496 243 LINE",
"544 479 LINE",
"514 479 LINE",
"497 448 OFFCURVE",
"482 409 OFFCURVE",
"476 391 CURVE",
"262 391 LINE",
"249 332 LINE",
"463 332 LINE",
"461 315 OFFCURVE",
"462 276 OFFCURVE",
"466 243 CURVE"
);
},
{
closed = 1;
nodes = (
"375 821 OFFCURVE",
"457 891 OFFCURVE",
"485 928 CURVE",
"485 928 OFFCURVE",
"488 928 OFFCURVE",
"488 928 CURVE",
"502 891 OFFCURVE",
"555 821 OFFCURVE",
"590 786 CURVE",
"676 841 LINE",
"636 870 OFFCURVE",
"557 964 OFFCURVE",
"544 997 CURVE",
"544 997 OFFCURVE",
"457 997 OFFCURVE",
"457 997 CURVE",
"430 964 OFFCURVE",
"312 870 OFFCURVE",
"261 841 CURVE",
"326 786 LINE"
);
},
{
closed = 1;
nodes = (
"764 994 LINE SMOOTH",
"807 1014 OFFCURVE",
"838 1039 OFFCURVE",
"844 1068 CURVE",
"848 1090 OFFCURVE",
"839 1123 OFFCURVE",
"796 1123 CURVE SMOOTH",
"764 1123 OFFCURVE",
"732 1093 OFFCURVE",
"714 1074 CURVE SMOOTH",
"619 975 LINE",
"640 937 LINE"
);
}
);
width = 664;
}
);
note = Ecircumflexacute;
unicode = 1EBE;
},
{
glyphname = Ecircumflexdotbelow;
lastChange = "2015-11-29 22:57:20 +0000";
layers = (
{
layerId = "A20AAD8A-5619-416D-9D3E-77802FB4F06A";
name = "Bold Italic";
paths = (
{
closed = 1;
nodes = (
"565 0 LINE",
"625 196 LINE",
"584 196 LINE",
"560 174 OFFCURVE",
"511 99 OFFCURVE",
"500 59 CURVE",
"265 59 LINE",
"384 641 LINE",
"611 641 LINE",
"606 607 OFFCURVE",
"618 527 OFFCURVE",
"628 503 CURVE",
"668 503 LINE",
"708 700 LINE",
"119 700 LINE",
"115 678 LINE",
"142 667 OFFCURVE",
"173 659 OFFCURVE",
"195 655 CURVE",
"70 45 LINE",
"47 41 OFFCURVE",
"13 33 OFFCURVE",
"-20 22 CURVE",
"-23 0 LINE"
);
},
{
closed = 1;
nodes = (
"305 -195 OFFCURVE",
"339 -163 OFFCURVE",
"346 -123 CURVE SMOOTH",
"355 -83 OFFCURVE",
"335 -50 OFFCURVE",
"292 -50 CURVE SMOOTH",
"248 -50 OFFCURVE",
"216 -83 OFFCURVE",
"207 -123 CURVE SMOOTH",
"199 -163 OFFCURVE",
"219 -195 OFFCURVE",
"262 -195 CURVE SMOOTH"
);
},
{
closed = 1;
nodes = (
"496 243 LINE",
"544 479 LINE",
"514 479 LINE",
"497 448 OFFCURVE",
"482 409 OFFCURVE",
"476 391 CURVE",
"262 391 LINE",
"249 332 LINE",
"463 332 LINE",
"461 315 OFFCURVE",
"462 276 OFFCURVE",
"466 243 CURVE"
);
},
{
closed = 1;
nodes = (
"374 821 OFFCURVE",
"456 891 OFFCURVE",
"484 928 CURVE",
"484 928 OFFCURVE",
"487 928 OFFCURVE",
"487 928 CURVE",
"501 891 OFFCURVE",
"554 821 OFFCURVE",
"589 786 CURVE",
"676 841 LINE",
"636 870 OFFCURVE",
"556 964 OFFCURVE",
"543 997 CURVE",
"543 997 OFFCURVE",
"456 997 OFFCURVE",
"456 997 CURVE",
"429 964 OFFCURVE",
"312 870 OFFCURVE",
"261 841 CURVE",
"326 786 LINE"
);
}
);
width = 664;
}
);
note = Ecircumflexdotbelow;
unicode = 1EC6;
},
{
glyphname = Ecircumflexgrave;
lastChange = "2015-11-29 22:57:20 +0000";
layers = (
{
layerId = "A20AAD8A-5619-416D-9D3E-77802FB4F06A";
name = "Bold Italic";
paths = (
{
closed = 1;
nodes = (
"565 0 LINE",
"625 196 LINE",
"584 196 LINE",
"560 174 OFFCURVE",
"511 99 OFFCURVE",
"500 59 CURVE",
"265 59 LINE",
"384 641 LINE",
"611 641 LINE",
"606 607 OFFCURVE",
"618 527 OFFCURVE",
"628 503 CURVE",
"668 503 LINE",
"708 700 LINE",
"119 700 LINE",
"115 678 LINE",
"142 667 OFFCURVE",
"173 659 OFFCURVE",
"195 655 CURVE",
"70 45 LINE",
"47 41 OFFCURVE",
"13 33 OFFCURVE",
"-20 22 CURVE",
"-23 0 LINE"
);
},
{
closed = 1;
nodes = (
"496 243 LINE",
"544 479 LINE",
"514 479 LINE",
"497 448 OFFCURVE",
"482 409 OFFCURVE",
"476 391 CURVE",
"262 391 LINE",
"249 332 LINE",
"463 332 LINE",
"461 315 OFFCURVE",
"462 276 OFFCURVE",
"466 243 CURVE"
);
},
{
closed = 1;
nodes = (
"373 975 LINE",
"318 1074 LINE SMOOTH",
"308 1093 OFFCURVE",
"288 1123 OFFCURVE",
"255 1123 CURVE SMOOTH",
"213 1123 OFFCURVE",
"190 1090 OFFCURVE",
"186 1068 CURVE",
"179 1039 OFFCURVE",
"200 1014 OFFCURVE",
"236 994 CURVE SMOOTH",
"337 937 LINE"
);
},
{
closed = 1;
nodes = (
"375 821 OFFCURVE",
"457 891 OFFCURVE",
"485 928 CURVE",
"485 928 OFFCURVE",
"488 928 OFFCURVE",
"488 928 CURVE",
"502 891 OFFCURVE",
"555 821 OFFCURVE",
"590 786 CURVE",
"676 841 LINE",
"636 870 OFFCURVE",
"557 964 OFFCURVE",
"544 997 CURVE",
"544 997 OFFCURVE",
"457 997 OFFCURVE",
"457 997 CURVE",
"430 964 OFFCURVE",
"312 870 OFFCURVE",
"261 841 CURVE",
"326 786 LINE"
);
}
);
width = 664;
}
);
note = Ecircumflexgrave;
unicode = 1EC0;
},
{
glyphname = Ecircumflexhookabove;
lastChange = "2015-11-29 22:57:20 +0000";
layers = (
{
layerId = "A20AAD8A-5619-416D-9D3E-77802FB4F06A";
name = "Bold Italic";
paths = (
{
closed = 1;
nodes = (
"565 0 LINE",
"625 196 LINE",
"584 196 LINE",
"560 174 OFFCURVE",
"511 99 OFFCURVE",
"500 59 CURVE",
"265 59 LINE",
"384 641 LINE",
"611 641 LINE",
"606 607 OFFCURVE",
"618 527 OFFCURVE",
"628 503 CURVE",
"668 503 LINE",
"708 700 LINE",
"119 700 LINE",
"115 678 LINE",
"142 667 OFFCURVE",
"173 659 OFFCURVE",
"195 655 CURVE",
"70 45 LINE",
"47 41 OFFCURVE",
"13 33 OFFCURVE",
"-20 22 CURVE",
"-23 0 LINE"
);
},
{
closed = 1;
nodes = (
"496 243 LINE",
"544 479 LINE",
"514 479 LINE",
"497 448 OFFCURVE",
"482 409 OFFCURVE",
"476 391 CURVE",
"262 391 LINE",
"249 332 LINE",
"463 332 LINE",
"461 315 OFFCURVE",
"462 276 OFFCURVE",
"466 243 CURVE"
);
},
{
closed = 1;
nodes = (
"375 821 OFFCURVE",
"457 891 OFFCURVE",
"485 928 CURVE",
"485 928 OFFCURVE",
"488 928 OFFCURVE",
"488 928 CURVE",
"502 891 OFFCURVE",
"555 821 OFFCURVE",
"590 786 CURVE",
"676 841 LINE",
"636 870 OFFCURVE",
"557 964 OFFCURVE",
"544 997 CURVE",
"544 997 OFFCURVE",
"457 997 OFFCURVE",
"457 997 CURVE",
"430 964 OFFCURVE",
"312 870 OFFCURVE",
"261 841 CURVE",
"326 786 LINE"
);
},
{
closed = 1;
nodes = (
"686 964 LINE",
"703 1004 LINE",
"750 1009 OFFCURVE",
"795 1026 OFFCURVE",
"807 1088 CURVE SMOOTH",
"820 1156 OFFCURVE",
"767 1180 OFFCURVE",
"710 1180 CURVE SMOOTH",
"681 1180 OFFCURVE",
"652 1173 OFFCURVE",
"630 1163 CURVE",
"628 1121 LINE",
"647 1132 OFFCURVE",
"669 1136 OFFCURVE",
"684 1136 CURVE SMOOTH",
"721 1136 OFFCURVE",
"734 1113 OFFCURVE",
"729 1089 CURVE SMOOTH",
"722 1051 OFFCURVE",
"690 1042 OFFCURVE",
"673 1042 CURVE SMOOTH",
"633 1042 LINE",
"621 964 LINE"
);
}
);
width = 664;
}
);
note = Ecircumflexhookabove;
unicode = 1EC2;
},
{
glyphname = Ecircumflextilde;
lastChange = "2015-11-29 22:57:20 +0000";
layers = (
{
layerId = "A20AAD8A-5619-416D-9D3E-77802FB4F06A";
name = "Bold Italic";
paths = (
{
closed = 1;
nodes = (
"565 0 LINE",
"625 196 LINE",
"584 196 LINE",
"560 174 OFFCURVE",
"511 99 OFFCURVE",
"500 59 CURVE",
"265 59 LINE",
"384 641 LINE",
"611 641 LINE",
"606 607 OFFCURVE",
"618 527 OFFCURVE",
"628 503 CURVE",
"668 503 LINE",
"708 700 LINE",
"119 700 LINE",
"115 678 LINE",
"142 667 OFFCURVE",
"173 659 OFFCURVE",
"195 655 CURVE",
"70 45 LINE",
"47 41 OFFCURVE",
"13 33 OFFCURVE",
"-20 22 CURVE",
"-23 0 LINE"
);
},
{
closed = 1;
nodes = (
"496 243 LINE",
"544 479 LINE",
"514 479 LINE",
"497 448 OFFCURVE",
"482 409 OFFCURVE",
"476 391 CURVE",
"262 391 LINE",
"249 332 LINE",
"463 332 LINE",
"461 315 OFFCURVE",
"462 276 OFFCURVE",
"466 243 CURVE"
);
},
{
closed = 1;
nodes = (
"375 821 OFFCURVE",
"457 891 OFFCURVE",
"485 928 CURVE",
"485 928 OFFCURVE",
"488 928 OFFCURVE",
"488 928 CURVE",
"502 891 OFFCURVE",
"555 821 OFFCURVE",
"590 786 CURVE",
"676 841 LINE",
"636 870 OFFCURVE",
"557 964 OFFCURVE",
"544 997 CURVE",
"544 997 OFFCURVE",
"457 997 OFFCURVE",
"457 997 CURVE",
"430 964 OFFCURVE",
"312 870 OFFCURVE",
"261 841 CURVE",
"326 786 LINE"
);
},
{
closed = 1;
nodes = (
"390 1040 LINE",
"401 1069 OFFCURVE",
"428 1088 OFFCURVE",
"460 1088 CURVE SMOOTH",
"509 1088 OFFCURVE",
"533 1040 OFFCURVE",
"593 1040 CURVE SMOOTH",
"675 1040 OFFCURVE",
"721 1090 OFFCURVE",
"743 1163 CURVE",
"681 1163 LINE",
"661 1117 OFFCURVE",
"624 1114 OFFCURVE",
"604 1114 CURVE SMOOTH",
"567 1114 OFFCURVE",
"556 1162 OFFCURVE",
"481 1162 CURVE SMOOTH",
"409 1162 OFFCURVE",
"355 1119 OFFCURVE",
"329 1040 CURVE"
);
}
);
width = 664;
}
);
note = Ecircumflextilde;
unicode = 1EC4;
},
{
glyphname = Edieresis;
lastChange = "2015-11-29 22:57:21 +0000";
layers = (
{
layerId = "A20AAD8A-5619-416D-9D3E-77802FB4F06A";
name = "Bold Italic";
paths = (
{
closed = 1;
nodes = (
"565 0 LINE",
"625 196 LINE",
"584 196 LINE",
"560 174 OFFCURVE",
"511 99 OFFCURVE",
"500 59 CURVE",
"265 59 LINE",
"384 641 LINE",
"611 641 LINE",
"606 607 OFFCURVE",
"618 527 OFFCURVE",
"628 503 CURVE",
"668 503 LINE",
"708 700 LINE",
"119 700 LINE",
"115 678 LINE",
"142 667 OFFCURVE",
"173 659 OFFCURVE",
"195 655 CURVE",
"70 45 LINE",
"47 41 OFFCURVE",
"13 33 OFFCURVE",
"-20 22 CURVE",
"-23 0 LINE"
);
},
{
closed = 1;
nodes = (
"496 243 LINE",
"544 479 LINE",
"514 479 LINE",
"497 448 OFFCURVE",
"482 409 OFFCURVE",
"476 391 CURVE",
"262 391 LINE",
"249 332 LINE",
"463 332 LINE",
"461 315 OFFCURVE",
"462 276 OFFCURVE",
"466 243 CURVE"
);
},
{
closed = 1;
nodes = (
"422 786 OFFCURVE",
"455 818 OFFCURVE",
"463 858 CURVE SMOOTH",
"471 898 OFFCURVE",
"451 931 OFFCURVE",
"408 931 CURVE SMOOTH",
"365 931 OFFCURVE",
"333 898 OFFCURVE",
"325 858 CURVE SMOOTH",
"316 818 OFFCURVE",
"337 786 OFFCURVE",
"380 786 CURVE SMOOTH"
);
},
{
closed = 1;
nodes = (
"665 786 OFFCURVE",
"698 818 OFFCURVE",
"706 858 CURVE SMOOTH",
"714 898 OFFCURVE",
"694 931 OFFCURVE",
"651 931 CURVE SMOOTH",
"607 931 OFFCURVE",
"575 898 OFFCURVE",
"567 858 CURVE SMOOTH",
"558 818 OFFCURVE",
"579 786 OFFCURVE",
"622 786 CURVE SMOOTH"
);
}
);
width = 664;
}
);
note = Edieresis;
unicode = 00CB;
},
{
glyphname = Edotaccent;
lastChange = "2015-11-29 22:57:18 +0000";
layers = (
{
layerId = "A20AAD8A-5619-416D-9D3E-77802FB4F06A";
name = "Bold Italic";
paths = (
{
closed = 1;
nodes = (
"565 0 LINE",
"625 196 LINE",
"584 196 LINE",
"560 174 OFFCURVE",
"511 99 OFFCURVE",
"500 59 CURVE",
"265 59 LINE",
"384 641 LINE",
"611 641 LINE",
"606 607 OFFCURVE",
"618 527 OFFCURVE",
"628 503 CURVE",
"668 503 LINE",
"708 700 LINE",
"119 700 LINE",
"115 678 LINE",
"142 667 OFFCURVE",
"173 659 OFFCURVE",
"195 655 CURVE",
"70 45 LINE",
"47 41 OFFCURVE",
"13 33 OFFCURVE",
"-20 22 CURVE",
"-23 0 LINE"
);
},
{
closed = 1;
nodes = (
"496 243 LINE",
"544 479 LINE",
"514 479 LINE",
"497 448 OFFCURVE",
"482 409 OFFCURVE",
"476 391 CURVE",
"262 391 LINE",
"249 332 LINE",
"463 332 LINE",
"461 315 OFFCURVE",
"462 276 OFFCURVE",
"466 243 CURVE"
);
},
{
closed = 1;
nodes = (
"543 786 OFFCURVE",
"576 818 OFFCURVE",
"584 858 CURVE SMOOTH",
"592 898 OFFCURVE",
"572 931 OFFCURVE",
"529 931 CURVE SMOOTH",
"485 931 OFFCURVE",
"453 898 OFFCURVE",
"445 858 CURVE SMOOTH",
"436 818 OFFCURVE",
"457 786 OFFCURVE",
"500 786 CURVE SMOOTH"
);
}
);
width = 664;
}
);
note = Edotaccent;
unicode = 0116;
},
{
glyphname = Edotbelow;
lastChange = "2015-11-29 22:57:18 +0000";
layers = (
{
layerId = "A20AAD8A-5619-416D-9D3E-77802FB4F06A";
name = "Bold Italic";
paths = (
{
closed = 1;
nodes = (
"565 0 LINE",
"625 196 LINE",
"584 196 LINE",
"560 174 OFFCURVE",
"511 99 OFFCURVE",
"500 59 CURVE",
"265 59 LINE",
"384 641 LINE",
"611 641 LINE",
"606 607 OFFCURVE",
"618 527 OFFCURVE",
"628 503 CURVE",
"668 503 LINE",
"708 700 LINE",
"119 700 LINE",
"115 678 LINE",
"142 667 OFFCURVE",
"173 659 OFFCURVE",
"195 655 CURVE",
"70 45 LINE",
"47 41 OFFCURVE",
"13 33 OFFCURVE",
"-20 22 CURVE",
"-23 0 LINE"
);
},
{
closed = 1;
nodes = (
"289 -195 OFFCURVE",
"322 -163 OFFCURVE",
"330 -123 CURVE SMOOTH",
"339 -83 OFFCURVE",
"318 -50 OFFCURVE",
"275 -50 CURVE SMOOTH",
"232 -50 OFFCURVE",
"199 -83 OFFCURVE",
"191 -123 CURVE SMOOTH",
"183 -163 OFFCURVE",
"202 -195 OFFCURVE",
"245 -195 CURVE SMOOTH"
);
},
{
closed = 1;
nodes = (
"496 243 LINE",
"544 479 LINE",
"514 479 LINE",
"497 448 OFFCURVE",
"482 409 OFFCURVE",
"476 391 CURVE",
"262 391 LINE",
"249 332 LINE",
"463 332 LINE",
"461 315 OFFCURVE",
"462 276 OFFCURVE",
"466 243 CURVE"
);
}
);
width = 664;
}
);
note = Edotbelow;
unicode = 1EB8;
},
{
glyphname = Egrave;
lastChange = "2015-11-29 22:57:20 +0000";
layers = (
{
layerId = "A20AAD8A-5619-416D-9D3E-77802FB4F06A";
name = "Bold Italic";
paths = (
{
closed = 1;
nodes = (
"565 0 LINE",
"625 196 LINE",
"584 196 LINE",
"560 174 OFFCURVE",
"511 99 OFFCURVE",
"500 59 CURVE",
"265 59 LINE",
"384 641 LINE",
"611 641 LINE",
"606 607 OFFCURVE",
"618 527 OFFCURVE",
"628 503 CURVE",
"668 503 LINE",
"708 700 LINE",
"119 700 LINE",
"115 678 LINE",
"142 667 OFFCURVE",
"173 659 OFFCURVE",
"195 655 CURVE",
"70 45 LINE",
"47 41 OFFCURVE",
"13 33 OFFCURVE",
"-20 22 CURVE",
"-23 0 LINE"
);
},
{
closed = 1;
nodes = (
"496 243 LINE",
"544 479 LINE",
"514 479 LINE",
"497 448 OFFCURVE",
"482 409 OFFCURVE",
"476 391 CURVE",
"262 391 LINE",
"249 332 LINE",
"463 332 LINE",
"461 315 OFFCURVE",
"462 276 OFFCURVE",
"466 243 CURVE"
);
},
{
closed = 1;
nodes = (
"621 830 LINE",
"528 969 LINE SMOOTH",
"524 975 OFFCURVE",
"502 1011 OFFCURVE",
"462 1011 CURVE SMOOTH",
"420 1011 OFFCURVE",
"398 982 OFFCURVE",
"394 960 CURVE",
"388 931 OFFCURVE",
"405 909 OFFCURVE",
"437 886 CURVE SMOOTH",
"582 786 LINE"
);
}
);
width = 664;
}
);
note = Egrave;
unicode = 00C8;
},
{
glyphname = Ehookabove;
lastChange = "2015-11-29 22:57:18 +0000";
layers = (
{
layerId = "A20AAD8A-5619-416D-9D3E-77802FB4F06A";
name = "Bold Italic";
paths = (
{
closed = 1;
nodes = (
"565 0 LINE",
"625 196 LINE",
"584 196 LINE",
"560 174 OFFCURVE",
"511 99 OFFCURVE",
"500 59 CURVE",
"265 59 LINE",
"384 641 LINE",
"611 641 LINE",
"606 607 OFFCURVE",
"618 527 OFFCURVE",
"628 503 CURVE",
"668 503 LINE",
"708 700 LINE",
"119 700 LINE",
"115 678 LINE",
"142 667 OFFCURVE",
"173 659 OFFCURVE",
"195 655 CURVE",
"70 45 LINE",
"47 41 OFFCURVE",
"13 33 OFFCURVE",
"-20 22 CURVE",
"-23 0 LINE"
);
},
{
closed = 1;
nodes = (
"496 243 LINE",
"544 479 LINE",
"514 479 LINE",
"497 448 OFFCURVE",
"482 409 OFFCURVE",
"476 391 CURVE",
"262 391 LINE",
"249 332 LINE",
"463 332 LINE",
"461 315 OFFCURVE",
"462 276 OFFCURVE",
"466 243 CURVE"
);
},
{
closed = 1;
nodes = (
"517 786 LINE",
"541 859 LINE",
"595 864 OFFCURVE",
"644 883 OFFCURVE",
"658 951 CURVE SMOOTH",
"673 1025 OFFCURVE",
"612 1051 OFFCURVE",
"548 1051 CURVE SMOOTH",
"514 1051 OFFCURVE",
"480 1043 OFFCURVE",
"456 1032 CURVE",
"453 987 LINE",
"476 999 OFFCURVE",
"501 1003 OFFCURVE",
"518 1003 CURVE SMOOTH",
"559 1003 OFFCURVE",
"575 978 OFFCURVE",
"570 952 CURVE SMOOTH",
"561 910 OFFCURVE",
"526 900 OFFCURVE",
"506 900 CURVE SMOOTH",
"460 900 LINE",
"442 786 LINE"
);
}
);
width = 664;
}
);
note = Ehookabove;
unicode = 1EBA;
},
{
glyphname = Emacron;
lastChange = "2015-11-29 22:57:18 +0000";
layers = (
{
layerId = "A20AAD8A-5619-416D-9D3E-77802FB4F06A";
name = "Bold Italic";
paths = (
{
closed = 1;
nodes = (
"565 0 LINE",
"625 196 LINE",
"584 196 LINE",
"560 174 OFFCURVE",
"511 99 OFFCURVE",
"500 59 CURVE",
"265 59 LINE",
"384 641 LINE",
"611 641 LINE",
"606 607 OFFCURVE",
"618 527 OFFCURVE",
"628 503 CURVE",
"668 503 LINE",
"708 700 LINE",
"119 700 LINE",
"115 678 LINE",
"142 667 OFFCURVE",
"173 659 OFFCURVE",
"195 655 CURVE",
"70 45 LINE",
"47 41 OFFCURVE",
"13 33 OFFCURVE",
"-20 22 CURVE",
"-23 0 LINE"
);
},
{
closed = 1;
nodes = (
"496 243 LINE",
"544 479 LINE",
"514 479 LINE",
"497 448 OFFCURVE",
"482 409 OFFCURVE",
"476 391 CURVE",
"262 391 LINE",
"249 332 LINE",
"463 332 LINE",
"461 315 OFFCURVE",
"462 276 OFFCURVE",
"466 243 CURVE"
);
},
{
closed = 1;
nodes = (
"693 786 LINE",
"704 843 LINE",
"294 843 LINE",
"283 786 LINE"
);
}
);
width = 664;
}
);
note = Emacron;
unicode = 0112;
},
{
glyphname = Eogonek;
lastChange = "2015-11-29 22:57:19 +0000";
layers = (
{
layerId = "A20AAD8A-5619-416D-9D3E-77802FB4F06A";
name = "Bold Italic";
paths = (
{
closed = 1;
nodes = (
"565 0 LINE",
"625 196 LINE",
"584 196 LINE",
"560 174 OFFCURVE",
"511 99 OFFCURVE",
"500 59 CURVE",
"265 59 LINE",
"384 641 LINE",
"611 641 LINE",
"606 607 OFFCURVE",
"618 527 OFFCURVE",
"628 503 CURVE",
"668 503 LINE",
"708 700 LINE",
"119 700 LINE",
"115 678 LINE",
"142 667 OFFCURVE",
"173 659 OFFCURVE",
"195 655 CURVE",
"70 45 LINE",
"47 41 OFFCURVE",
"13 33 OFFCURVE",
"-20 22 CURVE",
"-23 0 LINE"
);
},
{
closed = 1;
nodes = (
"497 -218 OFFCURVE",
"550 -206 OFFCURVE",
"580 -186 CURVE",
"595 -109 LINE",
"564 -127 OFFCURVE",
"537 -134 OFFCURVE",
"518 -134 CURVE SMOOTH",
"482 -134 OFFCURVE",
"464 -110 OFFCURVE",
"470 -82 CURVE SMOOTH",
"476 -52 OFFCURVE",
"507 -17 OFFCURVE",
"529 0 CURVE",
"444 0 LINE",
"378 -17 OFFCURVE",
"331 -76 OFFCURVE",
"322 -122 CURVE SMOOTH",
"309 -184 OFFCURVE",
"357 -218 OFFCURVE",
"448 -218 CURVE SMOOTH"
);
},
{
closed = 1;
nodes = (
"496 243 LINE",
"544 479 LINE",
"514 479 LINE",
"497 448 OFFCURVE",
"482 409 OFFCURVE",
"476 391 CURVE",
"262 391 LINE",
"249 332 LINE",
"463 332 LINE",
"461 315 OFFCURVE",
"462 276 OFFCURVE",
"466 243 CURVE"
);
}
);
width = 664;
}
);
note = Eogonek;
unicode = 0118;
},
{
glyphname = Etilde;
lastChange = "2015-11-29 22:57:20 +0000";
layers = (
{
layerId = "A20AAD8A-5619-416D-9D3E-77802FB4F06A";
name = "Bold Italic";
paths = (
{
closed = 1;
nodes = (
"565 0 LINE",
"625 196 LINE",
"584 196 LINE",
"560 174 OFFCURVE",
"511 99 OFFCURVE",
"500 59 CURVE",
"265 59 LINE",
"384 641 LINE",
"611 641 LINE",
"606 607 OFFCURVE",
"618 527 OFFCURVE",
"628 503 CURVE",
"668 503 LINE",
"708 700 LINE",
"119 700 LINE",
"115 678 LINE",
"142 667 OFFCURVE",
"173 659 OFFCURVE",
"195 655 CURVE",
"70 45 LINE",
"47 41 OFFCURVE",
"13 33 OFFCURVE",
"-20 22 CURVE",
"-23 0 LINE"
);
},
{
closed = 1;
nodes = (
"496 243 LINE",
"544 479 LINE",
"514 479 LINE",
"497 448 OFFCURVE",
"482 409 OFFCURVE",
"476 391 CURVE",
"262 391 LINE",
"249 332 LINE",
"463 332 LINE",
"461 315 OFFCURVE",
"462 276 OFFCURVE",
"466 243 CURVE"
);
},
{
closed = 1;
nodes = (
"346 786 LINE",
"357 817 OFFCURVE",
"377 836 OFFCURVE",
"405 836 CURVE SMOOTH",
"437 836 OFFCURVE",
"491 786 OFFCURVE",
"553 786 CURVE SMOOTH",
"639 786 OFFCURVE",
"687 839 OFFCURVE",
"709 915 CURVE",
"621 915 LINE",
"601 867 OFFCURVE",
"579 864 OFFCURVE",
"557 864 CURVE SMOOTH",
"518 864 OFFCURVE",
"493 914 OFFCURVE",
"415 914 CURVE SMOOTH",
"340 914 OFFCURVE",
"285 869 OFFCURVE",
"257 786 CURVE"
);
}
);
width = 664;
}
);
note = Etilde;
unicode = 1EBC;
},
{
glyphname = F;
lastChange = "2015-11-29 22:57:21 +0000";
layers = (
{
layerId = "A20AAD8A-5619-416D-9D3E-77802FB4F06A";
name = "Bold Italic";
paths = (
{
closed = 1;
nodes = (
"338 0 LINE",
"341 22 LINE",
"315 33 OFFCURVE",
"283 41 OFFCURVE",
"262 45 CURVE",
"384 641 LINE",
"592 641 LINE",
"587 607 OFFCURVE",
"599 527 OFFCURVE",
"608 503 CURVE",
"649 503 LINE",
"689 700 LINE",
"119 700 LINE",
"115 678 LINE",
"142 667 OFFCURVE",
"173 659 OFFCURVE",
"195 655 CURVE",
"70 45 LINE",
"47 41 OFFCURVE",
"13 33 OFFCURVE",
"-20 22 CURVE",
"-23 0 LINE"
);
},
{
closed = 1;
nodes = (
"487 201 LINE",
"535 437 LINE",
"506 437 LINE",
"488 406 OFFCURVE",
"474 367 OFFCURVE",
"467 349 CURVE",
"154 349 LINE",
"142 290 LINE",
"455 290 LINE",
"454 273 OFFCURVE",
"454 234 OFFCURVE",
"458 201 CURVE"
);
}
);
width = 616;
}
);
note = F;
unicode = 0046;
},
{
glyphname = G;
lastChange = "2015-11-29 22:57:18 +0000";
layers = (
{
layerId = "A20AAD8A-5619-416D-9D3E-77802FB4F06A";
name = "Bold Italic";
paths = (
{
closed = 1;
nodes = (
"439 -10 OFFCURVE",
"556 11 OFFCURVE",
"614 48 CURVE",
"664 295 LINE",
"676 299 OFFCURVE",
"719 314 OFFCURVE",
"737 326 CURVE",
"740 343 LINE",
"412 343 LINE",
"408 319 LINE",
"432 311 OFFCURVE",
"456 304 OFFCURVE",
"479 298 CURVE",
"429 55 LINE",
"414 53 OFFCURVE",
"392 52 OFFCURVE",
"380 52 CURVE SMOOTH",
"268 52 OFFCURVE",
"214 159 OFFCURVE",
"253 350 CURVE SMOOTH",
"292 540 OFFCURVE",
"406 648 OFFCURVE",
"526 648 CURVE SMOOTH",
"565 648 OFFCURVE",
"620 641 OFFCURVE",
"652 610 CURVE",
"647 557 OFFCURVE",
"646 507 OFFCURVE",
"650 463 CURVE",
"694 463 LINE",
"743 625 LINE",
"700 678 OFFCURVE",
"616 710 OFFCURVE",
"490 710 CURVE SMOOTH",
"262 710 OFFCURVE",
"102 572 OFFCURVE",
"57 350 CURVE SMOOTH",
"12 128 OFFCURVE",
"107 -10 OFFCURVE",
"342 -10 CURVE SMOOTH"
);
}
);
width = 726;
}
);
leftKerningGroup = G;
note = G;
unicode = 0047;
},
{
glyphname = Gbreve;
lastChange = "2015-11-29 22:57:20 +0000";
layers = (
{
layerId = "A20AAD8A-5619-416D-9D3E-77802FB4F06A";
name = "Bold Italic";
paths = (
{
closed = 1;
nodes = (
"439 -10 OFFCURVE",
"556 11 OFFCURVE",
"614 48 CURVE",
"664 295 LINE",
"676 299 OFFCURVE",
"719 314 OFFCURVE",
"737 326 CURVE",
"740 343 LINE",
"412 343 LINE",
"408 319 LINE",
"432 311 OFFCURVE",
"456 304 OFFCURVE",
"479 298 CURVE",
"429 55 LINE",
"414 53 OFFCURVE",
"392 52 OFFCURVE",
"380 52 CURVE SMOOTH",
"268 52 OFFCURVE",
"214 159 OFFCURVE",
"253 350 CURVE SMOOTH",
"292 540 OFFCURVE",
"406 648 OFFCURVE",
"526 648 CURVE SMOOTH",
"565 648 OFFCURVE",
"620 641 OFFCURVE",
"652 610 CURVE",
"647 557 OFFCURVE",
"646 507 OFFCURVE",
"650 463 CURVE",
"694 463 LINE",
"743 625 LINE",
"700 678 OFFCURVE",
"616 710 OFFCURVE",
"490 710 CURVE SMOOTH",
"262 710 OFFCURVE",
"102 572 OFFCURVE",
"57 350 CURVE SMOOTH",
"12 128 OFFCURVE",
"107 -10 OFFCURVE",
"342 -10 CURVE SMOOTH"
);
},
{
closed = 1;
nodes = (
"613 786 OFFCURVE",
"692 831 OFFCURVE",
"729 927 CURVE",
"628 927 LINE",
"606 856 OFFCURVE",
"562 847 OFFCURVE",
"523 847 CURVE SMOOTH",
"484 847 OFFCURVE",
"443 856 OFFCURVE",
"451 927 CURVE",
"350 927 LINE",
"347 831 OFFCURVE",
"408 786 OFFCURVE",
"510 786 CURVE SMOOTH"
);
}
);
width = 726;
}
);
leftKerningGroup = G;
note = Gbreve;
unicode = 011E;
},
{
glyphname = Gcaron;
lastChange = "2015-11-29 22:57:18 +0000";
layers = (
{
layerId = "A20AAD8A-5619-416D-9D3E-77802FB4F06A";
name = "Bold Italic";
paths = (
{
closed = 1;
nodes = (
"439 -10 OFFCURVE",
"556 11 OFFCURVE",
"614 48 CURVE",
"664 295 LINE",
"676 299 OFFCURVE",
"719 314 OFFCURVE",
"737 326 CURVE",
"740 343 LINE",
"412 343 LINE",
"408 319 LINE",
"432 311 OFFCURVE",
"456 304 OFFCURVE",
"479 298 CURVE",
"429 55 LINE",
"414 53 OFFCURVE",
"392 52 OFFCURVE",
"380 52 CURVE SMOOTH",
"268 52 OFFCURVE",
"214 159 OFFCURVE",
"253 350 CURVE SMOOTH",
"292 540 OFFCURVE",
"406 648 OFFCURVE",
"526 648 CURVE SMOOTH",
"565 648 OFFCURVE",
"620 641 OFFCURVE",
"652 610 CURVE",
"647 557 OFFCURVE",
"646 507 OFFCURVE",
"650 463 CURVE",
"694 463 LINE",
"743 625 LINE",
"700 678 OFFCURVE",
"616 710 OFFCURVE",
"490 710 CURVE SMOOTH",
"262 710 OFFCURVE",
"102 572 OFFCURVE",
"57 350 CURVE SMOOTH",
"12 128 OFFCURVE",
"107 -10 OFFCURVE",
"342 -10 CURVE SMOOTH"
);
},
{
closed = 1;
nodes = (
"432 786 OFFCURVE",
"519 786 OFFCURVE",
"519 786 CURVE",
"546 819 OFFCURVE",
"664 913 OFFCURVE",
"715 942 CURVE",
"650 997 LINE",
"601 962 OFFCURVE",
"519 892 OFFCURVE",
"490 855 CURVE",
"490 855 OFFCURVE",
"487 855 OFFCURVE",
"487 855 CURVE",
"474 892 OFFCURVE",
"421 962 OFFCURVE",
"386 997 CURVE",
"300 942 LINE",
"340 913 OFFCURVE",
"418 819 OFFCURVE",
"432 786 CURVE"
);
}
);
width = 726;
}
);
leftKerningGroup = G;
note = Gcaron;
unicode = 01E6;
},
{
glyphname = Gcircumflex;
lastChange = "2015-11-29 22:57:19 +0000";
layers = (
{
layerId = "A20AAD8A-5619-416D-9D3E-77802FB4F06A";
name = "Bold Italic";
paths = (
{
closed = 1;
nodes = (
"439 -10 OFFCURVE",
"556 11 OFFCURVE",
"614 48 CURVE",
"664 295 LINE",
"676 299 OFFCURVE",
"719 314 OFFCURVE",
"737 326 CURVE",
"740 343 LINE",
"412 343 LINE",
"408 319 LINE",
"432 311 OFFCURVE",
"456 304 OFFCURVE",
"479 298 CURVE",
"429 55 LINE",
"414 53 OFFCURVE",
"392 52 OFFCURVE",
"380 52 CURVE SMOOTH",
"268 52 OFFCURVE",
"214 159 OFFCURVE",
"253 350 CURVE SMOOTH",
"292 540 OFFCURVE",
"406 648 OFFCURVE",
"526 648 CURVE SMOOTH",
"565 648 OFFCURVE",
"620 641 OFFCURVE",
"652 610 CURVE",
"647 557 OFFCURVE",
"646 507 OFFCURVE",
"650 463 CURVE",
"694 463 LINE",
"743 625 LINE",
"700 678 OFFCURVE",
"616 710 OFFCURVE",
"490 710 CURVE SMOOTH",
"262 710 OFFCURVE",
"102 572 OFFCURVE",
"57 350 CURVE SMOOTH",
"12 128 OFFCURVE",
"107 -10 OFFCURVE",
"342 -10 CURVE SMOOTH"
);
},
{
closed = 1;
nodes = (
"439 821 OFFCURVE",
"521 891 OFFCURVE",
"550 928 CURVE",
"550 928 OFFCURVE",
"553 928 OFFCURVE",
"553 928 CURVE",
"566 891 OFFCURVE",
"619 821 OFFCURVE",
"654 786 CURVE",
"741 841 LINE",
"701 870 OFFCURVE",
"622 964 OFFCURVE",
"608 997 CURVE",
"608 997 OFFCURVE",
"521 997 OFFCURVE",
"521 997 CURVE",
"494 964 OFFCURVE",
"377 870 OFFCURVE",
"326 841 CURVE",
"391 786 LINE"
);
}
);
width = 726;
}
);
leftKerningGroup = G;
note = Gcircumflex;
unicode = 011C;
},
{
glyphname = Gcommaaccent;
lastChange = "2015-11-29 22:57:19 +0000";
layers = (
{
layerId = "A20AAD8A-5619-416D-9D3E-77802FB4F06A";
name = "Bold Italic";
paths = (
{
closed = 1;
nodes = (
"439 -10 OFFCURVE",
"556 11 OFFCURVE",
"614 48 CURVE",
"664 295 LINE",
"676 299 OFFCURVE",
"719 314 OFFCURVE",
"737 326 CURVE",
"740 343 LINE",
"412 343 LINE",
"408 319 LINE",
"432 311 OFFCURVE",
"456 304 OFFCURVE",
"479 298 CURVE",
"429 55 LINE",
"414 53 OFFCURVE",
"392 52 OFFCURVE",
"380 52 CURVE SMOOTH",
"268 52 OFFCURVE",
"214 159 OFFCURVE",
"253 350 CURVE SMOOTH",
"292 540 OFFCURVE",
"406 648 OFFCURVE",
"526 648 CURVE SMOOTH",
"565 648 OFFCURVE",
"620 641 OFFCURVE",
"652 610 CURVE",
"647 557 OFFCURVE",
"646 507 OFFCURVE",
"650 463 CURVE",
"694 463 LINE",
"743 625 LINE",
"700 678 OFFCURVE",
"616 710 OFFCURVE",
"490 710 CURVE SMOOTH",
"262 710 OFFCURVE",
"102 572 OFFCURVE",
"57 350 CURVE SMOOTH",
"12 128 OFFCURVE",
"107 -10 OFFCURVE",
"342 -10 CURVE SMOOTH"
);
},
{
closed = 1;
nodes = (
"328 -356 OFFCURVE",
"396 -264 OFFCURVE",
"415 -174 CURVE SMOOTH",
"424 -130 OFFCURVE",
"404 -89 OFFCURVE",
"344 -89 CURVE SMOOTH",
"300 -89 OFFCURVE",
"255 -119 OFFCURVE",
"245 -168 CURVE SMOOTH",
"237 -209 OFFCURVE",
"265 -246 OFFCURVE",
"305 -251 CURVE",
"287 -297 OFFCURVE",
"235 -344 OFFCURVE",
"206 -368 CURVE",
"254 -412 LINE"
);
}
);
width = 726;
}
);
leftKerningGroup = G;
note = Gcommaaccent;
unicode = 0122;
},
{
glyphname = Gdotaccent;
lastChange = "2015-11-29 22:57:18 +0000";
layers = (
{
layerId = "A20AAD8A-5619-416D-9D3E-77802FB4F06A";
name = "Bold Italic";
paths = (
{
closed = 1;
nodes = (
"439 -10 OFFCURVE",
"556 11 OFFCURVE",
"614 48 CURVE",
"664 295 LINE",
"676 299 OFFCURVE",
"719 314 OFFCURVE",
"737 326 CURVE",
"740 343 LINE",
"412 343 LINE",
"408 319 LINE",
"432 311 OFFCURVE",
"456 304 OFFCURVE",
"479 298 CURVE",
"429 55 LINE",
"414 53 OFFCURVE",
"392 52 OFFCURVE",
"380 52 CURVE SMOOTH",
"268 52 OFFCURVE",
"214 159 OFFCURVE",
"253 350 CURVE SMOOTH",
"292 540 OFFCURVE",
"406 648 OFFCURVE",
"526 648 CURVE SMOOTH",
"565 648 OFFCURVE",
"620 641 OFFCURVE",
"652 610 CURVE",
"647 557 OFFCURVE",
"646 507 OFFCURVE",
"650 463 CURVE",
"694 463 LINE",
"743 625 LINE",
"700 678 OFFCURVE",
"616 710 OFFCURVE",
"490 710 CURVE SMOOTH",
"262 710 OFFCURVE",
"102 572 OFFCURVE",
"57 350 CURVE SMOOTH",
"12 128 OFFCURVE",
"107 -10 OFFCURVE",
"342 -10 CURVE SMOOTH"
);
},
{
closed = 1;
nodes = (
"573 786 OFFCURVE",
"605 818 OFFCURVE",
"614 858 CURVE SMOOTH",
"622 898 OFFCURVE",
"602 931 OFFCURVE",
"558 931 CURVE SMOOTH",
"515 931 OFFCURVE",
"483 898 OFFCURVE",
"475 858 CURVE SMOOTH",
"466 818 OFFCURVE",
"486 786 OFFCURVE",
"530 786 CURVE SMOOTH"
);
}
);
width = 726;
}
);
leftKerningGroup = G;
note = Gdotaccent;
unicode = 0120;
},
{
glyphname = Gmacron;
lastChange = "2015-11-29 22:57:19 +0000";
layers = (
{
layerId = "A20AAD8A-5619-416D-9D3E-77802FB4F06A";
name = "Bold Italic";
paths = (
{
closed = 1;
nodes = (
"439 -10 OFFCURVE",
"556 11 OFFCURVE",
"614 48 CURVE",
"664 295 LINE",
"676 299 OFFCURVE",
"719 314 OFFCURVE",
"737 326 CURVE",
"740 343 LINE",
"412 343 LINE",
"408 319 LINE",
"432 311 OFFCURVE",
"456 304 OFFCURVE",
"479 298 CURVE",
"429 55 LINE",
"414 53 OFFCURVE",
"392 52 OFFCURVE",
"380 52 CURVE SMOOTH",
"268 52 OFFCURVE",
"214 159 OFFCURVE",
"253 350 CURVE SMOOTH",
"292 540 OFFCURVE",
"406 648 OFFCURVE",
"526 648 CURVE SMOOTH",
"565 648 OFFCURVE",
"620 641 OFFCURVE",
"652 610 CURVE",
"647 557 OFFCURVE",
"646 507 OFFCURVE",
"650 463 CURVE",
"694 463 LINE",
"743 625 LINE",
"700 678 OFFCURVE",
"616 710 OFFCURVE",
"490 710 CURVE SMOOTH",
"262 710 OFFCURVE",
"102 572 OFFCURVE",
"57 350 CURVE SMOOTH",
"12 128 OFFCURVE",
"107 -10 OFFCURVE",
"342 -10 CURVE SMOOTH"
);
},
{
closed = 1;
nodes = (
"681 786 LINE",
"693 843 LINE",
"283 843 LINE",
"271 786 LINE"
);
}
);
width = 726;
}
);
leftKerningGroup = G;
note = Gmacron;
unicode = 1E20;
},
{
glyphname = H;
lastChange = "2015-11-29 22:57:20 +0000";
layers = (
{
layerId = "A20AAD8A-5619-416D-9D3E-77802FB4F06A";
name = "Bold Italic";
paths = (
{
closed = 1;
nodes = (
"748 0 LINE",
"751 22 LINE",
"724 33 OFFCURVE",
"702 40 OFFCURVE",
"680 45 CURVE",
"804 652 LINE",
"816 654 OFFCURVE",
"851 666 OFFCURVE",
"885 676 CURVE",
"890 700 LINE",
"549 700 LINE",
"545 678 LINE",
"571 669 OFFCURVE",
"593 661 OFFCURVE",
"613 656 CURVE",
"488 47 LINE",
"484 45 OFFCURVE",
"481 46 OFFCURVE",
"411 19 CURVE",
"407 0 LINE"
);
},
{
closed = 1;
nodes = (
"316 0 LINE",
"320 22 LINE",
"294 31 OFFCURVE",
"272 39 OFFCURVE",
"252 44 CURVE",
"376 653 LINE",
"382 655 OFFCURVE",
"385 654 OFFCURVE",
"455 681 CURVE",
"459 700 LINE",
"119 700 LINE",
"115 678 LINE",
"142 667 OFFCURVE",
"163 660 OFFCURVE",
"185 655 CURVE",
"61 48 LINE",
"50 46 OFFCURVE",
"14 34 OFFCURVE",
"-19 24 CURVE",
"-23 0 LINE"
);
},
{
closed = 1;
nodes = (
"639 326 LINE",
"651 385 LINE",
"230 385 LINE",
"219 326 LINE"
);
}
);
width = 817;
}
);
note = H;
unicode = 0048;
},
{
glyphname = Hbar;
lastChange = "2015-11-29 22:57:18 +0000";
layers = (
{
layerId = "A20AAD8A-5619-416D-9D3E-77802FB4F06A";
name = "Bold Italic";
paths = (
{
closed = 1;
nodes = (
"748 0 LINE",
"751 22 LINE",
"724 33 OFFCURVE",
"702 40 OFFCURVE",
"680 45 CURVE",
"804 652 LINE",
"816 654 OFFCURVE",
"851 666 OFFCURVE",
"885 676 CURVE",
"890 700 LINE",
"549 700 LINE",
"545 678 LINE",
"571 669 OFFCURVE",
"593 661 OFFCURVE",
"613 656 CURVE",
"488 47 LINE",
"484 45 OFFCURVE",
"481 46 OFFCURVE",
"411 19 CURVE",
"407 0 LINE"
);
},
{
closed = 1;
nodes = (
"316 0 LINE",
"320 22 LINE",
"294 31 OFFCURVE",
"272 39 OFFCURVE",
"252 44 CURVE",
"376 653 LINE",
"382 655 OFFCURVE",
"385 654 OFFCURVE",
"455 681 CURVE",
"459 700 LINE",
"119 700 LINE",
"115 678 LINE",
"142 667 OFFCURVE",
"163 660 OFFCURVE",
"185 655 CURVE",
"61 48 LINE",
"50 46 OFFCURVE",
"14 34 OFFCURVE",
"-19 24 CURVE",
"-23 0 LINE"
);
},
{
closed = 1;
nodes = (
"639 326 LINE",
"651 385 LINE",
"230 385 LINE",
"219 326 LINE"
);
},
{
closed = 1;
nodes = (
"828 487 LINE",
"841 546 LINE",
"105 546 LINE",
"93 487 LINE"
);
}
);
width = 817;
}
);
note = Hbar;
unicode = 0126;
},
{
glyphname = Hbrevebelow;
lastChange = "2015-11-29 22:57:19 +0000";
layers = (
{
layerId = "A20AAD8A-5619-416D-9D3E-77802FB4F06A";
name = "Bold Italic";
paths = (
{
closed = 1;
nodes = (
"748 0 LINE",
"751 22 LINE",
"724 33 OFFCURVE",
"702 40 OFFCURVE",
"680 45 CURVE",
"804 652 LINE",
"816 654 OFFCURVE",
"851 666 OFFCURVE",
"885 676 CURVE",
"890 700 LINE",
"549 700 LINE",
"545 678 LINE",
"571 669 OFFCURVE",
"593 661 OFFCURVE",
"613 656 CURVE",
"488 47 LINE",
"484 45 OFFCURVE",
"481 46 OFFCURVE",
"411 19 CURVE",
"407 0 LINE"
);
},
{
closed = 1;
nodes = (
"425 -191 OFFCURVE",
"504 -146 OFFCURVE",
"541 -50 CURVE",
"439 -50 LINE",
"418 -121 OFFCURVE",
"374 -130 OFFCURVE",
"336 -130 CURVE SMOOTH",
"296 -130 OFFCURVE",
"256 -121 OFFCURVE",
"264 -50 CURVE",
"162 -50 LINE",
"159 -146 OFFCURVE",
"220 -191 OFFCURVE",
"323 -191 CURVE SMOOTH"
);
},
{
closed = 1;
nodes = (
"316 0 LINE",
"320 22 LINE",
"294 31 OFFCURVE",
"272 39 OFFCURVE",
"252 44 CURVE",
"376 653 LINE",
"382 655 OFFCURVE",
"385 654 OFFCURVE",
"455 681 CURVE",
"459 700 LINE",
"119 700 LINE",
"115 678 LINE",
"142 667 OFFCURVE",
"163 660 OFFCURVE",
"185 655 CURVE",
"61 48 LINE",
"50 46 OFFCURVE",
"14 34 OFFCURVE",
"-19 24 CURVE",
"-23 0 LINE"
);
},
{
closed = 1;
nodes = (
"639 326 LINE",
"651 385 LINE",
"230 385 LINE",
"219 326 LINE"
);
}
);
width = 817;
}
);
note = Hbrevebelow;
unicode = 1E2A;
},
{
glyphname = Hcircumflex;
lastChange = "2015-11-29 22:57:18 +0000";
layers = (
{
layerId = "A20AAD8A-5619-416D-9D3E-77802FB4F06A";
name = "Bold Italic";
paths = (
{
closed = 1;
nodes = (
"748 0 LINE",
"751 22 LINE",
"724 33 OFFCURVE",
"702 40 OFFCURVE",
"680 45 CURVE",
"804 652 LINE",
"816 654 OFFCURVE",
"851 666 OFFCURVE",
"885 676 CURVE",
"890 700 LINE",
"549 700 LINE",
"545 678 LINE",
"571 669 OFFCURVE",
"593 661 OFFCURVE",
"613 656 CURVE",
"488 47 LINE",
"484 45 OFFCURVE",
"481 46 OFFCURVE",
"411 19 CURVE",
"407 0 LINE"
);
},
{
closed = 1;
nodes = (
"316 0 LINE",
"320 22 LINE",
"294 31 OFFCURVE",
"272 39 OFFCURVE",
"252 44 CURVE",
"376 653 LINE",
"382 655 OFFCURVE",
"385 654 OFFCURVE",
"455 681 CURVE",
"459 700 LINE",
"119 700 LINE",
"115 678 LINE",
"142 667 OFFCURVE",
"163 660 OFFCURVE",
"185 655 CURVE",
"61 48 LINE",
"50 46 OFFCURVE",
"14 34 OFFCURVE",
"-19 24 CURVE",
"-23 0 LINE"
);
},
{
closed = 1;
nodes = (
"639 326 LINE",
"651 385 LINE",
"230 385 LINE",
"219 326 LINE"
);
},
{
closed = 1;
nodes = (
"438 821 OFFCURVE",
"520 891 OFFCURVE",
"549 928 CURVE",
"549 928 OFFCURVE",
"552 928 OFFCURVE",
"552 928 CURVE",
"565 891 OFFCURVE",
"618 821 OFFCURVE",
"653 786 CURVE",
"740 841 LINE",
"700 870 OFFCURVE",
"621 964 OFFCURVE",
"607 997 CURVE",
"607 997 OFFCURVE",
"520 997 OFFCURVE",
"520 997 CURVE",
"493 964 OFFCURVE",
"376 870 OFFCURVE",
"325 841 CURVE",
"390 786 LINE"
);
}
);
width = 817;
}
);
note = Hcircumflex;
unicode = 0124;
},
{
glyphname = Hdotbelow;
lastChange = "2015-11-29 22:57:20 +0000";
layers = (
{
layerId = "A20AAD8A-5619-416D-9D3E-77802FB4F06A";
name = "Bold Italic";
paths = (
{
closed = 1;
nodes = (
"748 0 LINE",
"751 22 LINE",
"724 33 OFFCURVE",
"702 40 OFFCURVE",
"680 45 CURVE",
"804 652 LINE",
"816 654 OFFCURVE",
"851 666 OFFCURVE",
"885 676 CURVE",
"890 700 LINE",
"549 700 LINE",
"545 678 LINE",
"571 669 OFFCURVE",
"593 661 OFFCURVE",
"613 656 CURVE",
"488 47 LINE",
"484 45 OFFCURVE",
"481 46 OFFCURVE",
"411 19 CURVE",
"407 0 LINE"
);
},
{
closed = 1;
nodes = (
"365 -195 OFFCURVE",
"399 -163 OFFCURVE",
"407 -123 CURVE SMOOTH",
"415 -83 OFFCURVE",
"395 -50 OFFCURVE",
"352 -50 CURVE SMOOTH",
"309 -50 OFFCURVE",
"276 -83 OFFCURVE",
"268 -123 CURVE SMOOTH",
"260 -163 OFFCURVE",
"279 -195 OFFCURVE",
"322 -195 CURVE SMOOTH"
);
},
{
closed = 1;
nodes = (
"316 0 LINE",
"320 22 LINE",
"294 31 OFFCURVE",
"272 39 OFFCURVE",
"252 44 CURVE",
"376 653 LINE",
"382 655 OFFCURVE",
"385 654 OFFCURVE",
"455 681 CURVE",
"459 700 LINE",
"119 700 LINE",
"115 678 LINE",
"142 667 OFFCURVE",
"163 660 OFFCURVE",
"185 655 CURVE",
"61 48 LINE",
"50 46 OFFCURVE",
"14 34 OFFCURVE",
"-19 24 CURVE",
"-23 0 LINE"
);
},
{
closed = 1;
nodes = (
"639 326 LINE",
"651 385 LINE",
"230 385 LINE",
"219 326 LINE"
);
}
);
width = 817;
}
);
note = Hdotbelow;
unicode = 1E24;
},
{
glyphname = I;
lastChange = "2015-11-29 22:57:19 +0000";
layers = (
{
layerId = "A20AAD8A-5619-416D-9D3E-77802FB4F06A";
name = "Bold Italic";
paths = (
{
closed = 1;
nodes = (
"321 0 LINE",
"325 23 LINE",
"300 31 OFFCURVE",
"273 41 OFFCURVE",
"253 45 CURVE",
"377 653 LINE",
"459 675 LINE",
"463 700 LINE",
"119 700 LINE",
"114 677 LINE",
"139 669 OFFCURVE",
"167 659 OFFCURVE",
"186 655 CURVE",
"61 47 LINE",
"-19 25 LINE",
"-23 0 LINE"
);
}
);
width = 391;
}
);
note = I;
unicode = 0049;
},
{
glyphname = IJ;
lastChange = "2015-11-29 22:57:20 +0000";
layers = (
{
layerId = "A20AAD8A-5619-416D-9D3E-77802FB4F06A";
name = "Bold Italic";
paths = (
{
closed = 1;
nodes = (
"652 -10 OFFCURVE",
"776 39 OFFCURVE",
"804 176 CURVE SMOOTH",
"901 652 LINE",
"912 654 OFFCURVE",
"947 666 OFFCURVE",
"980 676 CURVE",
"985 700 LINE",
"644 700 LINE",
"639 676 LINE",
"663 667 OFFCURVE",
"683 659 OFFCURVE",
"709 653 CURVE",
"610 165 LINE SMOOTH",
"594 89 OFFCURVE",
"546 62 OFFCURVE",
"500 62 CURVE SMOOTH",
"458 62 OFFCURVE",
"417 82 OFFCURVE",
"397 102 CURVE",
"360 54 LINE",
"397 12 OFFCURVE",
"470 -10 OFFCURVE",
"540 -10 CURVE SMOOTH"
);
},
{
closed = 1;
nodes = (
"321 0 LINE",
"325 23 LINE",
"300 31 OFFCURVE",
"273 41 OFFCURVE",
"253 45 CURVE",
"377 653 LINE",
"459 675 LINE",
"463 700 LINE",
"119 700 LINE",
"114 677 LINE",
"139 669 OFFCURVE",
"167 659 OFFCURVE",
"186 655 CURVE",
"61 47 LINE",
"-19 25 LINE",
"-23 0 LINE"
);
}
);
width = 912;
}
);
note = IJ;
rightKerningGroup = J;
unicode = 0132;
},
{
glyphname = Iacute;
lastChange = "2015-11-29 22:57:20 +0000";
layers = (
{
layerId = "A20AAD8A-5619-416D-9D3E-77802FB4F06A";
name = "Bold Italic";
paths = (
{
closed = 1;
nodes = (
"321 0 LINE",
"325 23 LINE",
"300 31 OFFCURVE",
"273 41 OFFCURVE",
"253 45 CURVE",
"377 653 LINE",
"459 675 LINE",
"463 700 LINE",
"119 700 LINE",
"114 677 LINE",
"139 669 OFFCURVE",
"167 659 OFFCURVE",
"186 655 CURVE",
"61 47 LINE",
"-19 25 LINE",
"-23 0 LINE"
);
},
{
closed = 1;
nodes = (
"396 886 LINE SMOOTH",
"437 909 OFFCURVE",
"462 931 OFFCURVE",
"469 960 CURVE",
"473 982 OFFCURVE",
"462 1011 OFFCURVE",
"421 1011 CURVE SMOOTH",
"382 1011 OFFCURVE",
"346 975 OFFCURVE",
"340 969 CURVE",
"190 830 LINE",
"211 786 LINE"
);
}
);
width = 391;
}
);
note = Iacute;
unicode = 00CD;
},
{
glyphname = Ibreve;
lastChange = "2015-11-29 22:57:21 +0000";
layers = (
{
layerId = "A20AAD8A-5619-416D-9D3E-77802FB4F06A";
name = "Bold Italic";
paths = (
{
closed = 1;
nodes = (
"321 0 LINE",
"325 23 LINE",
"300 31 OFFCURVE",
"273 41 OFFCURVE",
"253 45 CURVE",
"377 653 LINE",
"459 675 LINE",
"463 700 LINE",
"119 700 LINE",
"114 677 LINE",
"139 669 OFFCURVE",
"167 659 OFFCURVE",
"186 655 CURVE",
"61 47 LINE",
"-19 25 LINE",
"-23 0 LINE"
);
},
{
closed = 1;
nodes = (
"411 786 OFFCURVE",
"489 831 OFFCURVE",
"527 927 CURVE",
"425 927 LINE",
"404 856 OFFCURVE",
"360 847 OFFCURVE",
"320 847 CURVE SMOOTH",
"281 847 OFFCURVE",
"241 856 OFFCURVE",
"248 927 CURVE",
"148 927 LINE",
"145 831 OFFCURVE",
"205 786 OFFCURVE",
"308 786 CURVE SMOOTH"
);
}
);
width = 391;
}
);
note = Ibreve;
unicode = 012C;
},
{
glyphname = Icaron;
lastChange = "2015-11-29 22:57:19 +0000";
layers = (
{
layerId = "A20AAD8A-5619-416D-9D3E-77802FB4F06A";
name = "Bold Italic";
paths = (
{
closed = 1;
nodes = (
"321 0 LINE",
"325 23 LINE",
"300 31 OFFCURVE",
"273 41 OFFCURVE",
"253 45 CURVE",
"377 653 LINE",
"459 675 LINE",
"463 700 LINE",
"119 700 LINE",
"114 677 LINE",
"139 669 OFFCURVE",
"167 659 OFFCURVE",
"186 655 CURVE",
"61 47 LINE",
"-19 25 LINE",
"-23 0 LINE"
);
},
{
closed = 1;
nodes = (
"265 786 OFFCURVE",
"352 786 OFFCURVE",
"352 786 CURVE",
"379 819 OFFCURVE",
"497 913 OFFCURVE",
"548 942 CURVE",
"483 997 LINE",
"434 962 OFFCURVE",
"352 892 OFFCURVE",
"323 855 CURVE",
"323 855 OFFCURVE",
"320 855 OFFCURVE",
"320 855 CURVE",
"307 892 OFFCURVE",
"254 962 OFFCURVE",
"219 997 CURVE",
"133 942 LINE",
"172 913 OFFCURVE",
"251 819 OFFCURVE",
"265 786 CURVE"
);
}
);
width = 391;
}
);
note = Icaron;
unicode = 01CF;
},
{
glyphname = Icircumflex;
lastChange = "2015-11-29 22:57:21 +0000";
layers = (
{
layerId = "A20AAD8A-5619-416D-9D3E-77802FB4F06A";
name = "Bold Italic";
paths = (
{
closed = 1;
nodes = (
"321 0 LINE",
"325 23 LINE",
"300 31 OFFCURVE",
"273 41 OFFCURVE",
"253 45 CURVE",
"377 653 LINE",
"459 675 LINE",
"463 700 LINE",
"119 700 LINE",
"114 677 LINE",
"139 669 OFFCURVE",
"167 659 OFFCURVE",
"186 655 CURVE",
"61 47 LINE",
"-19 25 LINE",
"-23 0 LINE"
);
},
{
closed = 1;
nodes = (
"225 821 OFFCURVE",
"307 891 OFFCURVE",
"336 928 CURVE",
"336 928 OFFCURVE",
"339 928 OFFCURVE",
"339 928 CURVE",
"352 891 OFFCURVE",
"405 821 OFFCURVE",
"440 786 CURVE",
"527 841 LINE",
"487 870 OFFCURVE",
"408 964 OFFCURVE",
"394 997 CURVE",
"394 997 OFFCURVE",
"307 997 OFFCURVE",
"307 997 CURVE",
"280 964 OFFCURVE",
"163 870 OFFCURVE",
"112 841 CURVE",
"177 786 LINE"
);
}
);
width = 391;
}
);
note = Icircumflex;
unicode = 00CE;
},
{
glyphname = Idieresis;
lastChange = "2015-11-29 22:57:19 +0000";
layers = (
{
layerId = "A20AAD8A-5619-416D-9D3E-77802FB4F06A";
name = "Bold Italic";
paths = (
{
closed = 1;
nodes = (
"321 0 LINE",
"325 23 LINE",
"300 31 OFFCURVE",
"273 41 OFFCURVE",
"253 45 CURVE",
"377 653 LINE",
"459 675 LINE",
"463 700 LINE",
"119 700 LINE",
"114 677 LINE",
"139 669 OFFCURVE",
"167 659 OFFCURVE",
"186 655 CURVE",
"61 47 LINE",
"-19 25 LINE",
"-23 0 LINE"
);
},
{
closed = 1;
nodes = (
"229 786 OFFCURVE",
"262 818 OFFCURVE",
"270 858 CURVE SMOOTH",
"278 898 OFFCURVE",
"258 931 OFFCURVE",
"215 931 CURVE SMOOTH",
"172 931 OFFCURVE",
"140 898 OFFCURVE",
"132 858 CURVE SMOOTH",
"124 818 OFFCURVE",
"144 786 OFFCURVE",
"187 786 CURVE SMOOTH"
);
},
{
closed = 1;
nodes = (
"472 786 OFFCURVE",
"505 818 OFFCURVE",
"513 858 CURVE SMOOTH",
"521 898 OFFCURVE",
"501 931 OFFCURVE",
"458 931 CURVE SMOOTH",
"414 931 OFFCURVE",
"382 898 OFFCURVE",
"374 858 CURVE SMOOTH",
"365 818 OFFCURVE",
"386 786 OFFCURVE",
"429 786 CURVE SMOOTH"
);
}
);
width = 391;
}
);
note = Idieresis;
unicode = 00CF;
},
{
glyphname = Idotaccent;
lastChange = "2015-11-29 22:57:18 +0000";
layers = (
{
layerId = "A20AAD8A-5619-416D-9D3E-77802FB4F06A";
name = "Bold Italic";
paths = (
{
closed = 1;
nodes = (
"321 0 LINE",
"325 23 LINE",
"300 31 OFFCURVE",
"273 41 OFFCURVE",
"253 45 CURVE",
"377 653 LINE",
"459 675 LINE",
"463 700 LINE",
"119 700 LINE",
"114 677 LINE",
"139 669 OFFCURVE",
"167 659 OFFCURVE",
"186 655 CURVE",
"61 47 LINE",
"-19 25 LINE",
"-23 0 LINE"
);
},
{
closed = 1;
nodes = (
"349 786 OFFCURVE",
"382 818 OFFCURVE",
"390 858 CURVE SMOOTH",
"398 898 OFFCURVE",
"378 931 OFFCURVE",
"335 931 CURVE SMOOTH",
"292 931 OFFCURVE",
"259 898 OFFCURVE",
"251 858 CURVE SMOOTH",
"243 818 OFFCURVE",
"263 786 OFFCURVE",
"306 786 CURVE SMOOTH"
);
}
);
width = 391;
}
);
note = Idotaccent;
unicode = 0130;
},
{
glyphname = Idotbelow;
lastChange = "2015-11-29 22:57:20 +0000";
layers = (
{
layerId = "A20AAD8A-5619-416D-9D3E-77802FB4F06A";
name = "Bold Italic";
paths = (
{
closed = 1;
nodes = (
"321 0 LINE",
"325 23 LINE",
"300 31 OFFCURVE",
"273 41 OFFCURVE",
"253 45 CURVE",
"377 653 LINE",
"459 675 LINE",
"463 700 LINE",
"119 700 LINE",
"114 677 LINE",
"139 669 OFFCURVE",
"167 659 OFFCURVE",
"186 655 CURVE",
"61 47 LINE",
"-19 25 LINE",
"-23 0 LINE"
);
},
{
closed = 1;
nodes = (
"152 -195 OFFCURVE",
"186 -163 OFFCURVE",
"194 -123 CURVE SMOOTH",
"202 -83 OFFCURVE",
"182 -50 OFFCURVE",
"139 -50 CURVE SMOOTH",
"96 -50 OFFCURVE",
"63 -83 OFFCURVE",
"54 -123 CURVE SMOOTH",
"47 -163 OFFCURVE",
"66 -195 OFFCURVE",
"109 -195 CURVE SMOOTH"
);
}
);
width = 391;
}
);
note = Idotbelow;
unicode = 1ECA;
},
{
glyphname = Igrave;
lastChange = "2015-11-29 22:57:18 +0000";
layers = (
{
layerId = "A20AAD8A-5619-416D-9D3E-77802FB4F06A";
name = "Bold Italic";
paths = (
{
closed = 1;
nodes = (
"321 0 LINE",
"325 23 LINE",
"300 31 OFFCURVE",
"273 41 OFFCURVE",
"253 45 CURVE",
"377 653 LINE",
"459 675 LINE",
"463 700 LINE",
"119 700 LINE",
"114 677 LINE",
"139 669 OFFCURVE",
"167 659 OFFCURVE",
"186 655 CURVE",
"61 47 LINE",
"-19 25 LINE",
"-23 0 LINE"
);
},
{
closed = 1;
nodes = (
"443 830 LINE",
"350 969 LINE SMOOTH",
"346 975 OFFCURVE",
"324 1011 OFFCURVE",
"285 1011 CURVE SMOOTH",
"243 1011 OFFCURVE",
"220 982 OFFCURVE",
"217 960 CURVE",
"210 931 OFFCURVE",
"227 909 OFFCURVE",
"260 886 CURVE SMOOTH",
"405 786 LINE"
);
}
);
width = 391;
}
);
note = Igrave;
unicode = 00CC;
},
{
glyphname = Ihookabove;
lastChange = "2015-11-29 22:57:19 +0000";
layers = (
{
layerId = "A20AAD8A-5619-416D-9D3E-77802FB4F06A";
name = "Bold Italic";
paths = (
{
closed = 1;
nodes = (
"321 0 LINE",
"325 23 LINE",
"300 31 OFFCURVE",
"273 41 OFFCURVE",
"253 45 CURVE",
"377 653 LINE",
"459 675 LINE",
"463 700 LINE",
"119 700 LINE",
"114 677 LINE",
"139 669 OFFCURVE",
"167 659 OFFCURVE",
"186 655 CURVE",
"61 47 LINE",
"-19 25 LINE",
"-23 0 LINE"
);
},
{
closed = 1;
nodes = (
"353 786 LINE",
"377 859 LINE",
"431 864 OFFCURVE",
"480 883 OFFCURVE",
"494 951 CURVE SMOOTH",
"508 1025 OFFCURVE",
"448 1051 OFFCURVE",
"384 1051 CURVE SMOOTH",
"350 1051 OFFCURVE",
"316 1043 OFFCURVE",
"292 1032 CURVE",
"289 987 LINE",
"312 999 OFFCURVE",
"337 1003 OFFCURVE",
"354 1003 CURVE SMOOTH",
"395 1003 OFFCURVE",
"411 978 OFFCURVE",
"406 952 CURVE SMOOTH",
"397 910 OFFCURVE",
"362 900 OFFCURVE",
"341 900 CURVE SMOOTH",
"296 900 LINE",
"278 786 LINE"
);
}
);
width = 391;
}
);
note = Ihookabove;
unicode = 1EC8;
},
{
glyphname = Imacron;
lastChange = "2015-11-29 22:57:21 +0000";
layers = (
{
layerId = "A20AAD8A-5619-416D-9D3E-77802FB4F06A";
name = "Bold Italic";
paths = (
{
closed = 1;
nodes = (
"321 0 LINE",
"325 23 LINE",
"300 31 OFFCURVE",
"273 41 OFFCURVE",
"253 45 CURVE",
"377 653 LINE",
"459 675 LINE",
"463 700 LINE",
"119 700 LINE",
"114 677 LINE",
"139 669 OFFCURVE",
"167 659 OFFCURVE",
"186 655 CURVE",
"61 47 LINE",
"-19 25 LINE",
"-23 0 LINE"
);
},
{
closed = 1;
nodes = (
"547 785 LINE",
"559 843 LINE",
"104 843 LINE",
"92 785 LINE"
);
}
);
width = 391;
}
);
note = Imacron;
unicode = 012A;
},
{
glyphname = Iogonek;
lastChange = "2015-11-29 22:57:20 +0000";
layers = (
{
layerId = "A20AAD8A-5619-416D-9D3E-77802FB4F06A";
name = "Bold Italic";
paths = (
{
closed = 1;
nodes = (
"321 0 LINE",
"325 23 LINE",
"300 31 OFFCURVE",
"273 41 OFFCURVE",
"253 45 CURVE",
"377 653 LINE",
"459 675 LINE",
"463 700 LINE",
"119 700 LINE",
"114 677 LINE",
"139 669 OFFCURVE",
"167 659 OFFCURVE",
"186 655 CURVE",
"61 47 LINE",
"-19 25 LINE",
"-23 0 LINE"
);
},
{
closed = 1;
nodes = (
"279 -218 OFFCURVE",
"332 -206 OFFCURVE",
"362 -186 CURVE",
"377 -109 LINE",
"346 -127 OFFCURVE",
"319 -134 OFFCURVE",
"300 -134 CURVE SMOOTH",
"264 -134 OFFCURVE",
"246 -110 OFFCURVE",
"252 -82 CURVE SMOOTH",
"258 -52 OFFCURVE",
"289 -17 OFFCURVE",
"311 0 CURVE",
"226 0 LINE",
"160 -17 OFFCURVE",
"113 -76 OFFCURVE",
"104 -122 CURVE SMOOTH",
"91 -184 OFFCURVE",
"139 -218 OFFCURVE",
"230 -218 CURVE SMOOTH"
);
}
);
width = 391;
}
);
note = Iogonek;
unicode = 012E;
},
{
glyphname = Itilde;
lastChange = "2015-11-29 22:57:20 +0000";
layers = (
{
layerId = "A20AAD8A-5619-416D-9D3E-77802FB4F06A";
name = "Bold Italic";
paths = (
{
closed = 1;
nodes = (
"321 0 LINE",
"325 23 LINE",
"300 31 OFFCURVE",
"273 41 OFFCURVE",
"253 45 CURVE",
"377 653 LINE",
"459 675 LINE",
"463 700 LINE",
"119 700 LINE",
"114 677 LINE",
"139 669 OFFCURVE",
"167 659 OFFCURVE",
"186 655 CURVE",
"61 47 LINE",
"-19 25 LINE",
"-23 0 LINE"
);
},
{
closed = 1;
nodes = (
"185 786 LINE",
"196 817 OFFCURVE",
"216 836 OFFCURVE",
"244 836 CURVE SMOOTH",
"276 836 OFFCURVE",
"330 786 OFFCURVE",
"391 786 CURVE SMOOTH",
"478 786 OFFCURVE",
"526 839 OFFCURVE",
"548 915 CURVE",
"460 915 LINE",
"439 867 OFFCURVE",
"417 864 OFFCURVE",
"396 864 CURVE SMOOTH",
"357 864 OFFCURVE",
"332 914 OFFCURVE",
"254 914 CURVE SMOOTH",
"178 914 OFFCURVE",
"124 869 OFFCURVE",
"96 786 CURVE"
);
}
);
width = 391;
}
);
note = Itilde;
unicode = 0128;
},
{
glyphname = J;
lastChange = "2015-11-29 22:57:21 +0000";
layers = (
{
layerId = "A20AAD8A-5619-416D-9D3E-77802FB4F06A";
name = "Bold Italic";
paths = (
{
closed = 1;
nodes = (
"271 -10 OFFCURVE",
"396 39 OFFCURVE",
"424 176 CURVE SMOOTH",
"521 652 LINE",
"532 654 OFFCURVE",
"567 666 OFFCURVE",
"600 676 CURVE",
"604 700 LINE",
"264 700 LINE",
"259 676 LINE",
"283 667 OFFCURVE",
"303 659 OFFCURVE",
"329 653 CURVE",
"230 165 LINE SMOOTH",
"214 89 OFFCURVE",
"166 62 OFFCURVE",
"120 62 CURVE SMOOTH",
"77 62 OFFCURVE",
"37 82 OFFCURVE",
"17 102 CURVE",
"-20 54 LINE",
"17 12 OFFCURVE",
"90 -10 OFFCURVE",
"160 -10 CURVE SMOOTH"
);
}
);
width = 532;
}
);
leftKerningGroup = J;
note = J;
rightKerningGroup = J;
unicode = 004A;
},
{
glyphname = Jcircumflex;
lastChange = "2015-11-29 22:57:21 +0000";
layers = (
{
layerId = "A20AAD8A-5619-416D-9D3E-77802FB4F06A";
name = "Bold Italic";
paths = (
{
closed = 1;
nodes = (
"271 -10 OFFCURVE",
"396 39 OFFCURVE",
"424 176 CURVE SMOOTH",
"521 652 LINE",
"532 654 OFFCURVE",
"567 666 OFFCURVE",
"600 676 CURVE",
"604 700 LINE",
"264 700 LINE",
"259 676 LINE",
"283 667 OFFCURVE",
"303 659 OFFCURVE",
"329 653 CURVE",
"230 165 LINE SMOOTH",
"214 89 OFFCURVE",
"166 62 OFFCURVE",
"120 62 CURVE SMOOTH",
"77 62 OFFCURVE",
"37 82 OFFCURVE",
"17 102 CURVE",
"-20 54 LINE",
"17 12 OFFCURVE",
"90 -10 OFFCURVE",
"160 -10 CURVE SMOOTH"
);
},
{
closed = 1;
nodes = (
"368 821 OFFCURVE",
"450 891 OFFCURVE",
"479 928 CURVE",
"479 928 OFFCURVE",
"482 928 OFFCURVE",
"482 928 CURVE",
"495 891 OFFCURVE",
"548 821 OFFCURVE",
"583 786 CURVE",
"670 841 LINE",
"630 870 OFFCURVE",
"551 964 OFFCURVE",
"537 997 CURVE",
"537 997 OFFCURVE",
"450 997 OFFCURVE",
"450 997 CURVE",
"423 964 OFFCURVE",
"306 870 OFFCURVE",
"255 841 CURVE",
"320 786 LINE"
);
}
);
width = 532;
}
);
leftKerningGroup = J;
note = Jcircumflex;
rightKerningGroup = J;
unicode = 0134;
},
{
glyphname = K;
lastChange = "2015-11-29 22:57:20 +0000";
layers = (
{
layerId = "A20AAD8A-5619-416D-9D3E-77802FB4F06A";
name = "Bold Italic";
paths = (
{
closed = 1;
nodes = (
"320 0 LINE",
"324 23 LINE",
"300 31 OFFCURVE",
"273 41 OFFCURVE",
"253 45 CURVE",
"377 653 LINE",
"458 675 LINE",
"462 700 LINE",
"119 700 LINE",
"115 678 LINE",
"140 668 OFFCURVE",
"166 660 OFFCURVE",
"186 655 CURVE",
"61 47 LINE",
"61 47 OFFCURVE",
"11 33 OFFCURVE",
"-19 25 CURVE",
"-23 0 LINE"
);
},
{
closed = 1;
nodes = (
"768 0 LINE",
"772 23 LINE",
"739 34 OFFCURVE",
"712 41 OFFCURVE",
"690 46 CURVE",
"493 448 LINE",
"357 329 LINE",
"514 0 LINE"
);
},
{
closed = 1;
nodes = (
"749 641 LINE SMOOTH",
"772 661 OFFCURVE",
"808 661 OFFCURVE",
"835 669 CURVE",
"841 700 LINE",
"598 700 LINE",
"592 669 LINE",
"669 654 LINE",
"236 274 LINE",
"215 171 LINE"
);
}
);
width = 817;
}
);
note = K;
rightKerningGroup = K;
unicode = 004B;
},
{
glyphname = Kcommaaccent;
lastChange = "2015-11-29 22:57:19 +0000";
layers = (
{
layerId = "A20AAD8A-5619-416D-9D3E-77802FB4F06A";
name = "Bold Italic";
paths = (
{
closed = 1;
nodes = (
"320 0 LINE",
"324 23 LINE",
"300 31 OFFCURVE",
"273 41 OFFCURVE",
"253 45 CURVE",
"377 653 LINE",
"458 675 LINE",
"462 700 LINE",
"119 700 LINE",
"115 678 LINE",
"140 668 OFFCURVE",
"166 660 OFFCURVE",
"186 655 CURVE",
"61 47 LINE",
"61 47 OFFCURVE",
"11 33 OFFCURVE",
"-19 25 CURVE",
"-23 0 LINE"
);
},
{
closed = 1;
nodes = (
"336 -356 OFFCURVE",
"404 -264 OFFCURVE",
"423 -174 CURVE SMOOTH",
"432 -130 OFFCURVE",
"412 -89 OFFCURVE",
"352 -89 CURVE SMOOTH",
"308 -89 OFFCURVE",
"263 -119 OFFCURVE",
"253 -168 CURVE SMOOTH",
"244 -209 OFFCURVE",
"272 -246 OFFCURVE",
"313 -251 CURVE",
"294 -297 OFFCURVE",
"243 -344 OFFCURVE",
"214 -368 CURVE",
"262 -412 LINE"
);
},
{
closed = 1;
nodes = (
"768 0 LINE",
"772 23 LINE",
"739 34 OFFCURVE",
"712 41 OFFCURVE",
"690 46 CURVE",
"493 448 LINE",
"357 329 LINE",
"514 0 LINE"
);
},
{
closed = 1;
nodes = (
"749 641 LINE SMOOTH",
"772 661 OFFCURVE",
"808 661 OFFCURVE",
"835 669 CURVE",
"841 700 LINE",
"598 700 LINE",
"592 669 LINE",
"669 654 LINE",
"236 274 LINE",
"215 171 LINE"
);
}
);
width = 817;
}
);
note = Kcommaaccent;
rightKerningGroup = K;
unicode = 0136;
},
{
glyphname = L;
lastChange = "2015-11-29 22:57:20 +0000";
layers = (
{
layerId = "A20AAD8A-5619-416D-9D3E-77802FB4F06A";
name = "Bold Italic";
paths = (
{
closed = 1;
nodes = (
"565 0 LINE",
"625 196 LINE",
"584 196 LINE",
"560 174 OFFCURVE",
"511 99 OFFCURVE",
"500 59 CURVE",
"265 59 LINE",
"386 653 LINE",
"466 675 LINE",
"471 700 LINE",
"127 700 LINE",
"124 678 LINE",
"148 668 OFFCURVE",
"173 660 OFFCURVE",
"195 655 CURVE",
"195 655 OFFCURVE",
"70 45 OFFCURVE",
"70 45 CURVE",
"47 41 OFFCURVE",
"13 33 OFFCURVE",
"-20 22 CURVE",
"-23 0 LINE"
);
}
);
width = 664;
}
);
note = L;
rightKerningGroup = L;
unicode = 004C;
},
{
glyphname = Lacute;
lastChange = "2015-11-29 22:57:20 +0000";
layers = (
{
layerId = "A20AAD8A-5619-416D-9D3E-77802FB4F06A";
name = "Bold Italic";
paths = (
{
closed = 1;
nodes = (
"565 0 LINE",
"625 196 LINE",
"584 196 LINE",
"560 174 OFFCURVE",
"511 99 OFFCURVE",
"500 59 CURVE",
"265 59 LINE",
"386 653 LINE",
"466 675 LINE",
"471 700 LINE",
"127 700 LINE",
"124 678 LINE",
"148 668 OFFCURVE",
"173 660 OFFCURVE",
"195 655 CURVE",
"195 655 OFFCURVE",
"70 45 OFFCURVE",
"70 45 CURVE",
"47 41 OFFCURVE",
"13 33 OFFCURVE",
"-20 22 CURVE",
"-23 0 LINE"
);
},
{
closed = 1;
nodes = (
"419 886 LINE SMOOTH",
"460 909 OFFCURVE",
"485 931 OFFCURVE",
"492 960 CURVE",
"496 982 OFFCURVE",
"485 1011 OFFCURVE",
"444 1011 CURVE SMOOTH",
"405 1011 OFFCURVE",
"369 975 OFFCURVE",
"364 969 CURVE",
"213 830 LINE",
"234 786 LINE"
);
}
);
width = 664;
}
);
note = Lacute;
rightKerningGroup = L;
unicode = 0139;
},
{
glyphname = Lcaron;
lastChange = "2015-11-29 22:57:20 +0000";
layers = (
{
layerId = "A20AAD8A-5619-416D-9D3E-77802FB4F06A";
name = "Bold Italic";
paths = (
{
closed = 1;
nodes = (
"565 0 LINE",
"625 196 LINE",
"584 196 LINE",
"560 174 OFFCURVE",
"511 99 OFFCURVE",
"500 59 CURVE",
"265 59 LINE",
"386 653 LINE",
"466 675 LINE",
"471 700 LINE",
"127 700 LINE",
"124 678 LINE",
"148 668 OFFCURVE",
"173 660 OFFCURVE",
"195 655 CURVE",
"195 655 OFFCURVE",
"70 45 OFFCURVE",
"70 45 CURVE",
"47 41 OFFCURVE",
"13 33 OFFCURVE",
"-20 22 CURVE",
"-23 0 LINE"
);
},
{
closed = 1;
nodes = (
"617 429 OFFCURVE",
"691 522 OFFCURVE",
"710 612 CURVE SMOOTH",
"719 656 OFFCURVE",
"705 710 OFFCURVE",
"635 710 CURVE SMOOTH",
"576 710 OFFCURVE",
"539 664 OFFCURVE",
"529 615 CURVE SMOOTH",
"521 574 OFFCURVE",
"542 534 OFFCURVE",
"594 534 CURVE",
"576 488 OFFCURVE",
"524 441 OFFCURVE",
"495 417 CURVE",
"543 373 LINE"
);
}
);
width = 664;
}
);
note = Lcaron;
rightKerningGroup = L;
unicode = 013D;
},
{
glyphname = Lcommaaccent;
lastChange = "2015-11-29 22:57:19 +0000";
layers = (
{
layerId = "A20AAD8A-5619-416D-9D3E-77802FB4F06A";
name = "Bold Italic";
paths = (
{
closed = 1;
nodes = (
"565 0 LINE",
"625 196 LINE",
"584 196 LINE",
"560 174 OFFCURVE",
"511 99 OFFCURVE",
"500 59 CURVE",
"265 59 LINE",
"386 653 LINE",
"466 675 LINE",
"471 700 LINE",
"127 700 LINE",
"124 678 LINE",
"148 668 OFFCURVE",
"173 660 OFFCURVE",
"195 655 CURVE",
"195 655 OFFCURVE",
"70 45 OFFCURVE",
"70 45 CURVE",
"47 41 OFFCURVE",
"13 33 OFFCURVE",
"-20 22 CURVE",
"-23 0 LINE"
);
},
{
closed = 1;
nodes = (
"259 -356 OFFCURVE",
"327 -264 OFFCURVE",
"346 -174 CURVE SMOOTH",
"355 -130 OFFCURVE",
"335 -89 OFFCURVE",
"275 -89 CURVE SMOOTH",
"231 -89 OFFCURVE",
"186 -119 OFFCURVE",
"176 -168 CURVE SMOOTH",
"168 -209 OFFCURVE",
"196 -246 OFFCURVE",
"236 -251 CURVE",
"218 -297 OFFCURVE",
"166 -344 OFFCURVE",
"137 -368 CURVE",
"185 -412 LINE"
);
}
);
width = 664;
}
);
note = Lcommaaccent;
rightKerningGroup = L;
unicode = 013B;
},
{
glyphname = Ldot;
lastChange = "2015-11-29 22:57:19 +0000";
layers = (
{
layerId = "A20AAD8A-5619-416D-9D3E-77802FB4F06A";
name = "Bold Italic";
paths = (
{
closed = 1;
nodes = (
"565 0 LINE",
"625 196 LINE",
"584 196 LINE",
"560 174 OFFCURVE",
"511 99 OFFCURVE",
"500 59 CURVE",
"265 59 LINE",
"386 653 LINE",
"466 675 LINE",
"471 700 LINE",
"127 700 LINE",
"124 678 LINE",
"148 668 OFFCURVE",
"173 660 OFFCURVE",
"195 655 CURVE",
"195 655 OFFCURVE",
"70 45 OFFCURVE",
"70 45 CURVE",
"47 41 OFFCURVE",
"13 33 OFFCURVE",
"-20 22 CURVE",
"-23 0 LINE"
);
},
{
closed = 1;
nodes = (
"549 325 OFFCURVE",
"582 357 OFFCURVE",
"591 397 CURVE SMOOTH",
"599 437 OFFCURVE",
"579 470 OFFCURVE",
"535 470 CURVE SMOOTH",
"492 470 OFFCURVE",
"460 437 OFFCURVE",
"452 397 CURVE SMOOTH",
"443 357 OFFCURVE",
"462 325 OFFCURVE",
"506 325 CURVE SMOOTH"
);
}
);
width = 664;
}
);
note = Ldot;
rightKerningGroup = L;
unicode = 013F;
},
{
glyphname = Ldotbelow;
lastChange = "2015-11-29 22:57:18 +0000";
layers = (
{
layerId = "A20AAD8A-5619-416D-9D3E-77802FB4F06A";
name = "Bold Italic";
paths = (
{
closed = 1;
nodes = (
"565 0 LINE",
"625 196 LINE",
"584 196 LINE",
"560 174 OFFCURVE",
"511 99 OFFCURVE",
"500 59 CURVE",
"265 59 LINE",
"386 653 LINE",
"466 675 LINE",
"471 700 LINE",
"127 700 LINE",
"124 678 LINE",
"148 668 OFFCURVE",
"173 660 OFFCURVE",
"195 655 CURVE",
"195 655 OFFCURVE",
"70 45 OFFCURVE",
"70 45 CURVE",
"47 41 OFFCURVE",
"13 33 OFFCURVE",
"-20 22 CURVE",
"-23 0 LINE"
);
},
{
closed = 1;
nodes = (
"289 -195 OFFCURVE",
"322 -163 OFFCURVE",
"330 -123 CURVE SMOOTH",
"339 -83 OFFCURVE",
"318 -50 OFFCURVE",
"275 -50 CURVE SMOOTH",
"232 -50 OFFCURVE",
"199 -83 OFFCURVE",
"191 -123 CURVE SMOOTH",
"183 -163 OFFCURVE",
"202 -195 OFFCURVE",
"245 -195 CURVE SMOOTH"
);
}
);
width = 664;
}
);
note = Ldotbelow;
rightKerningGroup = L;
unicode = 1E36;
},
{
glyphname = Ldotbelowmacron;
lastChange = "2015-11-29 22:57:19 +0000";
layers = (
{
layerId = "A20AAD8A-5619-416D-9D3E-77802FB4F06A";
name = "Bold Italic";
paths = (
{
closed = 1;
nodes = (
"565 0 LINE",
"625 196 LINE",
"584 196 LINE",
"560 174 OFFCURVE",
"511 99 OFFCURVE",
"500 59 CURVE",
"265 59 LINE",
"386 653 LINE",
"466 675 LINE",
"471 700 LINE",
"127 700 LINE",
"124 678 LINE",
"148 668 OFFCURVE",
"173 660 OFFCURVE",
"195 655 CURVE",
"195 655 OFFCURVE",
"70 45 OFFCURVE",
"70 45 CURVE",
"47 41 OFFCURVE",
"13 33 OFFCURVE",
"-20 22 CURVE",
"-23 0 LINE"
);
},
{
closed = 1;
nodes = (
"289 -195 OFFCURVE",
"322 -163 OFFCURVE",
"330 -123 CURVE SMOOTH",
"339 -83 OFFCURVE",
"318 -50 OFFCURVE",
"275 -50 CURVE SMOOTH",
"232 -50 OFFCURVE",
"199 -83 OFFCURVE",
"191 -123 CURVE SMOOTH",
"183 -163 OFFCURVE",
"202 -195 OFFCURVE",
"245 -195 CURVE SMOOTH"
);
},
{
closed = 1;
nodes = (
"519 785 LINE",
"531 842 LINE",
"121 842 LINE",
"109 785 LINE"
);
}
);
width = 664;
}
);
note = Ldotbelowmacron;
rightKerningGroup = L;
unicode = 1E38;
},
{
glyphname = Llinebelow;
lastChange = "2015-11-29 22:57:20 +0000";
layers = (
{
layerId = "A20AAD8A-5619-416D-9D3E-77802FB4F06A";
name = "Bold Italic";
paths = (
{
closed = 1;
nodes = (
"565 0 LINE",
"625 196 LINE",
"584 196 LINE",
"560 174 OFFCURVE",
"511 99 OFFCURVE",
"500 59 CURVE",
"265 59 LINE",
"386 653 LINE",
"466 675 LINE",
"471 700 LINE",
"127 700 LINE",
"124 678 LINE",
"148 668 OFFCURVE",
"173 660 OFFCURVE",
"195 655 CURVE",
"195 655 OFFCURVE",
"70 45 OFFCURVE",
"70 45 CURVE",
"47 41 OFFCURVE",
"13 33 OFFCURVE",
"-20 22 CURVE",
"-23 0 LINE"
);
},
{
closed = 1;
nodes = (
"461 -112 LINE",
"473 -55 LINE",
"63 -55 LINE",
"52 -112 LINE"
);
}
);
width = 664;
}
);
note = Llinebelow;
rightKerningGroup = L;
unicode = 1E3A;
},
{
glyphname = Lslash;
lastChange = "2015-11-29 22:57:21 +0000";
layers = (
{
layerId = "A20AAD8A-5619-416D-9D3E-77802FB4F06A";
name = "Bold Italic";
paths = (
{
closed = 1;
nodes = (
"565 0 LINE",
"625 196 LINE",
"584 196 LINE",
"560 174 OFFCURVE",
"511 99 OFFCURVE",
"500 59 CURVE",
"265 59 LINE",
"386 653 LINE",
"466 675 LINE",
"471 700 LINE",
"127 700 LINE",
"124 678 LINE",
"148 668 OFFCURVE",
"173 660 OFFCURVE",
"195 655 CURVE",
"195 655 OFFCURVE",
"70 45 OFFCURVE",
"70 45 CURVE",
"47 41 OFFCURVE",
"13 33 OFFCURVE",
"-20 22 CURVE",
"-23 0 LINE"
);
},
{
closed = 1;
nodes = (
"511 374 LINE",
"528 455 LINE",
"52 291 LINE",
"35 210 LINE"
);
}
);
width = 664;
}
);
note = Lslash;
rightKerningGroup = L;
unicode = 0141;
},
{
glyphname = M;
lastChange = "2015-11-29 22:57:20 +0000";
layers = (
{
layerId = "A20AAD8A-5619-416D-9D3E-77802FB4F06A";
name = "Bold Italic";
paths = (
{
closed = 1;
nodes = (
"198 0 LINE",
"202 22 LINE",
"175 31 OFFCURVE",
"154 38 OFFCURVE",
"132 44 CURVE",
"239 565 LINE",
"330 75 LINE",
"441 75 LINE",
"735 549 LINE",
"632 44 LINE",
"608 38 OFFCURVE",
"583 31 OFFCURVE",
"553 22 CURVE",
"549 0 LINE",
"891 0 LINE",
"894 22 LINE",
"868 31 OFFCURVE",
"846 38 OFFCURVE",
"824 44 CURVE",
"948 652 LINE",
"1029 678 LINE",
"1033 700 LINE",
"762 700 LINE",
"466 219 LINE",
"388 700 LINE",
"119 700 LINE",
"115 678 LINE",
"140 668 OFFCURVE",
"166 660 OFFCURVE",
"186 655 CURVE",
"61 44 LINE",
"37 38 OFFCURVE",
"12 31 OFFCURVE",
"-19 22 CURVE",
"-22 0 LINE"
);
}
);
width = 960;
}
);
note = M;
unicode = 004D;
},
{
glyphname = Mdotbelow;
lastChange = "2015-11-29 22:57:20 +0000";
layers = (
{
layerId = "A20AAD8A-5619-416D-9D3E-77802FB4F06A";
name = "Bold Italic";
paths = (
{
closed = 1;
nodes = (
"198 0 LINE",
"202 22 LINE",
"175 31 OFFCURVE",
"154 38 OFFCURVE",
"132 44 CURVE",
"239 565 LINE",
"330 75 LINE",
"441 75 LINE",
"735 549 LINE",
"632 44 LINE",
"608 38 OFFCURVE",
"583 31 OFFCURVE",
"553 22 CURVE",
"549 0 LINE",
"891 0 LINE",
"894 22 LINE",
"868 31 OFFCURVE",
"846 38 OFFCURVE",
"824 44 CURVE",
"948 652 LINE",
"1029 678 LINE",
"1033 700 LINE",
"762 700 LINE",
"466 219 LINE",
"388 700 LINE",
"119 700 LINE",
"115 678 LINE",
"140 668 OFFCURVE",
"166 660 OFFCURVE",
"186 655 CURVE",
"61 44 LINE",
"37 38 OFFCURVE",
"12 31 OFFCURVE",
"-19 22 CURVE",
"-22 0 LINE"
);
},
{
closed = 1;
nodes = (
"436 -195 OFFCURVE",
"470 -163 OFFCURVE",
"478 -123 CURVE SMOOTH",
"486 -83 OFFCURVE",
"466 -50 OFFCURVE",
"423 -50 CURVE SMOOTH",
"380 -50 OFFCURVE",
"347 -83 OFFCURVE",
"339 -123 CURVE SMOOTH",
"331 -163 OFFCURVE",
"350 -195 OFFCURVE",
"393 -195 CURVE SMOOTH"
);
}
);
width = 960;
}
);
note = Mdotbelow;
unicode = 1E42;
},
{
glyphname = N;
lastChange = "2015-11-29 22:57:19 +0000";
layers = (
{
layerId = "A20AAD8A-5619-416D-9D3E-77802FB4F06A";
name = "Bold Italic";
paths = (
{
closed = 1;
nodes = (
"198 0 LINE",
"202 22 LINE",
"175 31 OFFCURVE",
"154 38 OFFCURVE",
"132 44 CURVE",
"245 602 LINE",
"523 0 LINE",
"616 0 LINE",
"749 656 LINE",
"773 662 OFFCURVE",
"798 669 OFFCURVE",
"829 678 CURVE",
"833 700 LINE",
"612 700 LINE",
"608 678 LINE",
"635 669 OFFCURVE",
"656 662 OFFCURVE",
"678 656 CURVE",
"593 237 LINE",
"381 700 LINE",
"119 700 LINE",
"115 678 LINE",
"140 668 OFFCURVE",
"165 660 OFFCURVE",
"186 655 CURVE",
"61 44 LINE",
"37 38 OFFCURVE",
"12 31 OFFCURVE",
"-19 22 CURVE",
"-22 0 LINE"
);
}
);
width = 760;
}
);
note = N;
unicode = 004E;
},
{
glyphname = Nacute;
lastChange = "2015-11-29 22:57:19 +0000";
layers = (
{
layerId = "A20AAD8A-5619-416D-9D3E-77802FB4F06A";
name = "Bold Italic";
paths = (
{
closed = 1;
nodes = (
"198 0 LINE",
"202 22 LINE",
"175 31 OFFCURVE",
"154 38 OFFCURVE",
"132 44 CURVE",
"245 602 LINE",
"523 0 LINE",
"616 0 LINE",
"749 656 LINE",
"773 662 OFFCURVE",
"798 669 OFFCURVE",
"829 678 CURVE",
"833 700 LINE",
"612 700 LINE",
"608 678 LINE",
"635 669 OFFCURVE",
"656 662 OFFCURVE",
"678 656 CURVE",
"593 237 LINE",
"381 700 LINE",
"119 700 LINE",
"115 678 LINE",
"140 668 OFFCURVE",
"165 660 OFFCURVE",
"186 655 CURVE",
"61 44 LINE",
"37 38 OFFCURVE",
"12 31 OFFCURVE",
"-19 22 CURVE",
"-22 0 LINE"
);
},
{
closed = 1;
nodes = (
"627 886 LINE SMOOTH",
"668 909 OFFCURVE",
"693 931 OFFCURVE",
"700 960 CURVE",
"703 982 OFFCURVE",
"693 1011 OFFCURVE",
"652 1011 CURVE SMOOTH",
"612 1011 OFFCURVE",
"577 975 OFFCURVE",
"571 969 CURVE",
"420 830 LINE",
"441 786 LINE"
);
}
);
width = 760;
}
);
note = Nacute;
unicode = 0143;
},
{
glyphname = Ncaron;
lastChange = "2015-11-29 22:57:19 +0000";
layers = (
{
layerId = "A20AAD8A-5619-416D-9D3E-77802FB4F06A";
name = "Bold Italic";
paths = (
{
closed = 1;
nodes = (
"198 0 LINE",
"202 22 LINE",
"175 31 OFFCURVE",
"154 38 OFFCURVE",
"132 44 CURVE",
"245 602 LINE",
"523 0 LINE",
"616 0 LINE",
"749 656 LINE",
"773 662 OFFCURVE",
"798 669 OFFCURVE",
"829 678 CURVE",
"833 700 LINE",
"612 700 LINE",
"608 678 LINE",
"635 669 OFFCURVE",
"656 662 OFFCURVE",
"678 656 CURVE",
"593 237 LINE",
"381 700 LINE",
"119 700 LINE",
"115 678 LINE",
"140 668 OFFCURVE",
"165 660 OFFCURVE",
"186 655 CURVE",
"61 44 LINE",
"37 38 OFFCURVE",
"12 31 OFFCURVE",
"-19 22 CURVE",
"-22 0 LINE"
);
},
{
closed = 1;
nodes = (
"449 786 OFFCURVE",
"536 786 OFFCURVE",
"536 786 CURVE",
"563 819 OFFCURVE",
"681 913 OFFCURVE",
"732 942 CURVE",
"667 997 LINE",
"618 962 OFFCURVE",
"536 892 OFFCURVE",
"508 855 CURVE",
"508 855 OFFCURVE",
"505 855 OFFCURVE",
"505 855 CURVE",
"491 892 OFFCURVE",
"438 962 OFFCURVE",
"403 997 CURVE",
"317 942 LINE",
"357 913 OFFCURVE",
"436 819 OFFCURVE",
"449 786 CURVE"
);
}
);
width = 760;
}
);
note = Ncaron;
unicode = 0147;
},
{
glyphname = Ncommaaccent;
lastChange = "2015-11-29 22:57:18 +0000";
layers = (
{
layerId = "A20AAD8A-5619-416D-9D3E-77802FB4F06A";
name = "Bold Italic";
paths = (
{
closed = 1;
nodes = (
"198 0 LINE",
"202 22 LINE",
"175 31 OFFCURVE",
"154 38 OFFCURVE",
"132 44 CURVE",
"245 602 LINE",
"523 0 LINE",
"616 0 LINE",
"749 656 LINE",
"773 662 OFFCURVE",
"798 669 OFFCURVE",
"829 678 CURVE",
"833 700 LINE",
"612 700 LINE",
"608 678 LINE",
"635 669 OFFCURVE",
"656 662 OFFCURVE",
"678 656 CURVE",
"593 237 LINE",
"381 700 LINE",
"119 700 LINE",
"115 678 LINE",
"140 668 OFFCURVE",
"165 660 OFFCURVE",
"186 655 CURVE",
"61 44 LINE",
"37 38 OFFCURVE",
"12 31 OFFCURVE",
"-19 22 CURVE",
"-22 0 LINE"
);
},
{
closed = 1;
nodes = (
"309 -356 OFFCURVE",
"377 -264 OFFCURVE",
"396 -174 CURVE SMOOTH",
"405 -130 OFFCURVE",
"385 -89 OFFCURVE",
"325 -89 CURVE SMOOTH",
"281 -89 OFFCURVE",
"236 -119 OFFCURVE",
"226 -168 CURVE SMOOTH",
"218 -209 OFFCURVE",
"245 -246 OFFCURVE",
"286 -251 CURVE",
"268 -297 OFFCURVE",
"216 -344 OFFCURVE",
"187 -368 CURVE",
"235 -412 LINE"
);
}
);
width = 760;
}
);
note = Ncommaaccent;
unicode = 0145;
},
{
glyphname = Ndotaccent;
lastChange = "2015-11-29 22:57:18 +0000";
layers = (
{
layerId = "A20AAD8A-5619-416D-9D3E-77802FB4F06A";
name = "Bold Italic";
paths = (
{
closed = 1;
nodes = (
"198 0 LINE",
"202 22 LINE",
"175 31 OFFCURVE",
"154 38 OFFCURVE",
"132 44 CURVE",
"245 602 LINE",
"523 0 LINE",
"616 0 LINE",
"749 656 LINE",
"773 662 OFFCURVE",
"798 669 OFFCURVE",
"829 678 CURVE",
"833 700 LINE",
"612 700 LINE",
"608 678 LINE",
"635 669 OFFCURVE",
"656 662 OFFCURVE",
"678 656 CURVE",
"593 237 LINE",
"381 700 LINE",
"119 700 LINE",
"115 678 LINE",
"140 668 OFFCURVE",
"165 660 OFFCURVE",
"186 655 CURVE",
"61 44 LINE",
"37 38 OFFCURVE",
"12 31 OFFCURVE",
"-19 22 CURVE",
"-22 0 LINE"
);
},
{
closed = 1;
nodes = (
"535 786 OFFCURVE",
"568 818 OFFCURVE",
"577 858 CURVE SMOOTH",
"584 898 OFFCURVE",
"564 931 OFFCURVE",
"521 931 CURVE SMOOTH",
"478 931 OFFCURVE",
"445 898 OFFCURVE",
"437 858 CURVE SMOOTH",
"429 818 OFFCURVE",
"449 786 OFFCURVE",
"492 786 CURVE SMOOTH"
);
}
);
width = 760;
}
);
note = Ndotaccent;
unicode = 1E44;
},
{
glyphname = Ndotbelow;
lastChange = "2015-11-29 22:57:18 +0000";
layers = (
{
layerId = "A20AAD8A-5619-416D-9D3E-77802FB4F06A";
name = "Bold Italic";
paths = (
{
closed = 1;
nodes = (
"198 0 LINE",
"202 22 LINE",
"175 31 OFFCURVE",
"154 38 OFFCURVE",
"132 44 CURVE",
"245 602 LINE",
"523 0 LINE",
"616 0 LINE",
"749 656 LINE",
"773 662 OFFCURVE",
"798 669 OFFCURVE",
"829 678 CURVE",
"833 700 LINE",
"612 700 LINE",
"608 678 LINE",
"635 669 OFFCURVE",
"656 662 OFFCURVE",
"678 656 CURVE",
"593 237 LINE",
"381 700 LINE",
"119 700 LINE",
"115 678 LINE",
"140 668 OFFCURVE",
"165 660 OFFCURVE",
"186 655 CURVE",
"61 44 LINE",
"37 38 OFFCURVE",
"12 31 OFFCURVE",
"-19 22 CURVE",
"-22 0 LINE"
);
},
{
closed = 1;
nodes = (
"337 -195 OFFCURVE",
"370 -163 OFFCURVE",
"378 -123 CURVE SMOOTH",
"387 -83 OFFCURVE",
"366 -50 OFFCURVE",
"323 -50 CURVE SMOOTH",
"280 -50 OFFCURVE",
"247 -83 OFFCURVE",
"239 -123 CURVE SMOOTH",
"231 -163 OFFCURVE",
"250 -195 OFFCURVE",
"293 -195 CURVE SMOOTH"
);
}
);
width = 760;
}
);
note = uni1E46;
unicode = 1E46;
},
{
glyphname = Eng;
lastChange = "2015-11-29 22:57:21 +0000";
layers = (
{
layerId = "A20AAD8A-5619-416D-9D3E-77802FB4F06A";
name = "Bold Italic";
paths = (
{
closed = 1;
nodes = (
"495 -250 OFFCURVE",
"573 -211 OFFCURVE",
"595 -100 CURVE SMOOTH",
"749 656 LINE",
"773 662 OFFCURVE",
"798 669 OFFCURVE",
"829 678 CURVE",
"833 700 LINE",
"612 700 LINE",
"608 678 LINE",
"635 669 OFFCURVE",
"656 662 OFFCURVE",
"678 656 CURVE",
"593 237 LINE",
"381 700 LINE",
"119 700 LINE",
"115 678 LINE",
"140 668 OFFCURVE",
"165 660 OFFCURVE",
"186 655 CURVE",
"61 44 LINE",
"37 38 OFFCURVE",
"12 31 OFFCURVE",
"-19 22 CURVE",
"-22 0 LINE",
"198 0 LINE",
"202 22 LINE",
"175 31 OFFCURVE",
"154 38 OFFCURVE",
"132 44 CURVE",
"245 602 LINE",
"546 0 LINE",
"524 -105 LINE SMOOTH",
"511 -167 OFFCURVE",
"450 -189 OFFCURVE",
"395 -189 CURVE SMOOTH",
"365 -189 OFFCURVE",
"337 -184 OFFCURVE",
"318 -177 CURVE",
"298 -227 LINE",
"334 -241 OFFCURVE",
"374 -250 OFFCURVE",
"412 -250 CURVE SMOOTH"
);
}
);
width = 760;
}
);
note = Eng;
unicode = 014A;
},
{
glyphname = Nlinebelow;
lastChange = "2015-11-29 22:57:20 +0000";
layers = (
{
layerId = "A20AAD8A-5619-416D-9D3E-77802FB4F06A";
name = "Bold Italic";
paths = (
{
closed = 1;
nodes = (
"198 0 LINE",
"202 22 LINE",
"175 31 OFFCURVE",
"154 38 OFFCURVE",
"132 44 CURVE",
"245 602 LINE",
"523 0 LINE",
"616 0 LINE",
"749 656 LINE",
"773 662 OFFCURVE",
"798 669 OFFCURVE",
"829 678 CURVE",
"833 700 LINE",
"612 700 LINE",
"608 678 LINE",
"635 669 OFFCURVE",
"656 662 OFFCURVE",
"678 656 CURVE",
"593 237 LINE",
"381 700 LINE",
"119 700 LINE",
"115 678 LINE",
"140 668 OFFCURVE",
"165 660 OFFCURVE",
"186 655 CURVE",
"61 44 LINE",
"37 38 OFFCURVE",
"12 31 OFFCURVE",
"-19 22 CURVE",
"-22 0 LINE"
);
},
{
closed = 1;
nodes = (
"516 -112 LINE",
"528 -55 LINE",
"118 -55 LINE",
"106 -112 LINE"
);
}
);
width = 760;
}
);
note = Nlinebelow;
unicode = 1E48;
},
{
glyphname = Ntilde;
lastChange = "2015-11-29 22:57:21 +0000";
layers = (
{
layerId = "A20AAD8A-5619-416D-9D3E-77802FB4F06A";
name = "Bold Italic";
paths = (
{
closed = 1;
nodes = (
"198 0 LINE",
"202 22 LINE",
"175 31 OFFCURVE",
"154 38 OFFCURVE",
"132 44 CURVE",
"245 602 LINE",
"523 0 LINE",
"616 0 LINE",
"749 656 LINE",
"773 662 OFFCURVE",
"798 669 OFFCURVE",
"829 678 CURVE",
"833 700 LINE",
"612 700 LINE",
"608 678 LINE",
"635 669 OFFCURVE",
"656 662 OFFCURVE",
"678 656 CURVE",
"593 237 LINE",
"381 700 LINE",
"119 700 LINE",
"115 678 LINE",
"140 668 OFFCURVE",
"165 660 OFFCURVE",
"186 655 CURVE",
"61 44 LINE",
"37 38 OFFCURVE",
"12 31 OFFCURVE",
"-19 22 CURVE",
"-22 0 LINE"
);
},
{
closed = 1;
nodes = (
"381 786 LINE",
"391 817 OFFCURVE",
"412 836 OFFCURVE",
"439 836 CURVE SMOOTH",
"472 836 OFFCURVE",
"526 786 OFFCURVE",
"587 786 CURVE SMOOTH",
"674 786 OFFCURVE",
"722 839 OFFCURVE",
"744 915 CURVE",
"655 915 LINE",
"635 867 OFFCURVE",
"613 864 OFFCURVE",
"592 864 CURVE SMOOTH",
"553 864 OFFCURVE",
"528 914 OFFCURVE",
"450 914 CURVE SMOOTH",
"374 914 OFFCURVE",
"319 869 OFFCURVE",
"292 786 CURVE"
);
}
);
width = 760;
}
);
note = Ntilde;
unicode = 00D1;
},
{
glyphname = O;
lastChange = "2015-11-29 22:57:20 +0000";
layers = (
{
layerId = "A20AAD8A-5619-416D-9D3E-77802FB4F06A";
name = "Bold Italic";
paths = (
{
closed = 1;
nodes = (
"563 -10 OFFCURVE",
"718 128 OFFCURVE",
"763 350 CURVE SMOOTH",
"808 572 OFFCURVE",
"710 710 OFFCURVE",
"483 710 CURVE SMOOTH",
"252 710 OFFCURVE",
"100 572 OFFCURVE",
"55 350 CURVE SMOOTH",
"10 128 OFFCURVE",
"105 -10 OFFCURVE",
"336 -10 CURVE SMOOTH"
);
},
{
closed = 1;
nodes = (
"239 52 OFFCURVE",
"216 177 OFFCURVE",
"251 350 CURVE SMOOTH",
"287 523 OFFCURVE",
"360 648 OFFCURVE",
"470 648 CURVE SMOOTH",
"579 648 OFFCURVE",
"603 523 OFFCURVE",
"567 350 CURVE SMOOTH",
"532 177 OFFCURVE",
"458 52 OFFCURVE",
"349 52 CURVE SMOOTH"
);
}
);
width = 769;
}
);
leftKerningGroup = O;
note = O;
rightKerningGroup = O;
unicode = 004F;
},
{
glyphname = Oacute;
lastChange = "2015-11-29 22:57:19 +0000";
layers = (
{
layerId = "A20AAD8A-5619-416D-9D3E-77802FB4F06A";
name = "Bold Italic";
paths = (
{
closed = 1;
nodes = (
"563 -10 OFFCURVE",
"718 128 OFFCURVE",
"763 350 CURVE SMOOTH",
"808 572 OFFCURVE",
"710 710 OFFCURVE",
"483 710 CURVE SMOOTH",
"252 710 OFFCURVE",
"100 572 OFFCURVE",
"55 350 CURVE SMOOTH",
"10 128 OFFCURVE",
"105 -10 OFFCURVE",
"336 -10 CURVE SMOOTH"
);
},
{
closed = 1;
nodes = (
"239 52 OFFCURVE",
"216 177 OFFCURVE",
"251 350 CURVE SMOOTH",
"287 523 OFFCURVE",
"360 648 OFFCURVE",
"470 648 CURVE SMOOTH",
"579 648 OFFCURVE",
"603 523 OFFCURVE",
"567 350 CURVE SMOOTH",
"532 177 OFFCURVE",
"458 52 OFFCURVE",
"349 52 CURVE SMOOTH"
);
},
{
closed = 1;
nodes = (
"596 886 LINE SMOOTH",
"637 909 OFFCURVE",
"662 931 OFFCURVE",
"669 960 CURVE",
"673 982 OFFCURVE",
"662 1011 OFFCURVE",
"621 1011 CURVE SMOOTH",
"581 1011 OFFCURVE",
"546 975 OFFCURVE",
"540 969 CURVE",
"389 830 LINE",
"411 786 LINE"
);
}
);
width = 769;
}
);
leftKerningGroup = O;
note = Oacute;
rightKerningGroup = O;
unicode = 00D3;
},
{
glyphname = Obreve;
lastChange = "2015-11-29 22:57:21 +0000";
layers = (
{
layerId = "A20AAD8A-5619-416D-9D3E-77802FB4F06A";
name = "Bold Italic";
paths = (
{
closed = 1;
nodes = (
"563 -10 OFFCURVE",
"718 128 OFFCURVE",
"763 350 CURVE SMOOTH",
"808 572 OFFCURVE",
"710 710 OFFCURVE",
"483 710 CURVE SMOOTH",
"252 710 OFFCURVE",
"100 572 OFFCURVE",
"55 350 CURVE SMOOTH",
"10 128 OFFCURVE",
"105 -10 OFFCURVE",
"336 -10 CURVE SMOOTH"
);
},
{
closed = 1;
nodes = (
"239 52 OFFCURVE",
"216 177 OFFCURVE",
"251 350 CURVE SMOOTH",
"287 523 OFFCURVE",
"360 648 OFFCURVE",
"470 648 CURVE SMOOTH",
"579 648 OFFCURVE",
"603 523 OFFCURVE",
"567 350 CURVE SMOOTH",
"532 177 OFFCURVE",
"458 52 OFFCURVE",
"349 52 CURVE SMOOTH"
);
},
{
closed = 1;
nodes = (
"600 786 OFFCURVE",
"678 831 OFFCURVE",
"716 927 CURVE",
"614 927 LINE",
"593 856 OFFCURVE",
"549 847 OFFCURVE",
"509 847 CURVE SMOOTH",
"470 847 OFFCURVE",
"430 856 OFFCURVE",
"437 927 CURVE",
"337 927 LINE",
"334 831 OFFCURVE",
"394 786 OFFCURVE",
"497 786 CURVE SMOOTH"
);
}
);
width = 769;
}
);
leftKerningGroup = O;
note = Obreve;
rightKerningGroup = O;
unicode = 014E;
},
{
glyphname = Ocaron;
lastChange = "2015-11-29 22:57:19 +0000";
layers = (
{
layerId = "A20AAD8A-5619-416D-9D3E-77802FB4F06A";
name = "Bold Italic";
paths = (
{
closed = 1;
nodes = (
"563 -10 OFFCURVE",
"718 128 OFFCURVE",
"763 350 CURVE SMOOTH",
"808 572 OFFCURVE",
"710 710 OFFCURVE",
"483 710 CURVE SMOOTH",
"252 710 OFFCURVE",
"100 572 OFFCURVE",
"55 350 CURVE SMOOTH",
"10 128 OFFCURVE",
"105 -10 OFFCURVE",
"336 -10 CURVE SMOOTH"
);
},
{
closed = 1;
nodes = (
"239 52 OFFCURVE",
"216 177 OFFCURVE",
"251 350 CURVE SMOOTH",
"287 523 OFFCURVE",
"360 648 OFFCURVE",
"470 648 CURVE SMOOTH",
"579 648 OFFCURVE",
"603 523 OFFCURVE",
"567 350 CURVE SMOOTH",
"532 177 OFFCURVE",
"458 52 OFFCURVE",
"349 52 CURVE SMOOTH"
);
},
{
closed = 1;
nodes = (
"454 786 OFFCURVE",
"541 786 OFFCURVE",
"541 786 CURVE",
"568 819 OFFCURVE",
"686 913 OFFCURVE",
"737 942 CURVE",
"672 997 LINE",
"623 962 OFFCURVE",
"541 892 OFFCURVE",
"512 855 CURVE",
"512 855 OFFCURVE",
"509 855 OFFCURVE",
"509 855 CURVE",
"496 892 OFFCURVE",
"443 962 OFFCURVE",
"408 997 CURVE",
"322 942 LINE",
"362 913 OFFCURVE",
"440 819 OFFCURVE",
"454 786 CURVE"
);
}
);
width = 769;
}
);
leftKerningGroup = O;
note = Ocaron;
rightKerningGroup = O;
unicode = 01D1;
},
{
glyphname = Ocircumflex;
lastChange = "2015-11-29 22:57:19 +0000";
layers = (
{
layerId = "A20AAD8A-5619-416D-9D3E-77802FB4F06A";
name = "Bold Italic";
paths = (
{
closed = 1;
nodes = (
"563 -10 OFFCURVE",
"718 128 OFFCURVE",
"763 350 CURVE SMOOTH",
"808 572 OFFCURVE",
"710 710 OFFCURVE",
"483 710 CURVE SMOOTH",
"252 710 OFFCURVE",
"100 572 OFFCURVE",
"55 350 CURVE SMOOTH",
"10 128 OFFCURVE",
"105 -10 OFFCURVE",
"336 -10 CURVE SMOOTH"
);
},
{
closed = 1;
nodes = (
"239 52 OFFCURVE",
"216 177 OFFCURVE",
"251 350 CURVE SMOOTH",
"287 523 OFFCURVE",
"360 648 OFFCURVE",
"470 648 CURVE SMOOTH",
"579 648 OFFCURVE",
"603 523 OFFCURVE",
"567 350 CURVE SMOOTH",
"532 177 OFFCURVE",
"458 52 OFFCURVE",
"349 52 CURVE SMOOTH"
);
},
{
closed = 1;
nodes = (
"414 821 OFFCURVE",
"496 891 OFFCURVE",
"525 928 CURVE",
"525 928 OFFCURVE",
"528 928 OFFCURVE",
"528 928 CURVE",
"541 891 OFFCURVE",
"594 821 OFFCURVE",
"629 786 CURVE",
"716 841 LINE",
"676 870 OFFCURVE",
"597 964 OFFCURVE",
"583 997 CURVE",
"583 997 OFFCURVE",
"496 997 OFFCURVE",
"496 997 CURVE",
"469 964 OFFCURVE",
"352 870 OFFCURVE",
"301 841 CURVE",
"366 786 LINE"
);
}
);
width = 769;
}
);
leftKerningGroup = O;
note = Ocircumflex;
rightKerningGroup = O;
unicode = 00D4;
},
{
glyphname = Ocircumflexacute;
lastChange = "2015-11-29 22:57:20 +0000";
layers = (
{
layerId = "A20AAD8A-5619-416D-9D3E-77802FB4F06A";
name = "Bold Italic";
paths = (
{
closed = 1;
nodes = (
"563 -10 OFFCURVE",
"718 128 OFFCURVE",
"763 350 CURVE SMOOTH",
"808 572 OFFCURVE",
"710 710 OFFCURVE",
"483 710 CURVE SMOOTH",
"252 710 OFFCURVE",
"100 572 OFFCURVE",
"55 350 CURVE SMOOTH",
"10 128 OFFCURVE",
"105 -10 OFFCURVE",
"336 -10 CURVE SMOOTH"
);
},
{
closed = 1;
nodes = (
"239 52 OFFCURVE",
"216 177 OFFCURVE",
"251 350 CURVE SMOOTH",
"287 523 OFFCURVE",
"360 648 OFFCURVE",
"470 648 CURVE SMOOTH",
"579 648 OFFCURVE",
"603 523 OFFCURVE",
"567 350 CURVE SMOOTH",
"532 177 OFFCURVE",
"458 52 OFFCURVE",
"349 52 CURVE SMOOTH"
);
},
{
closed = 1;
nodes = (
"414 821 OFFCURVE",
"496 891 OFFCURVE",
"525 928 CURVE",
"525 928 OFFCURVE",
"528 928 OFFCURVE",
"528 928 CURVE",
"541 891 OFFCURVE",
"594 821 OFFCURVE",
"629 786 CURVE",
"715 841 LINE",
"676 870 OFFCURVE",
"597 964 OFFCURVE",
"583 997 CURVE",
"583 997 OFFCURVE",
"496 997 OFFCURVE",
"496 997 CURVE",
"469 964 OFFCURVE",
"351 870 OFFCURVE",
"300 841 CURVE",
"365 786 LINE"
);
},
{
closed = 1;
nodes = (
"803 994 LINE SMOOTH",
"846 1014 OFFCURVE",
"877 1039 OFFCURVE",
"884 1068 CURVE",
"888 1090 OFFCURVE",
"878 1123 OFFCURVE",
"836 1123 CURVE SMOOTH",
"803 1123 OFFCURVE",
"772 1093 OFFCURVE",
"753 1074 CURVE SMOOTH",
"658 975 LINE",
"679 937 LINE"
);
}
);
width = 769;
}
);
leftKerningGroup = O;
note = Ocircumflexacute;
rightKerningGroup = O;
unicode = 1ED0;
},
{
glyphname = Ocircumflexdotbelow;
lastChange = "2015-11-29 22:57:39 +0000";
layers = (
{
layerId = "A20AAD8A-5619-416D-9D3E-77802FB4F06A";
name = "Bold Italic";
paths = (
{
closed = 1;
nodes = (
"563 -10 OFFCURVE",
"718 128 OFFCURVE",
"763 350 CURVE SMOOTH",
"808 572 OFFCURVE",
"710 710 OFFCURVE",
"483 710 CURVE SMOOTH",
"252 710 OFFCURVE",
"100 572 OFFCURVE",
"55 350 CURVE SMOOTH",
"10 128 OFFCURVE",
"105 -10 OFFCURVE",
"336 -10 CURVE SMOOTH"
);
},
{
closed = 1;
nodes = (
"239 52 OFFCURVE",
"216 177 OFFCURVE",
"251 350 CURVE SMOOTH",
"287 523 OFFCURVE",
"360 648 OFFCURVE",
"470 648 CURVE SMOOTH",
"579 648 OFFCURVE",
"603 523 OFFCURVE",
"567 350 CURVE SMOOTH",
"532 177 OFFCURVE",
"458 52 OFFCURVE",
"349 52 CURVE SMOOTH"
);
},
{
closed = 1;
nodes = (
"413 821 OFFCURVE",
"495 891 OFFCURVE",
"524 928 CURVE",
"524 928 OFFCURVE",
"527 928 OFFCURVE",
"527 928 CURVE",
"540 891 OFFCURVE",
"593 821 OFFCURVE",
"628 786 CURVE",
"715 841 LINE",
"676 870 OFFCURVE",
"596 964 OFFCURVE",
"582 997 CURVE",
"582 997 OFFCURVE",
"495 997 OFFCURVE",
"495 997 CURVE",
"468 964 OFFCURVE",
"351 870 OFFCURVE",
"300 841 CURVE",
"365 786 LINE"
);
},
{
closed = 1;
nodes = (
"341 -195 OFFCURVE",
"375 -163 OFFCURVE",
"383 -123 CURVE SMOOTH",
"391 -83 OFFCURVE",
"371 -50 OFFCURVE",
"328 -50 CURVE SMOOTH",
"285 -50 OFFCURVE",
"252 -83 OFFCURVE",
"244 -123 CURVE SMOOTH",
"236 -163 OFFCURVE",
"255 -195 OFFCURVE",
"298 -195 CURVE SMOOTH"
);
}
);
width = 769;
}
);
leftKerningGroup = O;
note = Ocircumflexdotbelow;
rightKerningGroup = O;
unicode = 1ED8;
},
{
glyphname = Ocircumflexgrave;
lastChange = "2015-11-29 22:57:18 +0000";
layers = (
{
layerId = "A20AAD8A-5619-416D-9D3E-77802FB4F06A";
name = "Bold Italic";
paths = (
{
closed = 1;
nodes = (
"563 -10 OFFCURVE",
"718 128 OFFCURVE",
"763 350 CURVE SMOOTH",
"808 572 OFFCURVE",
"710 710 OFFCURVE",
"483 710 CURVE SMOOTH",
"252 710 OFFCURVE",
"100 572 OFFCURVE",
"55 350 CURVE SMOOTH",
"10 128 OFFCURVE",
"105 -10 OFFCURVE",
"336 -10 CURVE SMOOTH"
);
},
{
closed = 1;
nodes = (
"239 52 OFFCURVE",
"216 177 OFFCURVE",
"251 350 CURVE SMOOTH",
"287 523 OFFCURVE",
"360 648 OFFCURVE",
"470 648 CURVE SMOOTH",
"579 648 OFFCURVE",
"603 523 OFFCURVE",
"567 350 CURVE SMOOTH",
"532 177 OFFCURVE",
"458 52 OFFCURVE",
"349 52 CURVE SMOOTH"
);
},
{
closed = 1;
nodes = (
"412 975 LINE",
"358 1074 LINE SMOOTH",
"347 1093 OFFCURVE",
"327 1123 OFFCURVE",
"294 1123 CURVE SMOOTH",
"252 1123 OFFCURVE",
"229 1090 OFFCURVE",
"225 1068 CURVE",
"219 1039 OFFCURVE",
"240 1014 OFFCURVE",
"275 994 CURVE SMOOTH",
"376 937 LINE"
);
},
{
closed = 1;
nodes = (
"414 821 OFFCURVE",
"496 891 OFFCURVE",
"525 928 CURVE",
"525 928 OFFCURVE",
"528 928 OFFCURVE",
"528 928 CURVE",
"541 891 OFFCURVE",
"594 821 OFFCURVE",
"629 786 CURVE",
"715 841 LINE",
"676 870 OFFCURVE",
"597 964 OFFCURVE",
"583 997 CURVE",
"583 997 OFFCURVE",
"496 997 OFFCURVE",
"496 997 CURVE",
"469 964 OFFCURVE",
"351 870 OFFCURVE",
"300 841 CURVE",
"365 786 LINE"
);
}
);
width = 769;
}
);
leftKerningGroup = O;
note = Ocircumflexgrave;
rightKerningGroup = O;
unicode = 1ED2;
},
{
glyphname = Ocircumflexhookabove;
lastChange = "2015-11-29 22:57:19 +0000";
layers = (
{
layerId = "A20AAD8A-5619-416D-9D3E-77802FB4F06A";
name = "Bold Italic";
paths = (
{
closed = 1;
nodes = (
"563 -10 OFFCURVE",
"718 128 OFFCURVE",
"763 350 CURVE SMOOTH",
"808 572 OFFCURVE",
"710 710 OFFCURVE",
"483 710 CURVE SMOOTH",
"252 710 OFFCURVE",
"100 572 OFFCURVE",
"55 350 CURVE SMOOTH",
"10 128 OFFCURVE",
"105 -10 OFFCURVE",
"336 -10 CURVE SMOOTH"
);
},
{
closed = 1;
nodes = (
"239 52 OFFCURVE",
"216 177 OFFCURVE",
"251 350 CURVE SMOOTH",
"287 523 OFFCURVE",
"360 648 OFFCURVE",
"470 648 CURVE SMOOTH",
"579 648 OFFCURVE",
"603 523 OFFCURVE",
"567 350 CURVE SMOOTH",
"532 177 OFFCURVE",
"458 52 OFFCURVE",
"349 52 CURVE SMOOTH"
);
},
{
closed = 1;
nodes = (
"414 821 OFFCURVE",
"496 891 OFFCURVE",
"525 928 CURVE",
"525 928 OFFCURVE",
"528 928 OFFCURVE",
"528 928 CURVE",
"541 891 OFFCURVE",
"594 821 OFFCURVE",
"629 786 CURVE",
"715 841 LINE",
"676 870 OFFCURVE",
"597 964 OFFCURVE",
"583 997 CURVE",
"583 997 OFFCURVE",
"496 997 OFFCURVE",
"496 997 CURVE",
"469 964 OFFCURVE",
"351 870 OFFCURVE",
"300 841 CURVE",
"365 786 LINE"
);
},
{
closed = 1;
nodes = (
"725 964 LINE",
"743 1004 LINE",
"790 1009 OFFCURVE",
"834 1026 OFFCURVE",
"846 1088 CURVE SMOOTH",
"860 1156 OFFCURVE",
"806 1180 OFFCURVE",
"749 1180 CURVE SMOOTH",
"721 1180 OFFCURVE",
"691 1173 OFFCURVE",
"670 1163 CURVE",
"667 1121 LINE",
"686 1132 OFFCURVE",
"708 1136 OFFCURVE",
"724 1136 CURVE SMOOTH",
"760 1136 OFFCURVE",
"773 1113 OFFCURVE",
"769 1089 CURVE SMOOTH",
"761 1051 OFFCURVE",
"729 1042 OFFCURVE",
"712 1042 CURVE SMOOTH",
"673 1042 LINE",
"660 964 LINE"
);
}
);
width = 769;
}
);
leftKerningGroup = O;
note = Ocircumflexhookabove;
rightKerningGroup = O;
unicode = 1ED4;
},
{
glyphname = Ocircumflextilde;
lastChange = "2015-11-29 22:57:21 +0000";
layers = (
{
layerId = "A20AAD8A-5619-416D-9D3E-77802FB4F06A";
name = "Bold Italic";
paths = (
{
closed = 1;
nodes = (
"563 -10 OFFCURVE",
"718 128 OFFCURVE",
"763 350 CURVE SMOOTH",
"808 572 OFFCURVE",
"710 710 OFFCURVE",
"483 710 CURVE SMOOTH",
"252 710 OFFCURVE",
"100 572 OFFCURVE",
"55 350 CURVE SMOOTH",
"10 128 OFFCURVE",
"105 -10 OFFCURVE",
"336 -10 CURVE SMOOTH"
);
},
{
closed = 1;
nodes = (
"239 52 OFFCURVE",
"216 177 OFFCURVE",
"251 350 CURVE SMOOTH",
"287 523 OFFCURVE",
"360 648 OFFCURVE",
"470 648 CURVE SMOOTH",
"579 648 OFFCURVE",
"603 523 OFFCURVE",
"567 350 CURVE SMOOTH",
"532 177 OFFCURVE",
"458 52 OFFCURVE",
"349 52 CURVE SMOOTH"
);
},
{
closed = 1;
nodes = (
"414 821 OFFCURVE",
"496 891 OFFCURVE",
"525 928 CURVE",
"525 928 OFFCURVE",
"528 928 OFFCURVE",
"528 928 CURVE",
"541 891 OFFCURVE",
"594 821 OFFCURVE",
"629 786 CURVE",
"715 841 LINE",
"676 870 OFFCURVE",
"597 964 OFFCURVE",
"583 997 CURVE",
"583 997 OFFCURVE",
"496 997 OFFCURVE",
"496 997 CURVE",
"469 964 OFFCURVE",
"351 870 OFFCURVE",
"300 841 CURVE",
"365 786 LINE"
);
},
{
closed = 1;
nodes = (
"430 1040 LINE",
"440 1069 OFFCURVE",
"467 1088 OFFCURVE",
"500 1088 CURVE SMOOTH",
"549 1088 OFFCURVE",
"573 1040 OFFCURVE",
"632 1040 CURVE SMOOTH",
"714 1040 OFFCURVE",
"760 1090 OFFCURVE",
"782 1163 CURVE",
"721 1163 LINE",
"700 1117 OFFCURVE",
"663 1114 OFFCURVE",
"644 1114 CURVE SMOOTH",
"606 1114 OFFCURVE",
"595 1162 OFFCURVE",
"520 1162 CURVE SMOOTH",
"448 1162 OFFCURVE",
"394 1119 OFFCURVE",
"368 1040 CURVE"
);
}
);
width = 769;
}
);
leftKerningGroup = O;
note = Ocircumflextilde;
rightKerningGroup = O;
unicode = 1ED6;
},
{
glyphname = Odieresis;
lastChange = "2015-11-29 22:57:18 +0000";
layers = (
{
layerId = "A20AAD8A-5619-416D-9D3E-77802FB4F06A";
name = "Bold Italic";
paths = (
{
closed = 1;
nodes = (
"563 -10 OFFCURVE",
"718 128 OFFCURVE",
"763 350 CURVE SMOOTH",
"808 572 OFFCURVE",
"710 710 OFFCURVE",
"483 710 CURVE SMOOTH",
"252 710 OFFCURVE",
"100 572 OFFCURVE",
"55 350 CURVE SMOOTH",
"10 128 OFFCURVE",
"105 -10 OFFCURVE",
"336 -10 CURVE SMOOTH"
);
},
{
closed = 1;
nodes = (
"239 52 OFFCURVE",
"216 177 OFFCURVE",
"251 350 CURVE SMOOTH",
"287 523 OFFCURVE",
"360 648 OFFCURVE",
"470 648 CURVE SMOOTH",
"579 648 OFFCURVE",
"603 523 OFFCURVE",
"567 350 CURVE SMOOTH",
"532 177 OFFCURVE",
"458 52 OFFCURVE",
"349 52 CURVE SMOOTH"
);
},
{
closed = 1;
nodes = (
"418 786 OFFCURVE",
"451 818 OFFCURVE",
"460 858 CURVE SMOOTH",
"467 898 OFFCURVE",
"447 931 OFFCURVE",
"404 931 CURVE SMOOTH",
"362 931 OFFCURVE",
"329 898 OFFCURVE",
"321 858 CURVE SMOOTH",
"313 818 OFFCURVE",
"333 786 OFFCURVE",
"376 786 CURVE SMOOTH"
);
},
{
closed = 1;
nodes = (
"661 786 OFFCURVE",
"694 818 OFFCURVE",
"702 858 CURVE SMOOTH",
"710 898 OFFCURVE",
"690 931 OFFCURVE",
"647 931 CURVE SMOOTH",
"604 931 OFFCURVE",
"571 898 OFFCURVE",
"563 858 CURVE SMOOTH",
"555 818 OFFCURVE",
"575 786 OFFCURVE",
"618 786 CURVE SMOOTH"
);
}
);
width = 769;
}
);
leftKerningGroup = O;
note = Odieresis;
rightKerningGroup = O;
unicode = 00D6;
},
{
glyphname = Odotbelow;
lastChange = "2015-11-29 22:57:44 +0000";
layers = (
{
layerId = "A20AAD8A-5619-416D-9D3E-77802FB4F06A";
name = "Bold Italic";
paths = (
{
closed = 1;
nodes = (
"10 128 OFFCURVE",
"105 -10 OFFCURVE",
"336 -10 CURVE SMOOTH",
"563 -10 OFFCURVE",
"718 128 OFFCURVE",
"763 350 CURVE SMOOTH",
"808 572 OFFCURVE",
"710 710 OFFCURVE",
"483 710 CURVE SMOOTH",
"252 710 OFFCURVE",
"100 572 OFFCURVE",
"55 350 CURVE SMOOTH"
);
},
{
closed = 1;
nodes = (
"287 523 OFFCURVE",
"360 648 OFFCURVE",
"470 648 CURVE SMOOTH",
"579 648 OFFCURVE",
"603 523 OFFCURVE",
"567 350 CURVE SMOOTH",
"532 177 OFFCURVE",
"458 52 OFFCURVE",
"349 52 CURVE SMOOTH",
"239 52 OFFCURVE",
"216 177 OFFCURVE",
"251 350 CURVE SMOOTH"
);
},
{
closed = 1;
nodes = (
"236 -163 OFFCURVE",
"255 -195 OFFCURVE",
"298 -195 CURVE SMOOTH",
"341 -195 OFFCURVE",
"375 -163 OFFCURVE",
"383 -123 CURVE SMOOTH",
"391 -83 OFFCURVE",
"371 -50 OFFCURVE",
"328 -50 CURVE SMOOTH",
"285 -50 OFFCURVE",
"252 -83 OFFCURVE",
"244 -123 CURVE SMOOTH"
);
}
);
width = 769;
}
);
leftKerningGroup = O;
note = Odotbelow;
rightKerningGroup = O;
unicode = 1ECC;
},
{
glyphname = Ograve;
lastChange = "2015-11-29 22:57:21 +0000";
layers = (
{
layerId = "A20AAD8A-5619-416D-9D3E-77802FB4F06A";
name = "Bold Italic";
paths = (
{
closed = 1;
nodes = (
"563 -10 OFFCURVE",
"718 128 OFFCURVE",
"763 350 CURVE SMOOTH",
"808 572 OFFCURVE",
"710 710 OFFCURVE",
"483 710 CURVE SMOOTH",
"252 710 OFFCURVE",
"100 572 OFFCURVE",
"55 350 CURVE SMOOTH",
"10 128 OFFCURVE",
"105 -10 OFFCURVE",
"336 -10 CURVE SMOOTH"
);
},
{
closed = 1;
nodes = (
"239 52 OFFCURVE",
"216 177 OFFCURVE",
"251 350 CURVE SMOOTH",
"287 523 OFFCURVE",
"360 648 OFFCURVE",
"470 648 CURVE SMOOTH",
"579 648 OFFCURVE",
"603 523 OFFCURVE",
"567 350 CURVE SMOOTH",
"532 177 OFFCURVE",
"458 52 OFFCURVE",
"349 52 CURVE SMOOTH"
);
},
{
closed = 1;
nodes = (
"624 830 LINE",
"531 969 LINE SMOOTH",
"527 975 OFFCURVE",
"505 1011 OFFCURVE",
"465 1011 CURVE SMOOTH",
"423 1011 OFFCURVE",
"401 982 OFFCURVE",
"397 960 CURVE",
"390 931 OFFCURVE",
"408 909 OFFCURVE",
"440 886 CURVE SMOOTH",
"585 786 LINE"
);
}
);
width = 769;
}
);
leftKerningGroup = O;
note = Ograve;
rightKerningGroup = O;
unicode = 00D2;
},
{
glyphname = Ohookabove;
lastChange = "2015-11-29 22:57:19 +0000";
layers = (
{
layerId = "A20AAD8A-5619-416D-9D3E-77802FB4F06A";
name = "Bold Italic";
paths = (
{
closed = 1;
nodes = (
"563 -10 OFFCURVE",
"718 128 OFFCURVE",
"763 350 CURVE SMOOTH",
"808 572 OFFCURVE",
"710 710 OFFCURVE",
"483 710 CURVE SMOOTH",
"252 710 OFFCURVE",
"100 572 OFFCURVE",
"55 350 CURVE SMOOTH",
"10 128 OFFCURVE",
"105 -10 OFFCURVE",
"336 -10 CURVE SMOOTH"
);
},
{
closed = 1;
nodes = (
"239 52 OFFCURVE",
"216 177 OFFCURVE",
"251 350 CURVE SMOOTH",
"287 523 OFFCURVE",
"360 648 OFFCURVE",
"470 648 CURVE SMOOTH",
"579 648 OFFCURVE",
"603 523 OFFCURVE",
"567 350 CURVE SMOOTH",
"532 177 OFFCURVE",
"458 52 OFFCURVE",
"349 52 CURVE SMOOTH"
);
},
{
closed = 1;
nodes = (
"542 786 LINE",
"566 859 LINE",
"620 864 OFFCURVE",
"669 883 OFFCURVE",
"683 951 CURVE SMOOTH",
"698 1025 OFFCURVE",
"637 1051 OFFCURVE",
"573 1051 CURVE SMOOTH",
"539 1051 OFFCURVE",
"505 1043 OFFCURVE",
"481 1032 CURVE",
"478 987 LINE",
"501 999 OFFCURVE",
"526 1003 OFFCURVE",
"543 1003 CURVE SMOOTH",
"584 1003 OFFCURVE",
"600 978 OFFCURVE",
"595 952 CURVE SMOOTH",
"586 910 OFFCURVE",
"551 900 OFFCURVE",
"531 900 CURVE SMOOTH",
"485 900 LINE",
"467 786 LINE"
);
}
);
width = 769;
}
);
leftKerningGroup = O;
note = Ohookabove;
rightKerningGroup = O;
unicode = 1ECE;
},
{
glyphname = Ohorn;
lastChange = "2015-11-29 22:57:20 +0000";
layers = (
{
layerId = "A20AAD8A-5619-416D-9D3E-77802FB4F06A";
name = "Bold Italic";
paths = (
{
closed = 1;
nodes = (
"563 -10 OFFCURVE",
"718 128 OFFCURVE",
"763 350 CURVE SMOOTH",
"808 572 OFFCURVE",
"710 710 OFFCURVE",
"483 710 CURVE SMOOTH",
"252 710 OFFCURVE",
"100 572 OFFCURVE",
"55 350 CURVE SMOOTH",
"10 128 OFFCURVE",
"105 -10 OFFCURVE",
"336 -10 CURVE SMOOTH"
);
},
{
closed = 1;
nodes = (
"239 52 OFFCURVE",
"216 177 OFFCURVE",
"251 350 CURVE SMOOTH",
"287 523 OFFCURVE",
"360 648 OFFCURVE",
"470 648 CURVE SMOOTH",
"579 648 OFFCURVE",
"603 523 OFFCURVE",
"567 350 CURVE SMOOTH",
"532 177 OFFCURVE",
"458 52 OFFCURVE",
"349 52 CURVE SMOOTH"
);
},
{
closed = 1;
nodes = (
"878 524 OFFCURVE",
"937 595 OFFCURVE",
"948 653 CURVE SMOOTH",
"955 682 OFFCURVE",
"964 745 OFFCURVE",
"880 745 CURVE SMOOTH",
"811 745 OFFCURVE",
"788 699 OFFCURVE",
"782 669 CURVE SMOOTH",
"772 624 OFFCURVE",
"794 596 OFFCURVE",
"835 596 CURVE SMOOTH",
"840 596 OFFCURVE",
"844 596 OFFCURVE",
"849 597 CURVE",
"824 547 OFFCURVE",
"742 496 OFFCURVE",
"719 483 CURVE",
"744 441 LINE"
);
}
);
width = 828;
}
);
leftKerningGroup = O;
note = Ohorn;
rightKerningGroup = O;
unicode = 01A0;
},
{
glyphname = Ohornacute;
lastChange = "2015-11-29 22:57:20 +0000";
layers = (
{
layerId = "A20AAD8A-5619-416D-9D3E-77802FB4F06A";
name = "Bold Italic";
paths = (
{
closed = 1;
nodes = (
"563 -10 OFFCURVE",
"718 128 OFFCURVE",
"763 350 CURVE SMOOTH",
"808 572 OFFCURVE",
"710 710 OFFCURVE",
"483 710 CURVE SMOOTH",
"252 710 OFFCURVE",
"100 572 OFFCURVE",
"55 350 CURVE SMOOTH",
"10 128 OFFCURVE",
"105 -10 OFFCURVE",
"336 -10 CURVE SMOOTH"
);
},
{
closed = 1;
nodes = (
"239 52 OFFCURVE",
"216 177 OFFCURVE",
"251 350 CURVE SMOOTH",
"287 523 OFFCURVE",
"360 648 OFFCURVE",
"470 648 CURVE SMOOTH",
"579 648 OFFCURVE",
"603 523 OFFCURVE",
"567 350 CURVE SMOOTH",
"532 177 OFFCURVE",
"458 52 OFFCURVE",
"349 52 CURVE SMOOTH"
);
},
{
closed = 1;
nodes = (
"597 885 LINE SMOOTH",
"638 908 OFFCURVE",
"663 930 OFFCURVE",
"670 959 CURVE",
"674 981 OFFCURVE",
"663 1010 OFFCURVE",
"622 1010 CURVE SMOOTH",
"582 1010 OFFCURVE",
"547 974 OFFCURVE",
"541 968 CURVE",
"390 829 LINE",
"412 785 LINE"
);
},
{
closed = 1;
nodes = (
"878 524 OFFCURVE",
"937 595 OFFCURVE",
"948 653 CURVE SMOOTH",
"955 682 OFFCURVE",
"964 745 OFFCURVE",
"880 745 CURVE SMOOTH",
"811 745 OFFCURVE",
"788 699 OFFCURVE",
"782 669 CURVE SMOOTH",
"772 624 OFFCURVE",
"794 596 OFFCURVE",
"835 596 CURVE SMOOTH",
"840 596 OFFCURVE",
"844 596 OFFCURVE",
"849 597 CURVE",
"824 547 OFFCURVE",
"742 496 OFFCURVE",
"719 483 CURVE",
"744 441 LINE"
);
}
);
width = 828;
}
);
leftKerningGroup = O;
note = Ohornacute;
rightKerningGroup = O;
unicode = 1EDA;
},
{
glyphname = Ohorndotbelow;
lastChange = "2015-11-29 22:57:49 +0000";
layers = (
{
layerId = "A20AAD8A-5619-416D-9D3E-77802FB4F06A";
name = "Bold Italic";
paths = (
{
closed = 1;
nodes = (
"563 -10 OFFCURVE",
"718 128 OFFCURVE",
"763 350 CURVE SMOOTH",
"808 572 OFFCURVE",
"710 710 OFFCURVE",
"483 710 CURVE SMOOTH",
"252 710 OFFCURVE",
"100 572 OFFCURVE",
"55 350 CURVE SMOOTH",
"10 128 OFFCURVE",
"105 -10 OFFCURVE",
"336 -10 CURVE SMOOTH"
);
},
{
closed = 1;
nodes = (
"239 52 OFFCURVE",
"216 177 OFFCURVE",
"251 350 CURVE SMOOTH",
"287 523 OFFCURVE",
"360 648 OFFCURVE",
"470 648 CURVE SMOOTH",
"579 648 OFFCURVE",
"603 523 OFFCURVE",
"567 350 CURVE SMOOTH",
"532 177 OFFCURVE",
"458 52 OFFCURVE",
"349 52 CURVE SMOOTH"
);
},
{
closed = 1;
nodes = (
"878 524 OFFCURVE",
"937 595 OFFCURVE",
"948 653 CURVE SMOOTH",
"955 682 OFFCURVE",
"964 745 OFFCURVE",
"880 745 CURVE SMOOTH",
"811 745 OFFCURVE",
"788 699 OFFCURVE",
"782 669 CURVE SMOOTH",
"772 624 OFFCURVE",
"794 596 OFFCURVE",
"835 596 CURVE SMOOTH",
"840 596 OFFCURVE",
"844 596 OFFCURVE",
"849 597 CURVE",
"824 547 OFFCURVE",
"742 496 OFFCURVE",
"719 483 CURVE",
"744 441 LINE"
);
},
{
closed = 1;
nodes = (
"341 -195 OFFCURVE",
"375 -163 OFFCURVE",
"383 -123 CURVE SMOOTH",
"391 -83 OFFCURVE",
"371 -50 OFFCURVE",
"328 -50 CURVE SMOOTH",
"285 -50 OFFCURVE",
"252 -83 OFFCURVE",
"244 -123 CURVE SMOOTH",
"236 -163 OFFCURVE",
"255 -195 OFFCURVE",
"298 -195 CURVE SMOOTH"
);
}
);
width = 828;
}
);
leftKerningGroup = O;
note = Ohorndotbelow;
rightKerningGroup = O;
unicode = 1EE2;
},
{
glyphname = Ohorngrave;
lastChange = "2015-11-29 22:57:20 +0000";
layers = (
{
layerId = "A20AAD8A-5619-416D-9D3E-77802FB4F06A";
name = "Bold Italic";
paths = (
{
closed = 1;
nodes = (
"563 -10 OFFCURVE",
"718 128 OFFCURVE",
"763 350 CURVE SMOOTH",
"808 572 OFFCURVE",
"710 710 OFFCURVE",
"483 710 CURVE SMOOTH",
"252 710 OFFCURVE",
"100 572 OFFCURVE",
"55 350 CURVE SMOOTH",
"10 128 OFFCURVE",
"105 -10 OFFCURVE",
"336 -10 CURVE SMOOTH"
);
},
{
closed = 1;
nodes = (
"239 52 OFFCURVE",
"216 177 OFFCURVE",
"251 350 CURVE SMOOTH",
"287 523 OFFCURVE",
"360 648 OFFCURVE",
"470 648 CURVE SMOOTH",
"579 648 OFFCURVE",
"603 523 OFFCURVE",
"567 350 CURVE SMOOTH",
"532 177 OFFCURVE",
"458 52 OFFCURVE",
"349 52 CURVE SMOOTH"
);
},
{
closed = 1;
nodes = (
"624 829 LINE",
"531 968 LINE SMOOTH",
"527 974 OFFCURVE",
"505 1010 OFFCURVE",
"465 1010 CURVE SMOOTH",
"423 1010 OFFCURVE",
"401 981 OFFCURVE",
"397 959 CURVE",
"390 930 OFFCURVE",
"408 908 OFFCURVE",
"440 885 CURVE SMOOTH",
"585 785 LINE"
);
},
{
closed = 1;
nodes = (
"878 524 OFFCURVE",
"937 595 OFFCURVE",
"948 653 CURVE SMOOTH",
"955 682 OFFCURVE",
"964 745 OFFCURVE",
"880 745 CURVE SMOOTH",
"811 745 OFFCURVE",
"788 699 OFFCURVE",
"782 669 CURVE SMOOTH",
"772 624 OFFCURVE",
"794 596 OFFCURVE",
"835 596 CURVE SMOOTH",
"840 596 OFFCURVE",
"844 596 OFFCURVE",
"849 597 CURVE",
"824 547 OFFCURVE",
"742 496 OFFCURVE",
"719 483 CURVE",
"744 441 LINE"
);
}
);
width = 828;
}
);
leftKerningGroup = O;
note = Ohorngrave;
rightKerningGroup = O;
unicode = 1EDC;
},
{
glyphname = Ohornhookabove;
lastChange = "2015-11-29 22:57:21 +0000";
layers = (
{
layerId = "A20AAD8A-5619-416D-9D3E-77802FB4F06A";
name = "Bold Italic";
paths = (
{
closed = 1;
nodes = (
"563 -10 OFFCURVE",
"718 128 OFFCURVE",
"763 350 CURVE SMOOTH",
"808 572 OFFCURVE",
"710 710 OFFCURVE",
"483 710 CURVE SMOOTH",
"252 710 OFFCURVE",
"100 572 OFFCURVE",
"55 350 CURVE SMOOTH",
"10 128 OFFCURVE",
"105 -10 OFFCURVE",
"336 -10 CURVE SMOOTH"
);
},
{
closed = 1;
nodes = (
"239 52 OFFCURVE",
"216 177 OFFCURVE",
"251 350 CURVE SMOOTH",
"287 523 OFFCURVE",
"360 648 OFFCURVE",
"470 648 CURVE SMOOTH",
"579 648 OFFCURVE",
"603 523 OFFCURVE",
"567 350 CURVE SMOOTH",
"532 177 OFFCURVE",
"458 52 OFFCURVE",
"349 52 CURVE SMOOTH"
);
},
{
closed = 1;
nodes = (
"878 524 OFFCURVE",
"937 595 OFFCURVE",
"948 653 CURVE SMOOTH",
"955 682 OFFCURVE",
"964 745 OFFCURVE",
"880 745 CURVE SMOOTH",
"811 745 OFFCURVE",
"788 699 OFFCURVE",
"782 669 CURVE SMOOTH",
"772 624 OFFCURVE",
"794 596 OFFCURVE",
"835 596 CURVE SMOOTH",
"840 596 OFFCURVE",
"844 596 OFFCURVE",
"849 597 CURVE",
"824 547 OFFCURVE",
"742 496 OFFCURVE",
"719 483 CURVE",
"744 441 LINE"
);
},
{
closed = 1;
nodes = (
"532 781 LINE",
"556 854 LINE",
"609 859 OFFCURVE",
"658 878 OFFCURVE",
"673 946 CURVE SMOOTH",
"687 1020 OFFCURVE",
"627 1046 OFFCURVE",
"562 1046 CURVE SMOOTH",
"529 1046 OFFCURVE",
"494 1038 OFFCURVE",
"470 1027 CURVE",
"467 982 LINE",
"490 994 OFFCURVE",
"515 998 OFFCURVE",
"532 998 CURVE SMOOTH",
"574 998 OFFCURVE",
"589 973 OFFCURVE",
"584 947 CURVE SMOOTH",
"576 905 OFFCURVE",
"540 895 OFFCURVE",
"520 895 CURVE SMOOTH",
"475 895 LINE",
"457 781 LINE"
);
}
);
width = 828;
}
);
leftKerningGroup = O;
note = Ohornhookabove;
rightKerningGroup = O;
unicode = 1EDE;
},
{
glyphname = Ohorntilde;
lastChange = "2015-11-29 22:57:19 +0000";
layers = (
{
layerId = "A20AAD8A-5619-416D-9D3E-77802FB4F06A";
name = "Bold Italic";
paths = (
{
closed = 1;
nodes = (
"563 -10 OFFCURVE",
"718 128 OFFCURVE",
"763 350 CURVE SMOOTH",
"808 572 OFFCURVE",
"710 710 OFFCURVE",
"483 710 CURVE SMOOTH",
"252 710 OFFCURVE",
"100 572 OFFCURVE",
"55 350 CURVE SMOOTH",
"10 128 OFFCURVE",
"105 -10 OFFCURVE",
"336 -10 CURVE SMOOTH"
);
},
{
closed = 1;
nodes = (
"239 52 OFFCURVE",
"216 177 OFFCURVE",
"251 350 CURVE SMOOTH",
"287 523 OFFCURVE",
"360 648 OFFCURVE",
"470 648 CURVE SMOOTH",
"579 648 OFFCURVE",
"603 523 OFFCURVE",
"567 350 CURVE SMOOTH",
"532 177 OFFCURVE",
"458 52 OFFCURVE",
"349 52 CURVE SMOOTH"
);
},
{
closed = 1;
nodes = (
"375 786 LINE",
"386 817 OFFCURVE",
"406 836 OFFCURVE",
"434 836 CURVE SMOOTH",
"466 836 OFFCURVE",
"520 786 OFFCURVE",
"581 786 CURVE SMOOTH",
"668 786 OFFCURVE",
"716 839 OFFCURVE",
"738 915 CURVE",
"650 915 LINE",
"629 867 OFFCURVE",
"607 864 OFFCURVE",
"586 864 CURVE SMOOTH",
"547 864 OFFCURVE",
"522 914 OFFCURVE",
"444 914 CURVE SMOOTH",
"368 914 OFFCURVE",
"314 869 OFFCURVE",
"286 786 CURVE"
);
},
{
closed = 1;
nodes = (
"878 524 OFFCURVE",
"937 595 OFFCURVE",
"948 653 CURVE SMOOTH",
"955 682 OFFCURVE",
"964 745 OFFCURVE",
"880 745 CURVE SMOOTH",
"811 745 OFFCURVE",
"788 699 OFFCURVE",
"782 669 CURVE SMOOTH",
"772 624 OFFCURVE",
"794 596 OFFCURVE",
"835 596 CURVE SMOOTH",
"840 596 OFFCURVE",
"844 596 OFFCURVE",
"849 597 CURVE",
"824 547 OFFCURVE",
"742 496 OFFCURVE",
"719 483 CURVE",
"744 441 LINE"
);
}
);
width = 828;
}
);
leftKerningGroup = O;
note = Ohorntilde;
rightKerningGroup = O;
unicode = 1EE0;
},
{
glyphname = Ohungarumlaut;
lastChange = "2015-11-29 22:57:20 +0000";
layers = (
{
layerId = "A20AAD8A-5619-416D-9D3E-77802FB4F06A";
name = "Bold Italic";
paths = (
{
closed = 1;
nodes = (
"563 -10 OFFCURVE",
"718 128 OFFCURVE",
"763 350 CURVE SMOOTH",
"808 572 OFFCURVE",
"710 710 OFFCURVE",
"483 710 CURVE SMOOTH",
"252 710 OFFCURVE",
"100 572 OFFCURVE",
"55 350 CURVE SMOOTH",
"10 128 OFFCURVE",
"105 -10 OFFCURVE",
"336 -10 CURVE SMOOTH"
);
},
{
closed = 1;
nodes = (
"239 52 OFFCURVE",
"216 177 OFFCURVE",
"251 350 CURVE SMOOTH",
"287 523 OFFCURVE",
"360 648 OFFCURVE",
"470 648 CURVE SMOOTH",
"579 648 OFFCURVE",
"603 523 OFFCURVE",
"567 350 CURVE SMOOTH",
"532 177 OFFCURVE",
"458 52 OFFCURVE",
"349 52 CURVE SMOOTH"
);
},
{
closed = 1;
nodes = (
"517 884 LINE SMOOTH",
"559 907 OFFCURVE",
"585 929 OFFCURVE",
"591 958 CURVE SMOOTH",
"596 980 OFFCURVE",
"585 1009 OFFCURVE",
"543 1009 CURVE SMOOTH",
"504 1009 OFFCURVE",
"467 973 OFFCURVE",
"461 967 CURVE",
"313 828 LINE",
"333 784 LINE"
);
},
{
closed = 1;
nodes = (
"742 884 LINE SMOOTH",
"784 907 OFFCURVE",
"810 929 OFFCURVE",
"816 958 CURVE SMOOTH",
"820 980 OFFCURVE",
"810 1009 OFFCURVE",
"768 1009 CURVE SMOOTH",
"728 1009 OFFCURVE",
"692 973 OFFCURVE",
"686 967 CURVE",
"536 828 LINE",
"556 784 LINE"
);
}
);
width = 769;
}
);
leftKerningGroup = O;
note = Ohungarumlaut;
rightKerningGroup = O;
unicode = 0150;
},
{
glyphname = Omacron;
lastChange = "2015-11-29 22:57:21 +0000";
layers = (
{
layerId = "A20AAD8A-5619-416D-9D3E-77802FB4F06A";
name = "Bold Italic";
paths = (
{
closed = 1;
nodes = (
"563 -10 OFFCURVE",
"718 128 OFFCURVE",
"763 350 CURVE SMOOTH",
"808 572 OFFCURVE",
"710 710 OFFCURVE",
"483 710 CURVE SMOOTH",
"252 710 OFFCURVE",
"100 572 OFFCURVE",
"55 350 CURVE SMOOTH",
"10 128 OFFCURVE",
"105 -10 OFFCURVE",
"336 -10 CURVE SMOOTH"
);
},
{
closed = 1;
nodes = (
"239 52 OFFCURVE",
"216 177 OFFCURVE",
"251 350 CURVE SMOOTH",
"287 523 OFFCURVE",
"360 648 OFFCURVE",
"470 648 CURVE SMOOTH",
"579 648 OFFCURVE",
"603 523 OFFCURVE",
"567 350 CURVE SMOOTH",
"532 177 OFFCURVE",
"458 52 OFFCURVE",
"349 52 CURVE SMOOTH"
);
},
{
closed = 1;
nodes = (
"702 786 LINE",
"714 843 LINE",
"304 843 LINE",
"292 786 LINE"
);
}
);
width = 769;
}
);
leftKerningGroup = O;
note = Omacron;
rightKerningGroup = O;
unicode = 014C;
},
{
glyphname = Oslash;
lastChange = "2015-11-29 22:57:54 +0000";
layers = (
{
layerId = "A20AAD8A-5619-416D-9D3E-77802FB4F06A";
name = "Bold Italic";
paths = (
{
closed = 1;
nodes = (
"563 -10 OFFCURVE",
"718 128 OFFCURVE",
"763 350 CURVE SMOOTH",
"808 572 OFFCURVE",
"710 710 OFFCURVE",
"483 710 CURVE SMOOTH",
"252 710 OFFCURVE",
"100 572 OFFCURVE",
"55 350 CURVE SMOOTH",
"10 128 OFFCURVE",
"105 -10 OFFCURVE",
"336 -10 CURVE SMOOTH"
);
},
{
closed = 1;
nodes = (
"239 52 OFFCURVE",
"216 177 OFFCURVE",
"251 350 CURVE SMOOTH",
"287 523 OFFCURVE",
"360 648 OFFCURVE",
"470 648 CURVE SMOOTH",
"579 648 OFFCURVE",
"603 523 OFFCURVE",
"567 350 CURVE SMOOTH",
"532 177 OFFCURVE",
"458 52 OFFCURVE",
"349 52 CURVE SMOOTH"
);
},
{
closed = 1;
nodes = (
"800 688 LINE",
"759 728 LINE",
"-4 0 LINE",
"32 -39 LINE"
);
}
);
width = 769;
}
);
leftKerningGroup = O;
note = Oslash;
rightKerningGroup = O;
unicode = 00D8;
},
{
glyphname = Oslashacute;
lastChange = "2015-11-29 22:58:19 +0000";
layers = (
{
layerId = "A20AAD8A-5619-416D-9D3E-77802FB4F06A";
name = "Bold Italic";
paths = (
{
closed = 1;
nodes = (
"563 -10 OFFCURVE",
"718 128 OFFCURVE",
"763 350 CURVE SMOOTH",
"808 572 OFFCURVE",
"710 710 OFFCURVE",
"483 710 CURVE SMOOTH",
"252 710 OFFCURVE",
"100 572 OFFCURVE",
"55 350 CURVE SMOOTH",
"10 128 OFFCURVE",
"105 -10 OFFCURVE",
"336 -10 CURVE SMOOTH"
);
},
{
closed = 1;
nodes = (
"239 52 OFFCURVE",
"216 177 OFFCURVE",
"251 350 CURVE SMOOTH",
"287 523 OFFCURVE",
"360 648 OFFCURVE",
"470 648 CURVE SMOOTH",
"579 648 OFFCURVE",
"603 523 OFFCURVE",
"567 350 CURVE SMOOTH",
"532 177 OFFCURVE",
"458 52 OFFCURVE",
"349 52 CURVE SMOOTH"
);
},
{
closed = 1;
nodes = (
"596 886 LINE SMOOTH",
"637 909 OFFCURVE",
"662 931 OFFCURVE",
"669 960 CURVE",
"673 982 OFFCURVE",
"662 1011 OFFCURVE",
"621 1011 CURVE SMOOTH",
"581 1011 OFFCURVE",
"546 975 OFFCURVE",
"540 969 CURVE",
"389 830 LINE",
"411 786 LINE"
);
},
{
closed = 1;
nodes = (
"800 688 LINE",
"759 728 LINE",
"-4 0 LINE",
"32 -39 LINE"
);
}
);
width = 769;
}
);
leftKerningGroup = O;
note = Oslashacute;
rightKerningGroup = O;
unicode = 01FE;
},
{
glyphname = Otilde;
lastChange = "2015-11-29 22:57:19 +0000";
layers = (
{
layerId = "A20AAD8A-5619-416D-9D3E-77802FB4F06A";
name = "Bold Italic";
paths = (
{
closed = 1;
nodes = (
"563 -10 OFFCURVE",
"718 128 OFFCURVE",
"763 350 CURVE SMOOTH",
"808 572 OFFCURVE",
"710 710 OFFCURVE",
"483 710 CURVE SMOOTH",
"252 710 OFFCURVE",
"100 572 OFFCURVE",
"55 350 CURVE SMOOTH",
"10 128 OFFCURVE",
"105 -10 OFFCURVE",
"336 -10 CURVE SMOOTH"
);
},
{
closed = 1;
nodes = (
"239 52 OFFCURVE",
"216 177 OFFCURVE",
"251 350 CURVE SMOOTH",
"287 523 OFFCURVE",
"360 648 OFFCURVE",
"470 648 CURVE SMOOTH",
"579 648 OFFCURVE",
"603 523 OFFCURVE",
"567 350 CURVE SMOOTH",
"532 177 OFFCURVE",
"458 52 OFFCURVE",
"349 52 CURVE SMOOTH"
);
},
{
closed = 1;
nodes = (
"374 786 LINE",
"385 817 OFFCURVE",
"405 836 OFFCURVE",
"433 836 CURVE SMOOTH",
"465 836 OFFCURVE",
"519 786 OFFCURVE",
"580 786 CURVE SMOOTH",
"667 786 OFFCURVE",
"715 839 OFFCURVE",
"737 915 CURVE",
"649 915 LINE",
"628 867 OFFCURVE",
"606 864 OFFCURVE",
"585 864 CURVE SMOOTH",
"546 864 OFFCURVE",
"521 914 OFFCURVE",
"443 914 CURVE SMOOTH",
"367 914 OFFCURVE",
"313 869 OFFCURVE",
"285 786 CURVE"
);
}
);
width = 769;
}
);
leftKerningGroup = O;
note = Otilde;
rightKerningGroup = O;
unicode = 00D5;
},
{
glyphname = OE;
lastChange = "2015-11-29 22:57:19 +0000";
layers = (
{
layerId = "A20AAD8A-5619-416D-9D3E-77802FB4F06A";
name = "Bold Italic";
paths = (
{
closed = 1;
nodes = (
"377 -10 OFFCURVE",
"429 8 OFFCURVE",
"484 59 CURVE",
"472 0 LINE",
"976 0 LINE",
"1036 196 LINE",
"995 196 LINE",
"971 174 OFFCURVE",
"922 99 OFFCURVE",
"911 59 CURVE",
"676 59 LINE",
"731 330 LINE",
"874 330 LINE",
"872 313 OFFCURVE",
"873 274 OFFCURVE",
"877 241 CURVE",
"907 241 LINE",
"955 477 LINE",
"925 477 LINE",
"907 446 OFFCURVE",
"892 407 OFFCURVE",
"886 389 CURVE",
"743 389 LINE",
"795 641 LINE",
"1022 641 LINE",
"1017 607 OFFCURVE",
"1029 527 OFFCURVE",
"1038 503 CURVE",
"1079 503 LINE",
"1119 700 LINE",
"614 700 LINE",
"602 637 LINE",
"576 682 OFFCURVE",
"524 710 OFFCURVE",
"447 710 CURVE SMOOTH",
"217 710 OFFCURVE",
"90 520 OFFCURVE",
"55 350 CURVE SMOOTH",
"21 180 OFFCURVE",
"70 -10 OFFCURVE",
"300 -10 CURVE SMOOTH"
);
},
{
closed = 1;
nodes = (
"239 52 OFFCURVE",
"216 177 OFFCURVE",
"251 350 CURVE SMOOTH",
"287 523 OFFCURVE",
"360 648 OFFCURVE",
"470 648 CURVE SMOOTH",
"532 648 OFFCURVE",
"575 600 OFFCURVE",
"583 547 CURVE",
"503 152 LINE",
"464 93 OFFCURVE",
"412 52 OFFCURVE",
"349 52 CURVE SMOOTH"
);
}
);
width = 1075;
}
);
note = OE;
unicode = 0152;
},
{
glyphname = P;
lastChange = "2015-11-29 22:57:19 +0000";
layers = (
{
layerId = "A20AAD8A-5619-416D-9D3E-77802FB4F06A";
name = "Bold Italic";
paths = (
{
closed = 1;
nodes = (
"322 0 LINE",
"326 23 LINE",
"301 31 OFFCURVE",
"274 41 OFFCURVE",
"254 45 CURVE",
"299 268 LINE",
"415 268 LINE SMOOTH",
"570 268 OFFCURVE",
"668 376 OFFCURVE",
"693 496 CURVE SMOOTH",
"715 605 OFFCURVE",
"681 700 OFFCURVE",
"501 700 CURVE SMOOTH",
"121 700 LINE",
"116 677 LINE",
"143 667 OFFCURVE",
"166 660 OFFCURVE",
"187 655 CURVE",
"62 47 LINE",
"62 47 OFFCURVE",
"11 33 OFFCURVE",
"-19 25 CURVE",
"-23 0 LINE"
);
},
{
closed = 1;
nodes = (
"376 641 LINE",
"438 641 LINE SMOOTH",
"504 641 OFFCURVE",
"522 589 OFFCURVE",
"503 498 CURVE SMOOTH",
"484 409 OFFCURVE",
"444 326 OFFCURVE",
"374 326 CURVE SMOOTH",
"312 326 LINE"
);
}
);
width = 652;
}
);
note = P;
unicode = 0050;
},
{
glyphname = Thorn;
lastChange = "2015-11-29 22:58:33 +0000";
layers = (
{
layerId = "A20AAD8A-5619-416D-9D3E-77802FB4F06A";
name = "Bold Italic";
paths = (
{
closed = 1;
nodes = (
"323 0 LINE",
"326 23 LINE",
"302 31 OFFCURVE",
"275 41 OFFCURVE",
"254 45 CURVE",
"277 154 LINE",
"393 154 LINE SMOOTH",
"547 154 OFFCURVE",
"645 262 OFFCURVE",
"670 382 CURVE SMOOTH",
"692 491 OFFCURVE",
"659 586 OFFCURVE",
"478 586 CURVE SMOOTH",
"365 586 LINE",
"388 700 LINE",
"121 700 LINE",
"116 677 LINE",
"143 667 OFFCURVE",
"166 660 OFFCURVE",
"187 655 CURVE",
"62 47 LINE",
"62 47 OFFCURVE",
"12 33 OFFCURVE",
"-18 25 CURVE",
"-23 0 LINE"
);
},
{
closed = 1;
nodes = (
"353 527 LINE",
"416 527 LINE SMOOTH",
"481 527 OFFCURVE",
"498 475 OFFCURVE",
"480 384 CURVE SMOOTH",
"462 295 OFFCURVE",
"422 212 OFFCURVE",
"351 212 CURVE SMOOTH",
"289 212 LINE"
);
}
);
width = 652;
}
);
note = Thorn;
unicode = 00DE;
},
{
glyphname = Q;
lastChange = "2015-11-29 22:59:04 +0000";
layers = (
{
layerId = "A20AAD8A-5619-416D-9D3E-77802FB4F06A";
name = "Bold Italic";
paths = (
{
closed = 1;
nodes = (
"563 -10 OFFCURVE",
"718 128 OFFCURVE",
"763 350 CURVE SMOOTH",
"808 572 OFFCURVE",
"710 710 OFFCURVE",
"483 710 CURVE SMOOTH",
"252 710 OFFCURVE",
"100 572 OFFCURVE",
"55 350 CURVE SMOOTH",
"10 128 OFFCURVE",
"105 -10 OFFCURVE",
"336 -10 CURVE SMOOTH"
);
},
{
closed = 1;
nodes = (
"239 52 OFFCURVE",
"216 177 OFFCURVE",
"251 350 CURVE SMOOTH",
"287 523 OFFCURVE",
"360 648 OFFCURVE",
"470 648 CURVE SMOOTH",
"579 648 OFFCURVE",
"603 523 OFFCURVE",
"567 350 CURVE SMOOTH",
"532 177 OFFCURVE",
"458 52 OFFCURVE",
"349 52 CURVE SMOOTH"
);
},
{
closed = 1;
nodes = (
"565 -107 LINE",
"469 -99 OFFCURVE",
"421 -47 OFFCURVE",
"428 29 CURVE",
"256 29 LINE",
"248 -71 OFFCURVE",
"348 -141 OFFCURVE",
"555 -159 CURVE"
);
}
);
width = 769;
}
);
leftKerningGroup = O;
note = Q;
rightKerningGroup = O;
unicode = 0051;
},
{
glyphname = R;
lastChange = "2015-11-29 22:59:20 +0000";
layers = (
{
layerId = "A20AAD8A-5619-416D-9D3E-77802FB4F06A";
name = "Bold Italic";
paths = (
{
closed = 1;
nodes = (
"322 0 LINE",
"326 23 LINE",
"301 31 OFFCURVE",
"274 41 OFFCURVE",
"254 45 CURVE",
"306 298 LINE",
"437 298 LINE SMOOTH",
"569 298 OFFCURVE",
"678 378 OFFCURVE",
"704 506 CURVE SMOOTH",
"726 615 OFFCURVE",
"699 700 OFFCURVE",
"518 700 CURVE SMOOTH",
"121 700 LINE",
"116 677 LINE",
"143 667 OFFCURVE",
"166 660 OFFCURVE",
"187 655 CURVE",
"62 47 LINE",
"62 47 OFFCURVE",
"11 33 OFFCURVE",
"-19 25 CURVE",
"-23 0 LINE"
);
},
{
closed = 1;
nodes = (
"376 641 LINE",
"438 641 LINE SMOOTH",
"510 641 OFFCURVE",
"533 599 OFFCURVE",
"514 508 CURVE SMOOTH",
"497 419 OFFCURVE",
"457 356 OFFCURVE",
"380 356 CURVE SMOOTH",
"317 356 LINE"
);
},
{
closed = 1;
nodes = (
"667 0 LINE",
"671 22 LINE",
"646 33 OFFCURVE",
"622 40 OFFCURVE",
"600 46 CURVE",
"516 318 LINE",
"352 318 LINE",
"436 0 LINE"
);
}
);
width = 727;
}
);
note = R;
rightKerningGroup = R;
unicode = 0052;
},
{
glyphname = Racute;
lastChange = "2015-11-29 22:59:24 +0000";
layers = (
{
layerId = "A20AAD8A-5619-416D-9D3E-77802FB4F06A";
name = "Bold Italic";
paths = (
{
closed = 1;
nodes = (
"322 0 LINE",
"326 23 LINE",
"301 31 OFFCURVE",
"274 41 OFFCURVE",
"254 45 CURVE",
"306 298 LINE",
"437 298 LINE SMOOTH",
"569 298 OFFCURVE",
"678 378 OFFCURVE",
"704 506 CURVE SMOOTH",
"726 615 OFFCURVE",
"699 700 OFFCURVE",
"518 700 CURVE SMOOTH",
"121 700 LINE",
"116 677 LINE",
"143 667 OFFCURVE",
"166 660 OFFCURVE",
"187 655 CURVE",
"62 47 LINE",
"62 47 OFFCURVE",
"11 33 OFFCURVE",
"-19 25 CURVE",
"-23 0 LINE"
);
},
{
closed = 1;
nodes = (
"376 641 LINE",
"438 641 LINE SMOOTH",
"510 641 OFFCURVE",
"533 599 OFFCURVE",
"514 508 CURVE SMOOTH",
"497 419 OFFCURVE",
"457 356 OFFCURVE",
"380 356 CURVE SMOOTH",
"317 356 LINE"
);
},
{
closed = 1;
nodes = (
"667 0 LINE",
"671 22 LINE",
"646 33 OFFCURVE",
"622 40 OFFCURVE",
"600 46 CURVE",
"516 318 LINE",
"352 318 LINE",
"436 0 LINE"
);
},
{
closed = 1;
nodes = (
"570 886 LINE SMOOTH",
"611 909 OFFCURVE",
"636 931 OFFCURVE",
"643 960 CURVE",
"647 982 OFFCURVE",
"636 1011 OFFCURVE",
"595 1011 CURVE SMOOTH",
"556 1011 OFFCURVE",
"520 975 OFFCURVE",
"514 969 CURVE",
"364 830 LINE",
"385 786 LINE"
);
}
);
width = 727;
}
);
note = Racute;
rightKerningGroup = R;
unicode = 0154;
},
{
glyphname = Rcaron;
lastChange = "2015-11-29 22:59:28 +0000";
layers = (
{
layerId = "A20AAD8A-5619-416D-9D3E-77802FB4F06A";
name = "Bold Italic";
paths = (
{
closed = 1;
nodes = (
"322 0 LINE",
"326 23 LINE",
"301 31 OFFCURVE",
"274 41 OFFCURVE",
"254 45 CURVE",
"306 298 LINE",
"437 298 LINE SMOOTH",
"569 298 OFFCURVE",
"678 378 OFFCURVE",
"704 506 CURVE SMOOTH",
"726 615 OFFCURVE",
"699 700 OFFCURVE",
"518 700 CURVE SMOOTH",
"121 700 LINE",
"116 677 LINE",
"143 667 OFFCURVE",
"166 660 OFFCURVE",
"187 655 CURVE",
"62 47 LINE",
"62 47 OFFCURVE",
"11 33 OFFCURVE",
"-19 25 CURVE",
"-23 0 LINE"
);
},
{
closed = 1;
nodes = (
"376 641 LINE",
"438 641 LINE SMOOTH",
"510 641 OFFCURVE",
"533 599 OFFCURVE",
"514 508 CURVE SMOOTH",
"497 419 OFFCURVE",
"457 356 OFFCURVE",
"380 356 CURVE SMOOTH",
"317 356 LINE"
);
},
{
closed = 1;
nodes = (
"667 0 LINE",
"671 22 LINE",
"646 33 OFFCURVE",
"622 40 OFFCURVE",
"600 46 CURVE",
"516 318 LINE",
"352 318 LINE",
"436 0 LINE"
);
},
{
closed = 1;
nodes = (
"437 786 OFFCURVE",
"525 786 OFFCURVE",
"525 786 CURVE",
"552 819 OFFCURVE",
"670 913 OFFCURVE",
"721 942 CURVE",
"655 997 LINE",
"606 962 OFFCURVE",
"525 892 OFFCURVE",
"496 855 CURVE",
"496 855 OFFCURVE",
"493 855 OFFCURVE",
"493 855 CURVE",
"480 892 OFFCURVE",
"427 962 OFFCURVE",
"391 997 CURVE",
"306 942 LINE",
"345 913 OFFCURVE",
"424 819 OFFCURVE",
"437 786 CURVE"
);
}
);
width = 727;
}
);
note = Rcaron;
rightKerningGroup = R;
unicode = 0158;
},
{
glyphname = Rcommaaccent;
lastChange = "2015-11-29 22:59:32 +0000";
layers = (
{
layerId = "A20AAD8A-5619-416D-9D3E-77802FB4F06A";
name = "Bold Italic";
paths = (
{
closed = 1;
nodes = (
"322 0 LINE",
"326 23 LINE",
"301 31 OFFCURVE",
"274 41 OFFCURVE",
"254 45 CURVE",
"306 298 LINE",
"437 298 LINE SMOOTH",
"569 298 OFFCURVE",
"678 378 OFFCURVE",
"704 506 CURVE SMOOTH",
"726 615 OFFCURVE",
"699 700 OFFCURVE",
"518 700 CURVE SMOOTH",
"121 700 LINE",
"116 677 LINE",
"143 667 OFFCURVE",
"166 660 OFFCURVE",
"187 655 CURVE",
"62 47 LINE",
"62 47 OFFCURVE",
"11 33 OFFCURVE",
"-19 25 CURVE",
"-23 0 LINE"
);
},
{
closed = 1;
nodes = (
"376 641 LINE",
"438 641 LINE SMOOTH",
"510 641 OFFCURVE",
"533 599 OFFCURVE",
"514 508 CURVE SMOOTH",
"497 419 OFFCURVE",
"457 356 OFFCURVE",
"380 356 CURVE SMOOTH",
"317 356 LINE"
);
},
{
closed = 1;
nodes = (
"300 -356 OFFCURVE",
"368 -264 OFFCURVE",
"388 -174 CURVE SMOOTH",
"396 -130 OFFCURVE",
"376 -89 OFFCURVE",
"316 -89 CURVE SMOOTH",
"272 -89 OFFCURVE",
"227 -119 OFFCURVE",
"218 -168 CURVE SMOOTH",
"209 -209 OFFCURVE",
"237 -246 OFFCURVE",
"277 -251 CURVE",
"259 -297 OFFCURVE",
"207 -344 OFFCURVE",
"178 -368 CURVE",
"226 -412 LINE"
);
},
{
closed = 1;
nodes = (
"667 0 LINE",
"671 22 LINE",
"646 33 OFFCURVE",
"622 40 OFFCURVE",
"600 46 CURVE",
"516 318 LINE",
"352 318 LINE",
"436 0 LINE"
);
}
);
width = 727;
}
);
note = Rcommaaccent;
rightKerningGroup = R;
unicode = 0156;
},
{
glyphname = Rdotbelow;
lastChange = "2015-11-29 22:59:36 +0000";
layers = (
{
layerId = "A20AAD8A-5619-416D-9D3E-77802FB4F06A";
name = "Bold Italic";
paths = (
{
closed = 1;
nodes = (
"322 0 LINE",
"326 23 LINE",
"301 31 OFFCURVE",
"274 41 OFFCURVE",
"254 45 CURVE",
"306 298 LINE",
"437 298 LINE SMOOTH",
"569 298 OFFCURVE",
"678 378 OFFCURVE",
"704 506 CURVE SMOOTH",
"726 615 OFFCURVE",
"699 700 OFFCURVE",
"518 700 CURVE SMOOTH",
"121 700 LINE",
"116 677 LINE",
"143 667 OFFCURVE",
"166 660 OFFCURVE",
"187 655 CURVE",
"62 47 LINE",
"62 47 OFFCURVE",
"11 33 OFFCURVE",
"-19 25 CURVE",
"-23 0 LINE"
);
},
{
closed = 1;
nodes = (
"376 641 LINE",
"438 641 LINE SMOOTH",
"510 641 OFFCURVE",
"533 599 OFFCURVE",
"514 508 CURVE SMOOTH",
"497 419 OFFCURVE",
"457 356 OFFCURVE",
"380 356 CURVE SMOOTH",
"317 356 LINE"
);
},
{
closed = 1;
nodes = (
"320 -195 OFFCURVE",
"354 -163 OFFCURVE",
"362 -123 CURVE SMOOTH",
"370 -83 OFFCURVE",
"350 -50 OFFCURVE",
"307 -50 CURVE SMOOTH",
"264 -50 OFFCURVE",
"231 -83 OFFCURVE",
"222 -123 CURVE SMOOTH",
"215 -163 OFFCURVE",
"234 -195 OFFCURVE",
"277 -195 CURVE SMOOTH"
);
},
{
closed = 1;
nodes = (
"667 0 LINE",
"671 22 LINE",
"646 33 OFFCURVE",
"622 40 OFFCURVE",
"600 46 CURVE",
"516 318 LINE",
"352 318 LINE",
"436 0 LINE"
);
}
);
width = 727;
}
);
note = Rdotbelow;
rightKerningGroup = R;
unicode = 1E5A;
},
{
glyphname = Rdotbelowmacron;
lastChange = "2015-11-29 22:59:40 +0000";
layers = (
{
layerId = "A20AAD8A-5619-416D-9D3E-77802FB4F06A";
name = "Bold Italic";
paths = (
{
closed = 1;
nodes = (
"322 0 LINE",
"326 23 LINE",
"301 31 OFFCURVE",
"274 41 OFFCURVE",
"254 45 CURVE",
"306 298 LINE",
"437 298 LINE SMOOTH",
"569 298 OFFCURVE",
"678 378 OFFCURVE",
"704 506 CURVE SMOOTH",
"726 615 OFFCURVE",
"699 700 OFFCURVE",
"518 700 CURVE SMOOTH",
"121 700 LINE",
"116 677 LINE",
"143 667 OFFCURVE",
"166 660 OFFCURVE",
"187 655 CURVE",
"62 47 LINE",
"62 47 OFFCURVE",
"11 33 OFFCURVE",
"-19 25 CURVE",
"-23 0 LINE"
);
},
{
closed = 1;
nodes = (
"376 641 LINE",
"438 641 LINE SMOOTH",
"510 641 OFFCURVE",
"533 599 OFFCURVE",
"514 508 CURVE SMOOTH",
"497 419 OFFCURVE",
"457 356 OFFCURVE",
"380 356 CURVE SMOOTH",
"317 356 LINE"
);
},
{
closed = 1;
nodes = (
"320 -195 OFFCURVE",
"354 -163 OFFCURVE",
"362 -123 CURVE SMOOTH",
"370 -83 OFFCURVE",
"350 -50 OFFCURVE",
"307 -50 CURVE SMOOTH",
"264 -50 OFFCURVE",
"231 -83 OFFCURVE",
"222 -123 CURVE SMOOTH",
"215 -163 OFFCURVE",
"234 -195 OFFCURVE",
"277 -195 CURVE SMOOTH"
);
},
{
closed = 1;
nodes = (
"667 0 LINE",
"671 22 LINE",
"646 33 OFFCURVE",
"622 40 OFFCURVE",
"600 46 CURVE",
"516 318 LINE",
"352 318 LINE",
"436 0 LINE"
);
},
{
closed = 1;
nodes = (
"667 785 LINE",
"679 843 LINE",
"224 843 LINE",
"212 785 LINE"
);
}
);
width = 727;
}
);
note = Rdotbelowmacron;
rightKerningGroup = R;
unicode = 1E5C;
},
{
glyphname = Rlinebelow;
lastChange = "2015-11-29 22:59:44 +0000";
layers = (
{
layerId = "A20AAD8A-5619-416D-9D3E-77802FB4F06A";
name = "Bold Italic";
paths = (
{
closed = 1;
nodes = (
"322 0 LINE",
"326 23 LINE",
"301 31 OFFCURVE",
"274 41 OFFCURVE",
"254 45 CURVE",
"306 298 LINE",
"437 298 LINE SMOOTH",
"569 298 OFFCURVE",
"678 378 OFFCURVE",
"704 506 CURVE SMOOTH",
"726 615 OFFCURVE",
"699 700 OFFCURVE",
"518 700 CURVE SMOOTH",
"121 700 LINE",
"116 677 LINE",
"143 667 OFFCURVE",
"166 660 OFFCURVE",
"187 655 CURVE",
"62 47 LINE",
"62 47 OFFCURVE",
"11 33 OFFCURVE",
"-19 25 CURVE",
"-23 0 LINE"
);
},
{
closed = 1;
nodes = (
"376 641 LINE",
"438 641 LINE SMOOTH",
"510 641 OFFCURVE",
"533 599 OFFCURVE",
"514 508 CURVE SMOOTH",
"497 419 OFFCURVE",
"457 356 OFFCURVE",
"380 356 CURVE SMOOTH",
"317 356 LINE"
);
},
{
closed = 1;
nodes = (
"468 -112 LINE",
"480 -55 LINE",
"70 -55 LINE",
"58 -112 LINE"
);
},
{
closed = 1;
nodes = (
"667 0 LINE",
"671 22 LINE",
"646 33 OFFCURVE",
"622 40 OFFCURVE",
"600 46 CURVE",
"516 318 LINE",
"352 318 LINE",
"436 0 LINE"
);
}
);
width = 727;
}
);
note = Rlinebelow;
rightKerningGroup = R;
unicode = 1E5E;
},
{
glyphname = S;
lastChange = "2015-11-29 22:57:18 +0000";
layers = (
{
layerId = "A20AAD8A-5619-416D-9D3E-77802FB4F06A";
name = "Bold Italic";
paths = (
{
closed = 1;
nodes = (
"403 -10 OFFCURVE",
"546 63 OFFCURVE",
"575 203 CURVE SMOOTH",
"631 482 OFFCURVE",
"274 421 OFFCURVE",
"301 554 CURVE SMOOTH",
"316 626 OFFCURVE",
"378 648 OFFCURVE",
"438 648 CURVE SMOOTH",
"483 648 OFFCURVE",
"527 637 OFFCURVE",
"549 616 CURVE",
"543 563 OFFCURVE",
"544 527 OFFCURVE",
"548 486 CURVE",
"592 486 LINE",
"639 636 LINE",
"593 689 OFFCURVE",
"523 710 OFFCURVE",
"412 710 CURVE SMOOTH",
"249 710 OFFCURVE",
"125 648 OFFCURVE",
"100 521 CURVE SMOOTH",
"46 256 OFFCURVE",
"408 347 OFFCURVE",
"373 177 CURVE SMOOTH",
"355 89 OFFCURVE",
"280 52 OFFCURVE",
"206 52 CURVE SMOOTH",
"159 52 OFFCURVE",
"114 71 OFFCURVE",
"90 100 CURVE",
"96 153 OFFCURVE",
"100 199 OFFCURVE",
"97 240 CURVE",
"52 240 LINE",
"4 87 LINE",
"36 28 OFFCURVE",
"132 -10 OFFCURVE",
"244 -10 CURVE SMOOTH"
);
}
);
width = 612;
}
);
leftKerningGroup = S;
note = S;
rightKerningGroup = S;
unicode = 0053;
},
{
glyphname = Sacute;
lastChange = "2015-11-29 22:57:20 +0000";
layers = (
{
layerId = "A20AAD8A-5619-416D-9D3E-77802FB4F06A";
name = "Bold Italic";
paths = (
{
closed = 1;
nodes = (
"403 -10 OFFCURVE",
"546 63 OFFCURVE",
"575 203 CURVE SMOOTH",
"631 482 OFFCURVE",
"274 421 OFFCURVE",
"301 554 CURVE SMOOTH",
"316 626 OFFCURVE",
"378 648 OFFCURVE",
"438 648 CURVE SMOOTH",
"483 648 OFFCURVE",
"527 637 OFFCURVE",
"549 616 CURVE",
"543 563 OFFCURVE",
"544 527 OFFCURVE",
"548 486 CURVE",
"592 486 LINE",
"639 636 LINE",
"593 689 OFFCURVE",
"523 710 OFFCURVE",
"412 710 CURVE SMOOTH",
"249 710 OFFCURVE",
"125 648 OFFCURVE",
"100 521 CURVE SMOOTH",
"46 256 OFFCURVE",
"408 347 OFFCURVE",
"373 177 CURVE SMOOTH",
"355 89 OFFCURVE",
"280 52 OFFCURVE",
"206 52 CURVE SMOOTH",
"159 52 OFFCURVE",
"114 71 OFFCURVE",
"90 100 CURVE",
"96 153 OFFCURVE",
"100 199 OFFCURVE",
"97 240 CURVE",
"52 240 LINE",
"4 87 LINE",
"36 28 OFFCURVE",
"132 -10 OFFCURVE",
"244 -10 CURVE SMOOTH"
);
},
{
closed = 1;
nodes = (
"508 886 LINE SMOOTH",
"550 909 OFFCURVE",
"575 931 OFFCURVE",
"581 960 CURVE",
"585 982 OFFCURVE",
"575 1011 OFFCURVE",
"533 1011 CURVE SMOOTH",
"494 1011 OFFCURVE",
"459 975 OFFCURVE",
"453 969 CURVE",
"302 830 LINE",
"323 786 LINE"
);
}
);
width = 612;
}
);
leftKerningGroup = S;
note = Sacute;
rightKerningGroup = S;
unicode = 015A;
},
{
glyphname = Scaron;
lastChange = "2015-11-29 22:57:20 +0000";
layers = (
{
layerId = "A20AAD8A-5619-416D-9D3E-77802FB4F06A";
name = "Bold Italic";
paths = (
{
closed = 1;
nodes = (
"403 -10 OFFCURVE",
"546 63 OFFCURVE",
"575 203 CURVE SMOOTH",
"631 482 OFFCURVE",
"274 421 OFFCURVE",
"301 554 CURVE SMOOTH",
"316 626 OFFCURVE",
"378 648 OFFCURVE",
"438 648 CURVE SMOOTH",
"483 648 OFFCURVE",
"527 637 OFFCURVE",
"549 616 CURVE",
"543 563 OFFCURVE",
"544 527 OFFCURVE",
"548 486 CURVE",
"592 486 LINE",
"639 636 LINE",
"593 689 OFFCURVE",
"523 710 OFFCURVE",
"412 710 CURVE SMOOTH",
"249 710 OFFCURVE",
"125 648 OFFCURVE",
"100 521 CURVE SMOOTH",
"46 256 OFFCURVE",
"408 347 OFFCURVE",
"373 177 CURVE SMOOTH",
"355 89 OFFCURVE",
"280 52 OFFCURVE",
"206 52 CURVE SMOOTH",
"159 52 OFFCURVE",
"114 71 OFFCURVE",
"90 100 CURVE",
"96 153 OFFCURVE",
"100 199 OFFCURVE",
"97 240 CURVE",
"52 240 LINE",
"4 87 LINE",
"36 28 OFFCURVE",
"132 -10 OFFCURVE",
"244 -10 CURVE SMOOTH"
);
},
{
closed = 1;
nodes = (
"375 786 OFFCURVE",
"462 786 OFFCURVE",
"462 786 CURVE",
"489 819 OFFCURVE",
"607 913 OFFCURVE",
"658 942 CURVE",
"593 997 LINE",
"544 962 OFFCURVE",
"462 892 OFFCURVE",
"434 855 CURVE",
"434 855 OFFCURVE",
"431 855 OFFCURVE",
"431 855 CURVE",
"417 892 OFFCURVE",
"364 962 OFFCURVE",
"329 997 CURVE",
"244 942 LINE",
"283 913 OFFCURVE",
"362 819 OFFCURVE",
"375 786 CURVE"
);
}
);
width = 612;
}
);
leftKerningGroup = S;
note = Scaron;
rightKerningGroup = S;
unicode = 0160;
},
{
glyphname = Scedilla;
lastChange = "2015-11-29 22:57:21 +0000";
layers = (
{
layerId = "A20AAD8A-5619-416D-9D3E-77802FB4F06A";
name = "Bold Italic";
paths = (
{
closed = 1;
nodes = (
"403 -10 OFFCURVE",
"546 63 OFFCURVE",
"575 203 CURVE SMOOTH",
"631 482 OFFCURVE",
"274 421 OFFCURVE",
"301 554 CURVE SMOOTH",
"316 626 OFFCURVE",
"378 648 OFFCURVE",
"438 648 CURVE SMOOTH",
"483 648 OFFCURVE",
"527 637 OFFCURVE",
"549 616 CURVE",
"543 563 OFFCURVE",
"544 527 OFFCURVE",
"548 486 CURVE",
"592 486 LINE",
"639 636 LINE",
"593 689 OFFCURVE",
"523 710 OFFCURVE",
"412 710 CURVE SMOOTH",
"249 710 OFFCURVE",
"125 648 OFFCURVE",
"100 521 CURVE SMOOTH",
"46 256 OFFCURVE",
"408 347 OFFCURVE",
"373 177 CURVE SMOOTH",
"355 89 OFFCURVE",
"280 52 OFFCURVE",
"206 52 CURVE SMOOTH",
"159 52 OFFCURVE",
"114 71 OFFCURVE",
"90 100 CURVE",
"96 153 OFFCURVE",
"100 199 OFFCURVE",
"97 240 CURVE",
"52 240 LINE",
"4 87 LINE",
"36 28 OFFCURVE",
"132 -10 OFFCURVE",
"244 -10 CURVE SMOOTH"
);
},
{
closed = 1;
nodes = (
"274 -274 OFFCURVE",
"354 -233 OFFCURVE",
"370 -154 CURVE SMOOTH",
"378 -114 OFFCURVE",
"362 -66 OFFCURVE",
"286 -58 CURVE",
"281 -58 OFFCURVE",
"270 -57 OFFCURVE",
"266 -57 CURVE",
"327 32 LINE",
"250 32 LINE",
"179 -71 LINE",
"199 -108 LINE",
"206 -107 OFFCURVE",
"214 -107 OFFCURVE",
"220 -107 CURVE SMOOTH",
"252 -107 OFFCURVE",
"289 -116 OFFCURVE",
"281 -154 CURVE SMOOTH",
"271 -198 OFFCURVE",
"230 -211 OFFCURVE",
"188 -211 CURVE SMOOTH",
"156 -211 OFFCURVE",
"124 -202 OFFCURVE",
"107 -188 CURVE",
"70 -234 LINE",
"98 -259 OFFCURVE",
"148 -274 OFFCURVE",
"191 -274 CURVE SMOOTH"
);
}
);
width = 612;
}
);
leftKerningGroup = S;
note = Scedilla;
rightKerningGroup = S;
unicode = 015E;
},
{
glyphname = Scircumflex;
lastChange = "2015-11-29 22:57:19 +0000";
layers = (
{
layerId = "A20AAD8A-5619-416D-9D3E-77802FB4F06A";
name = "Bold Italic";
paths = (
{
closed = 1;
nodes = (
"403 -10 OFFCURVE",
"546 63 OFFCURVE",
"575 203 CURVE SMOOTH",
"631 482 OFFCURVE",
"274 421 OFFCURVE",
"301 554 CURVE SMOOTH",
"316 626 OFFCURVE",
"378 648 OFFCURVE",
"438 648 CURVE SMOOTH",
"483 648 OFFCURVE",
"527 637 OFFCURVE",
"549 616 CURVE",
"543 563 OFFCURVE",
"544 527 OFFCURVE",
"548 486 CURVE",
"592 486 LINE",
"639 636 LINE",
"593 689 OFFCURVE",
"523 710 OFFCURVE",
"412 710 CURVE SMOOTH",
"249 710 OFFCURVE",
"125 648 OFFCURVE",
"100 521 CURVE SMOOTH",
"46 256 OFFCURVE",
"408 347 OFFCURVE",
"373 177 CURVE SMOOTH",
"355 89 OFFCURVE",
"280 52 OFFCURVE",
"206 52 CURVE SMOOTH",
"159 52 OFFCURVE",
"114 71 OFFCURVE",
"90 100 CURVE",
"96 153 OFFCURVE",
"100 199 OFFCURVE",
"97 240 CURVE",
"52 240 LINE",
"4 87 LINE",
"36 28 OFFCURVE",
"132 -10 OFFCURVE",
"244 -10 CURVE SMOOTH"
);
},
{
closed = 1;
nodes = (
"336 821 OFFCURVE",
"417 891 OFFCURVE",
"446 928 CURVE",
"446 928 OFFCURVE",
"449 928 OFFCURVE",
"449 928 CURVE",
"462 891 OFFCURVE",
"515 821 OFFCURVE",
"551 786 CURVE",
"637 841 LINE",
"598 870 OFFCURVE",
"518 964 OFFCURVE",
"505 997 CURVE",
"505 997 OFFCURVE",
"417 997 OFFCURVE",
"417 997 CURVE",
"390 964 OFFCURVE",
"273 870 OFFCURVE",
"222 841 CURVE",
"288 786 LINE"
);
}
);
width = 612;
}
);
leftKerningGroup = S;
note = Scircumflex;
rightKerningGroup = S;
unicode = 015C;
},
{
glyphname = Scommaaccent;
lastChange = "2015-11-29 22:57:18 +0000";
layers = (
{
layerId = "A20AAD8A-5619-416D-9D3E-77802FB4F06A";
name = "Bold Italic";
paths = (
{
closed = 1;
nodes = (
"403 -10 OFFCURVE",
"546 63 OFFCURVE",
"575 203 CURVE SMOOTH",
"631 482 OFFCURVE",
"274 421 OFFCURVE",
"301 554 CURVE SMOOTH",
"316 626 OFFCURVE",
"378 648 OFFCURVE",
"438 648 CURVE SMOOTH",
"483 648 OFFCURVE",
"527 637 OFFCURVE",
"549 616 CURVE",
"543 563 OFFCURVE",
"544 527 OFFCURVE",
"548 486 CURVE",
"592 486 LINE",
"639 636 LINE",
"593 689 OFFCURVE",
"523 710 OFFCURVE",
"412 710 CURVE SMOOTH",
"249 710 OFFCURVE",
"125 648 OFFCURVE",
"100 521 CURVE SMOOTH",
"46 256 OFFCURVE",
"408 347 OFFCURVE",
"373 177 CURVE SMOOTH",
"355 89 OFFCURVE",
"280 52 OFFCURVE",
"206 52 CURVE SMOOTH",
"159 52 OFFCURVE",
"114 71 OFFCURVE",
"90 100 CURVE",
"96 153 OFFCURVE",
"100 199 OFFCURVE",
"97 240 CURVE",
"52 240 LINE",
"4 87 LINE",
"36 28 OFFCURVE",
"132 -10 OFFCURVE",
"244 -10 CURVE SMOOTH"
);
},
{
closed = 1;
nodes = (
"234 -323 OFFCURVE",
"305 -225 OFFCURVE",
"323 -135 CURVE SMOOTH",
"332 -91 OFFCURVE",
"312 -50 OFFCURVE",
"252 -50 CURVE SMOOTH",
"208 -50 OFFCURVE",
"163 -80 OFFCURVE",
"153 -129 CURVE SMOOTH",
"145 -170 OFFCURVE",
"173 -207 OFFCURVE",
"213 -212 CURVE",
"196 -258 OFFCURVE",
"141 -311 OFFCURVE",
"112 -335 CURVE",
"160 -379 LINE"
);
}
);
width = 612;
}
);
leftKerningGroup = S;
note = Scommaaccent;
rightKerningGroup = S;
unicode = 0218;
},
{
glyphname = Sdotaccent;
lastChange = "2015-11-29 22:57:21 +0000";
layers = (
{
layerId = "A20AAD8A-5619-416D-9D3E-77802FB4F06A";
name = "Bold Italic";
paths = (
{
closed = 1;
nodes = (
"403 -10 OFFCURVE",
"546 63 OFFCURVE",
"575 203 CURVE SMOOTH",
"631 482 OFFCURVE",
"274 421 OFFCURVE",
"301 554 CURVE SMOOTH",
"316 626 OFFCURVE",
"378 648 OFFCURVE",
"438 648 CURVE SMOOTH",
"483 648 OFFCURVE",
"527 637 OFFCURVE",
"549 616 CURVE",
"543 563 OFFCURVE",
"544 527 OFFCURVE",
"548 486 CURVE",
"592 486 LINE",
"639 636 LINE",
"593 689 OFFCURVE",
"523 710 OFFCURVE",
"412 710 CURVE SMOOTH",
"249 710 OFFCURVE",
"125 648 OFFCURVE",
"100 521 CURVE SMOOTH",
"46 256 OFFCURVE",
"408 347 OFFCURVE",
"373 177 CURVE SMOOTH",
"355 89 OFFCURVE",
"280 52 OFFCURVE",
"206 52 CURVE SMOOTH",
"159 52 OFFCURVE",
"114 71 OFFCURVE",
"90 100 CURVE",
"96 153 OFFCURVE",
"100 199 OFFCURVE",
"97 240 CURVE",
"52 240 LINE",
"4 87 LINE",
"36 28 OFFCURVE",
"132 -10 OFFCURVE",
"244 -10 CURVE SMOOTH"
);
},
{
closed = 1;
nodes = (
"482 786 OFFCURVE",
"514 818 OFFCURVE",
"523 858 CURVE SMOOTH",
"531 898 OFFCURVE",
"510 931 OFFCURVE",
"467 931 CURVE SMOOTH",
"424 931 OFFCURVE",
"391 898 OFFCURVE",
"384 858 CURVE SMOOTH",
"375 818 OFFCURVE",
"395 786 OFFCURVE",
"438 786 CURVE SMOOTH"
);
}
);
width = 612;
}
);
leftKerningGroup = S;
note = Sdotaccent;
rightKerningGroup = S;
unicode = 1E60;
},
{
glyphname = Sdotbelow;
lastChange = "2015-11-29 22:57:20 +0000";
layers = (
{
layerId = "A20AAD8A-5619-416D-9D3E-77802FB4F06A";
name = "Bold Italic";
paths = (
{
closed = 1;
nodes = (
"403 -10 OFFCURVE",
"546 63 OFFCURVE",
"575 203 CURVE SMOOTH",
"631 482 OFFCURVE",
"274 421 OFFCURVE",
"301 554 CURVE SMOOTH",
"316 626 OFFCURVE",
"378 648 OFFCURVE",
"438 648 CURVE SMOOTH",
"483 648 OFFCURVE",
"527 637 OFFCURVE",
"549 616 CURVE",
"543 563 OFFCURVE",
"544 527 OFFCURVE",
"548 486 CURVE",
"592 486 LINE",
"639 636 LINE",
"593 689 OFFCURVE",
"523 710 OFFCURVE",
"412 710 CURVE SMOOTH",
"249 710 OFFCURVE",
"125 648 OFFCURVE",
"100 521 CURVE SMOOTH",
"46 256 OFFCURVE",
"408 347 OFFCURVE",
"373 177 CURVE SMOOTH",
"355 89 OFFCURVE",
"280 52 OFFCURVE",
"206 52 CURVE SMOOTH",
"159 52 OFFCURVE",
"114 71 OFFCURVE",
"90 100 CURVE",
"96 153 OFFCURVE",
"100 199 OFFCURVE",
"97 240 CURVE",
"52 240 LINE",
"4 87 LINE",
"36 28 OFFCURVE",
"132 -10 OFFCURVE",
"244 -10 CURVE SMOOTH"
);
},
{
closed = 1;
nodes = (
"276 -195 OFFCURVE",
"310 -163 OFFCURVE",
"317 -123 CURVE SMOOTH",
"326 -83 OFFCURVE",
"306 -50 OFFCURVE",
"263 -50 CURVE SMOOTH",
"220 -50 OFFCURVE",
"187 -83 OFFCURVE",
"178 -123 CURVE SMOOTH",
"171 -163 OFFCURVE",
"190 -195 OFFCURVE",
"233 -195 CURVE SMOOTH"
);
}
);
width = 612;
}
);
leftKerningGroup = S;
note = Sdotbelow;
rightKerningGroup = S;
unicode = 1E62;
},
{
glyphname = Germandbls;
lastChange = "2015-11-29 22:57:19 +0000";
layers = (
{
layerId = "A20AAD8A-5619-416D-9D3E-77802FB4F06A";
name = "Bold Italic";
paths = (
{
closed = 1;
nodes = (
"613 -10 OFFCURVE",
"721 91 OFFCURVE",
"745 208 CURVE SMOOTH",
"765 309 OFFCURVE",
"696 381 OFFCURVE",
"564 404 CURVE",
"734 552 LINE",
"726 627 OFFCURVE",
"649 710 OFFCURVE",
"487 710 CURVE SMOOTH",
"286 710 OFFCURVE",
"178 631 OFFCURVE",
"149 493 CURVE SMOOTH",
"58 47 LINE",
"-22 25 LINE",
"-27 0 LINE",
"238 0 LINE",
"348 544 LINE SMOOTH",
"363 614 OFFCURVE",
"406 648 OFFCURVE",
"465 648 CURVE SMOOTH",
"535 648 OFFCURVE",
"556 599 OFFCURVE",
"556 546 CURVE",
"366 379 LINE",
"361 351 LINE",
"469 351 LINE SMOOTH",
"545 351 OFFCURVE",
"573 292 OFFCURVE",
"556 208 CURVE SMOOTH",
"536 114 OFFCURVE",
"485 49 OFFCURVE",
"420 49 CURVE SMOOTH",
"390 49 OFFCURVE",
"361 53 OFFCURVE",
"331 60 CURVE",
"318 -1 LINE",
"346 -7 OFFCURVE",
"377 -10 OFFCURVE",
"412 -10 CURVE SMOOTH"
);
}
);
width = 778;
}
);
note = uni1E9E;
unicode = 1E9E;
},
{
glyphname = Schwa;
lastChange = "2015-11-29 22:57:18 +0000";
layers = (
{
layerId = "A20AAD8A-5619-416D-9D3E-77802FB4F06A";
name = "Bold Italic";
paths = (
{
closed = 1;
nodes = (
"536 -10 OFFCURVE",
"707 112 OFFCURVE",
"755 344 CURVE SMOOTH",
"798 559 OFFCURVE",
"689 710 OFFCURVE",
"436 710 CURVE SMOOTH",
"273 710 OFFCURVE",
"176 657 OFFCURVE",
"124 625 CURVE",
"136 564 LINE",
"251 633 OFFCURVE",
"324 648 OFFCURVE",
"409 648 CURVE SMOOTH",
"556 648 OFFCURVE",
"598 483 OFFCURVE",
"566 326 CURVE SMOOTH",
"537 184 OFFCURVE",
"447 48 OFFCURVE",
"318 48 CURVE SMOOTH",
"222 48 OFFCURVE",
"204 176 OFFCURVE",
"227 290 CURVE",
"570 290 LINE",
"582 351 LINE",
"53 351 LINE",
"46 313 LINE SMOOTH",
"10 139 OFFCURVE",
"78 -10 OFFCURVE",
"310 -10 CURVE SMOOTH"
);
}
);
width = 760;
}
);
note = uni018F;
unicode = 018F;
},
{
glyphname = T;
lastChange = "2015-11-29 22:57:20 +0000";
layers = (
{
layerId = "A20AAD8A-5619-416D-9D3E-77802FB4F06A";
name = "Bold Italic";
paths = (
{
closed = 1;
nodes = (
"474 0 LINE",
"478 23 LINE",
"453 31 OFFCURVE",
"416 41 OFFCURVE",
"396 45 CURVE",
"518 641 LINE",
"652 641 LINE",
"647 607 OFFCURVE",
"652 497 OFFCURVE",
"662 473 CURVE",
"702 473 LINE",
"748 700 LINE",
"119 700 LINE",
"73 473 LINE",
"113 473 LINE",
"133 497 OFFCURVE",
"184 607 OFFCURVE",
"193 641 CURVE",
"326 641 LINE",
"204 47 LINE",
"115 25 LINE",
"110 0 LINE"
);
}
);
width = 676;
}
);
leftKerningGroup = T;
note = T;
rightKerningGroup = T;
unicode = 0054;
},
{
glyphname = Tbar;
lastChange = "2015-11-29 22:57:18 +0000";
layers = (
{
layerId = "A20AAD8A-5619-416D-9D3E-77802FB4F06A";
name = "Bold Italic";
paths = (
{
closed = 1;
nodes = (
"474 0 LINE",
"478 23 LINE",
"453 31 OFFCURVE",
"416 41 OFFCURVE",
"396 45 CURVE",
"518 641 LINE",
"652 641 LINE",
"647 607 OFFCURVE",
"652 497 OFFCURVE",
"662 473 CURVE",
"702 473 LINE",
"748 700 LINE",
"119 700 LINE",
"73 473 LINE",
"113 473 LINE",
"133 497 OFFCURVE",
"184 607 OFFCURVE",
"193 641 CURVE",
"326 641 LINE",
"204 47 LINE",
"115 25 LINE",
"110 0 LINE"
);
},
{
closed = 1;
nodes = (
"582 280 LINE",
"595 338 LINE",
"140 338 LINE",
"127 280 LINE"
);
}
);
width = 676;
}
);
leftKerningGroup = T;
note = Tbar;
rightKerningGroup = T;
unicode = 0166;
},
{
glyphname = Tcaron;
lastChange = "2015-11-29 22:57:19 +0000";
layers = (
{
layerId = "A20AAD8A-5619-416D-9D3E-77802FB4F06A";
name = "Bold Italic";
paths = (
{
closed = 1;
nodes = (
"474 0 LINE",
"478 23 LINE",
"453 31 OFFCURVE",
"416 41 OFFCURVE",
"396 45 CURVE",
"518 641 LINE",
"652 641 LINE",
"647 607 OFFCURVE",
"652 497 OFFCURVE",
"662 473 CURVE",
"702 473 LINE",
"748 700 LINE",
"119 700 LINE",
"73 473 LINE",
"113 473 LINE",
"133 497 OFFCURVE",
"184 607 OFFCURVE",
"193 641 CURVE",
"326 641 LINE",
"204 47 LINE",
"115 25 LINE",
"110 0 LINE"
);
},
{
closed = 1;
nodes = (
"406 786 OFFCURVE",
"493 786 OFFCURVE",
"493 786 CURVE",
"520 819 OFFCURVE",
"638 913 OFFCURVE",
"689 942 CURVE",
"624 997 LINE",
"575 962 OFFCURVE",
"493 892 OFFCURVE",
"464 855 CURVE",
"464 855 OFFCURVE",
"461 855 OFFCURVE",
"461 855 CURVE",
"448 892 OFFCURVE",
"395 962 OFFCURVE",
"360 997 CURVE",
"274 942 LINE",
"314 913 OFFCURVE",
"392 819 OFFCURVE",
"406 786 CURVE"
);
}
);
width = 676;
}
);
leftKerningGroup = T;
note = Tcaron;
rightKerningGroup = T;
unicode = 0164;
},
{
glyphname = Tcedilla;
lastChange = "2015-11-29 22:57:20 +0000";
layers = (
{
layerId = "A20AAD8A-5619-416D-9D3E-77802FB4F06A";
name = "Bold Italic";
paths = (
{
closed = 1;
nodes = (
"474 0 LINE",
"478 23 LINE",
"453 31 OFFCURVE",
"416 41 OFFCURVE",
"396 45 CURVE",
"518 641 LINE",
"652 641 LINE",
"647 607 OFFCURVE",
"652 497 OFFCURVE",
"662 473 CURVE",
"702 473 LINE",
"748 700 LINE",
"119 700 LINE",
"73 473 LINE",
"113 473 LINE",
"133 497 OFFCURVE",
"184 607 OFFCURVE",
"193 641 CURVE",
"326 641 LINE",
"204 47 LINE",
"115 25 LINE",
"110 0 LINE"
);
},
{
closed = 1;
nodes = (
"284 -274 OFFCURVE",
"364 -233 OFFCURVE",
"380 -154 CURVE SMOOTH",
"388 -114 OFFCURVE",
"371 -66 OFFCURVE",
"295 -58 CURVE",
"291 -58 OFFCURVE",
"280 -57 OFFCURVE",
"275 -57 CURVE",
"337 32 LINE",
"260 32 LINE",
"188 -71 LINE",
"208 -108 LINE",
"215 -107 OFFCURVE",
"222 -107 OFFCURVE",
"229 -107 CURVE SMOOTH",
"262 -107 OFFCURVE",
"298 -116 OFFCURVE",
"291 -154 CURVE SMOOTH",
"281 -198 OFFCURVE",
"239 -211 OFFCURVE",
"196 -211 CURVE SMOOTH",
"165 -211 OFFCURVE",
"133 -202 OFFCURVE",
"116 -188 CURVE",
"78 -234 LINE",
"106 -259 OFFCURVE",
"156 -274 OFFCURVE",
"199 -274 CURVE SMOOTH"
);
}
);
width = 676;
}
);
leftKerningGroup = T;
note = Tcedilla;
rightKerningGroup = T;
unicode = 0162;
},
{
glyphname = Tcommaaccent;
lastChange = "2015-11-29 22:57:18 +0000";
layers = (
{
layerId = "A20AAD8A-5619-416D-9D3E-77802FB4F06A";
name = "Bold Italic";
paths = (
{
closed = 1;
nodes = (
"474 0 LINE",
"478 23 LINE",
"453 31 OFFCURVE",
"416 41 OFFCURVE",
"396 45 CURVE",
"518 641 LINE",
"652 641 LINE",
"647 607 OFFCURVE",
"652 497 OFFCURVE",
"662 473 CURVE",
"702 473 LINE",
"748 700 LINE",
"119 700 LINE",
"73 473 LINE",
"113 473 LINE",
"133 497 OFFCURVE",
"184 607 OFFCURVE",
"193 641 CURVE",
"326 641 LINE",
"204 47 LINE",
"115 25 LINE",
"110 0 LINE"
);
},
{
closed = 1;
nodes = (
"255 -356 OFFCURVE",
"323 -264 OFFCURVE",
"342 -174 CURVE SMOOTH",
"351 -130 OFFCURVE",
"331 -89 OFFCURVE",
"271 -89 CURVE SMOOTH",
"227 -89 OFFCURVE",
"182 -119 OFFCURVE",
"172 -168 CURVE SMOOTH",
"164 -209 OFFCURVE",
"192 -246 OFFCURVE",
"232 -251 CURVE",
"214 -297 OFFCURVE",
"162 -344 OFFCURVE",
"133 -368 CURVE",
"181 -412 LINE"
);
}
);
width = 676;
}
);
leftKerningGroup = T;
note = Tcommaaccent;
rightKerningGroup = T;
unicode = 021A;
},
{
glyphname = Tdotbelow;
lastChange = "2015-11-29 22:57:20 +0000";
layers = (
{
layerId = "A20AAD8A-5619-416D-9D3E-77802FB4F06A";
name = "Bold Italic";
paths = (
{
closed = 1;
nodes = (
"474 0 LINE",
"478 23 LINE",
"453 31 OFFCURVE",
"416 41 OFFCURVE",
"396 45 CURVE",
"518 641 LINE",
"652 641 LINE",
"647 607 OFFCURVE",
"652 497 OFFCURVE",
"662 473 CURVE",
"702 473 LINE",
"748 700 LINE",
"119 700 LINE",
"73 473 LINE",
"113 473 LINE",
"133 497 OFFCURVE",
"184 607 OFFCURVE",
"193 641 CURVE",
"326 641 LINE",
"204 47 LINE",
"115 25 LINE",
"110 0 LINE"
);
},
{
closed = 1;
nodes = (
"294 -195 OFFCURVE",
"328 -163 OFFCURVE",
"336 -123 CURVE SMOOTH",
"344 -83 OFFCURVE",
"324 -50 OFFCURVE",
"281 -50 CURVE SMOOTH",
"238 -50 OFFCURVE",
"205 -83 OFFCURVE",
"196 -123 CURVE SMOOTH",
"189 -163 OFFCURVE",
"208 -195 OFFCURVE",
"251 -195 CURVE SMOOTH"
);
}
);
width = 676;
}
);
leftKerningGroup = T;
note = Tdotbelow;
rightKerningGroup = T;
unicode = 1E6C;
},
{
glyphname = Tlinebelow;
lastChange = "2015-11-29 22:57:18 +0000";
layers = (
{
layerId = "A20AAD8A-5619-416D-9D3E-77802FB4F06A";
name = "Bold Italic";
paths = (
{
closed = 1;
nodes = (
"474 0 LINE",
"478 23 LINE",
"453 31 OFFCURVE",
"416 41 OFFCURVE",
"396 45 CURVE",
"518 641 LINE",
"652 641 LINE",
"647 607 OFFCURVE",
"652 497 OFFCURVE",
"662 473 CURVE",
"702 473 LINE",
"748 700 LINE",
"119 700 LINE",
"73 473 LINE",
"113 473 LINE",
"133 497 OFFCURVE",
"184 607 OFFCURVE",
"193 641 CURVE",
"326 641 LINE",
"204 47 LINE",
"115 25 LINE",
"110 0 LINE"
);
},
{
closed = 1;
nodes = (
"474 -112 LINE",
"485 -55 LINE",
"76 -55 LINE",
"64 -112 LINE"
);
}
);
width = 676;
}
);
leftKerningGroup = T;
note = Tlinebelow;
rightKerningGroup = T;
unicode = 1E6E;
},
{
glyphname = U;
lastChange = "2015-11-29 22:57:18 +0000";
layers = (
{
layerId = "A20AAD8A-5619-416D-9D3E-77802FB4F06A";
name = "Bold Italic";
paths = (
{
closed = 1;
nodes = (
"550 -10 OFFCURVE",
"665 76 OFFCURVE",
"695 225 CURVE SMOOTH",
"782 653 LINE",
"791 655 OFFCURVE",
"822 664 OFFCURVE",
"865 678 CURVE",
"868 700 LINE",
"644 700 LINE",
"640 678 LINE",
"666 668 OFFCURVE",
"689 661 OFFCURVE",
"712 656 CURVE",
"621 209 LINE SMOOTH",
"597 91 OFFCURVE",
"502 52 OFFCURVE",
"417 52 CURVE SMOOTH",
"334 52 OFFCURVE",
"257 87 OFFCURVE",
"282 209 CURVE SMOOTH",
"372 653 LINE",
"453 675 LINE",
"458 700 LINE",
"113 700 LINE",
"109 678 LINE",
"135 668 OFFCURVE",
"160 660 OFFCURVE",
"181 655 CURVE",
"93 225 LINE SMOOTH",
"60 64 OFFCURVE",
"156 -10 OFFCURVE",
"356 -10 CURVE SMOOTH"
);
}
);
width = 790;
}
);
leftKerningGroup = U;
note = U;
rightKerningGroup = U;
unicode = 0055;
},
{
glyphname = Uacute;
lastChange = "2015-11-29 22:57:20 +0000";
layers = (
{
layerId = "A20AAD8A-5619-416D-9D3E-77802FB4F06A";
name = "Bold Italic";
paths = (
{
closed = 1;
nodes = (
"550 -10 OFFCURVE",
"665 76 OFFCURVE",
"695 225 CURVE SMOOTH",
"782 653 LINE",
"791 655 OFFCURVE",
"822 664 OFFCURVE",
"865 678 CURVE",
"868 700 LINE",
"644 700 LINE",
"640 678 LINE",
"666 668 OFFCURVE",
"689 661 OFFCURVE",
"712 656 CURVE",
"621 209 LINE SMOOTH",
"597 91 OFFCURVE",
"502 52 OFFCURVE",
"417 52 CURVE SMOOTH",
"334 52 OFFCURVE",
"257 87 OFFCURVE",
"282 209 CURVE SMOOTH",
"372 653 LINE",
"453 675 LINE",
"458 700 LINE",
"113 700 LINE",
"109 678 LINE",
"135 668 OFFCURVE",
"160 660 OFFCURVE",
"181 655 CURVE",
"93 225 LINE SMOOTH",
"60 64 OFFCURVE",
"156 -10 OFFCURVE",
"356 -10 CURVE SMOOTH"
);
},
{
closed = 1;
nodes = (
"657 886 LINE SMOOTH",
"699 909 OFFCURVE",
"724 931 OFFCURVE",
"730 960 CURVE",
"734 982 OFFCURVE",
"724 1011 OFFCURVE",
"682 1011 CURVE SMOOTH",
"643 1011 OFFCURVE",
"607 975 OFFCURVE",
"602 969 CURVE",
"451 830 LINE",
"472 786 LINE"
);
}
);
width = 790;
}
);
leftKerningGroup = U;
note = Uacute;
rightKerningGroup = U;
unicode = 00DA;
},
{
glyphname = Ubreve;
lastChange = "2015-11-29 22:57:19 +0000";
layers = (
{
layerId = "A20AAD8A-5619-416D-9D3E-77802FB4F06A";
name = "Bold Italic";
paths = (
{
closed = 1;
nodes = (
"550 -10 OFFCURVE",
"665 76 OFFCURVE",
"695 225 CURVE SMOOTH",
"782 653 LINE",
"791 655 OFFCURVE",
"822 664 OFFCURVE",
"865 678 CURVE",
"868 700 LINE",
"644 700 LINE",
"640 678 LINE",
"666 668 OFFCURVE",
"689 661 OFFCURVE",
"712 656 CURVE",
"621 209 LINE SMOOTH",
"597 91 OFFCURVE",
"502 52 OFFCURVE",
"417 52 CURVE SMOOTH",
"334 52 OFFCURVE",
"257 87 OFFCURVE",
"282 209 CURVE SMOOTH",
"372 653 LINE",
"453 675 LINE",
"458 700 LINE",
"113 700 LINE",
"109 678 LINE",
"135 668 OFFCURVE",
"160 660 OFFCURVE",
"181 655 CURVE",
"93 225 LINE SMOOTH",
"60 64 OFFCURVE",
"156 -10 OFFCURVE",
"356 -10 CURVE SMOOTH"
);
},
{
closed = 1;
nodes = (
"625 786 OFFCURVE",
"703 831 OFFCURVE",
"741 927 CURVE",
"639 927 LINE",
"618 856 OFFCURVE",
"574 847 OFFCURVE",
"534 847 CURVE SMOOTH",
"495 847 OFFCURVE",
"455 856 OFFCURVE",
"462 927 CURVE",
"362 927 LINE",
"359 831 OFFCURVE",
"419 786 OFFCURVE",
"522 786 CURVE SMOOTH"
);
}
);
width = 790;
}
);
leftKerningGroup = U;
note = Ubreve;
rightKerningGroup = U;
unicode = 016C;
},
{
glyphname = Ucaron;
lastChange = "2015-11-29 22:57:21 +0000";
layers = (
{
layerId = "A20AAD8A-5619-416D-9D3E-77802FB4F06A";
name = "Bold Italic";
paths = (
{
closed = 1;
nodes = (
"550 -10 OFFCURVE",
"665 76 OFFCURVE",
"695 225 CURVE SMOOTH",
"782 653 LINE",
"791 655 OFFCURVE",
"822 664 OFFCURVE",
"865 678 CURVE",
"868 700 LINE",
"644 700 LINE",
"640 678 LINE",
"666 668 OFFCURVE",
"689 661 OFFCURVE",
"712 656 CURVE",
"621 209 LINE SMOOTH",
"597 91 OFFCURVE",
"502 52 OFFCURVE",
"417 52 CURVE SMOOTH",
"334 52 OFFCURVE",
"257 87 OFFCURVE",
"282 209 CURVE SMOOTH",
"372 653 LINE",
"453 675 LINE",
"458 700 LINE",
"113 700 LINE",
"109 678 LINE",
"135 668 OFFCURVE",
"160 660 OFFCURVE",
"181 655 CURVE",
"93 225 LINE SMOOTH",
"60 64 OFFCURVE",
"156 -10 OFFCURVE",
"356 -10 CURVE SMOOTH"
);
},
{
closed = 1;
nodes = (
"464 786 OFFCURVE",
"552 786 OFFCURVE",
"552 786 CURVE",
"579 819 OFFCURVE",
"697 913 OFFCURVE",
"748 942 CURVE",
"682 997 LINE",
"633 962 OFFCURVE",
"552 892 OFFCURVE",
"523 855 CURVE",
"523 855 OFFCURVE",
"520 855 OFFCURVE",
"520 855 CURVE",
"507 892 OFFCURVE",
"454 962 OFFCURVE",
"418 997 CURVE",
"333 942 LINE",
"372 913 OFFCURVE",
"451 819 OFFCURVE",
"464 786 CURVE"
);
}
);
width = 790;
}
);
leftKerningGroup = U;
note = Ucaron;
rightKerningGroup = U;
unicode = 01D3;
},
{
glyphname = Ucircumflex;
lastChange = "2015-11-29 22:57:21 +0000";
layers = (
{
layerId = "A20AAD8A-5619-416D-9D3E-77802FB4F06A";
name = "Bold Italic";
paths = (
{
closed = 1;
nodes = (
"550 -10 OFFCURVE",
"665 76 OFFCURVE",
"695 225 CURVE SMOOTH",
"782 653 LINE",
"791 655 OFFCURVE",
"822 664 OFFCURVE",
"865 678 CURVE",
"868 700 LINE",
"644 700 LINE",
"640 678 LINE",
"666 668 OFFCURVE",
"689 661 OFFCURVE",
"712 656 CURVE",
"621 209 LINE SMOOTH",
"597 91 OFFCURVE",
"502 52 OFFCURVE",
"417 52 CURVE SMOOTH",
"334 52 OFFCURVE",
"257 87 OFFCURVE",
"282 209 CURVE SMOOTH",
"372 653 LINE",
"453 675 LINE",
"458 700 LINE",
"113 700 LINE",
"109 678 LINE",
"135 668 OFFCURVE",
"160 660 OFFCURVE",
"181 655 CURVE",
"93 225 LINE SMOOTH",
"60 64 OFFCURVE",
"156 -10 OFFCURVE",
"356 -10 CURVE SMOOTH"
);
},
{
closed = 1;
nodes = (
"427 821 OFFCURVE",
"508 891 OFFCURVE",
"537 928 CURVE",
"537 928 OFFCURVE",
"540 928 OFFCURVE",
"540 928 CURVE",
"554 891 OFFCURVE",
"606 821 OFFCURVE",
"642 786 CURVE",
"728 841 LINE",
"689 870 OFFCURVE",
"609 964 OFFCURVE",
"596 997 CURVE",
"596 997 OFFCURVE",
"508 997 OFFCURVE",
"508 997 CURVE",
"482 964 OFFCURVE",
"364 870 OFFCURVE",
"314 841 CURVE",
"379 786 LINE"
);
}
);
width = 790;
}
);
leftKerningGroup = U;
note = Ucircumflex;
rightKerningGroup = U;
unicode = 00DB;
},
{
glyphname = Udieresis;
lastChange = "2015-11-29 22:57:19 +0000";
layers = (
{
layerId = "A20AAD8A-5619-416D-9D3E-77802FB4F06A";
name = "Bold Italic";
paths = (
{
closed = 1;
nodes = (
"550 -10 OFFCURVE",
"665 76 OFFCURVE",
"695 225 CURVE SMOOTH",
"782 653 LINE",
"791 655 OFFCURVE",
"822 664 OFFCURVE",
"865 678 CURVE",
"868 700 LINE",
"644 700 LINE",
"640 678 LINE",
"666 668 OFFCURVE",
"689 661 OFFCURVE",
"712 656 CURVE",
"621 209 LINE SMOOTH",
"597 91 OFFCURVE",
"502 52 OFFCURVE",
"417 52 CURVE SMOOTH",
"334 52 OFFCURVE",
"257 87 OFFCURVE",
"282 209 CURVE SMOOTH",
"372 653 LINE",
"453 675 LINE",
"458 700 LINE",
"113 700 LINE",
"109 678 LINE",
"135 668 OFFCURVE",
"160 660 OFFCURVE",
"181 655 CURVE",
"93 225 LINE SMOOTH",
"60 64 OFFCURVE",
"156 -10 OFFCURVE",
"356 -10 CURVE SMOOTH"
);
},
{
closed = 1;
nodes = (
"460 786 OFFCURVE",
"492 818 OFFCURVE",
"501 858 CURVE SMOOTH",
"508 898 OFFCURVE",
"488 931 OFFCURVE",
"445 931 CURVE SMOOTH",
"403 931 OFFCURVE",
"370 898 OFFCURVE",
"363 858 CURVE SMOOTH",
"354 818 OFFCURVE",
"374 786 OFFCURVE",
"417 786 CURVE SMOOTH"
);
},
{
closed = 1;
nodes = (
"702 786 OFFCURVE",
"735 818 OFFCURVE",
"744 858 CURVE SMOOTH",
"751 898 OFFCURVE",
"731 931 OFFCURVE",
"688 931 CURVE SMOOTH",
"645 931 OFFCURVE",
"612 898 OFFCURVE",
"604 858 CURVE SMOOTH",
"596 818 OFFCURVE",
"616 786 OFFCURVE",
"659 786 CURVE SMOOTH"
);
}
);
width = 790;
}
);
leftKerningGroup = U;
note = Udieresis;
rightKerningGroup = U;
unicode = 00DC;
},
{
glyphname = Udieresisacute;
lastChange = "2015-11-29 22:57:20 +0000";
layers = (
{
layerId = "A20AAD8A-5619-416D-9D3E-77802FB4F06A";
name = "Bold Italic";
paths = (
{
closed = 1;
nodes = (
"550 -10 OFFCURVE",
"665 76 OFFCURVE",
"695 225 CURVE SMOOTH",
"782 653 LINE",
"791 655 OFFCURVE",
"822 664 OFFCURVE",
"865 678 CURVE",
"868 700 LINE",
"644 700 LINE",
"640 678 LINE",
"666 668 OFFCURVE",
"689 661 OFFCURVE",
"712 656 CURVE",
"621 209 LINE SMOOTH",
"597 91 OFFCURVE",
"502 52 OFFCURVE",
"417 52 CURVE SMOOTH",
"334 52 OFFCURVE",
"257 87 OFFCURVE",
"282 209 CURVE SMOOTH",
"372 653 LINE",
"453 675 LINE",
"458 700 LINE",
"113 700 LINE",
"109 678 LINE",
"135 668 OFFCURVE",
"160 660 OFFCURVE",
"181 655 CURVE",
"93 225 LINE SMOOTH",
"60 64 OFFCURVE",
"156 -10 OFFCURVE",
"356 -10 CURVE SMOOTH"
);
},
{
closed = 1;
nodes = (
"460 786 OFFCURVE",
"492 818 OFFCURVE",
"501 858 CURVE SMOOTH",
"508 898 OFFCURVE",
"488 931 OFFCURVE",
"445 931 CURVE SMOOTH",
"403 931 OFFCURVE",
"370 898 OFFCURVE",
"363 858 CURVE SMOOTH",
"354 818 OFFCURVE",
"374 786 OFFCURVE",
"417 786 CURVE SMOOTH"
);
},
{
closed = 1;
nodes = (
"702 786 OFFCURVE",
"735 818 OFFCURVE",
"744 858 CURVE SMOOTH",
"751 898 OFFCURVE",
"731 931 OFFCURVE",
"688 931 CURVE SMOOTH",
"645 931 OFFCURVE",
"612 898 OFFCURVE",
"604 858 CURVE SMOOTH",
"596 818 OFFCURVE",
"616 786 OFFCURVE",
"659 786 CURVE SMOOTH"
);
},
{
closed = 1;
nodes = (
"669 1095 LINE SMOOTH",
"710 1118 OFFCURVE",
"735 1140 OFFCURVE",
"742 1169 CURVE",
"746 1191 OFFCURVE",
"735 1220 OFFCURVE",
"694 1220 CURVE SMOOTH",
"654 1220 OFFCURVE",
"619 1184 OFFCURVE",
"613 1178 CURVE",
"462 1039 LINE",
"484 995 LINE"
);
}
);
width = 790;
}
);
leftKerningGroup = U;
note = Udieresisacute;
rightKerningGroup = U;
unicode = 01D7;
},
